<?xml version="1.0" encoding="UTF-8"?>
<svg id="Layer_1" data-name="Layer 1" xmlns="http://www.w3.org/2000/svg" viewBox="0 0 595.28 841.89">
  <defs>
    <style>
      .cls-1, .cls-2 {
        fill: #231f20;
      }

      .cls-3 {
        fill: #99633b;
      }

      .cls-3, .cls-4, .cls-5, .cls-2, .cls-6, .cls-7, .cls-8, .cls-9 {
        stroke: #231f20;
        stroke-miterlimit: 10;
        stroke-width: 3px;
      }

      .cls-4 {
        fill: #342a13;
      }

      .cls-5 {
        fill: #c49a6c;
      }

      .cls-6 {
        fill: #3950a2;
      }

      .cls-7 {
        fill: #957d42;
      }

      .cls-8 {
        fill: #fff200;
      }

      .cls-9 {
        fill: #fbdbe9;
      }
    </style>
  </defs>
  <path class="cls-5" d="m522.57,485.91c0,118.38-9.96,98.28-22.11,99.35-12.87,1.13-12.87-44.28-12.87-99.15s.66-99.55,12.87-99.55,22.11-15.73,22.11,99.35Z"/>
  <path class="cls-5" d="m103.29,485.91c0,118.38-9.96,98.28-22.11,99.35-12.87,1.13-12.87-44.28-12.87-99.15s.66-99.55,12.87-99.55,22.11-15.73,22.11,99.35Z"/>
  <path class="cls-5" d="m546,508.2c0,100.57-9.96,83.5-22.11,84.4-12.87.96-12.87-37.62-12.87-84.23s.66-84.57,12.87-84.57,22.11-13.36,22.11,84.4Z"/>
  <path class="cls-5" d="m82.22,494.69c0,118.38-9.96,98.28-22.11,99.35-12.87,1.13-12.87-44.28-12.87-99.15s.66-99.55,12.87-99.55,22.11-15.73,22.11,99.35Z"/>
  <path class="cls-3" d="m108.8,372.28c-3.69,18.43-6.94,16.83-18.42,19.4s-15.64,10.47-16.55-19.4c-.24-7.98,10.13-14.46,18.97-14.46,20.42,0,17.58,6.6,16.01,14.46Z"/>
  <path class="cls-3" d="m229.18,399.3c99.74,92.38-.86,64.9-53.26,64.9s-84.07-25.14-84.07-61.41,37.67-71.23,84.07-69.95c78.55,2.18,39.61,53.81,53.26,66.46Z"/>
  <path class="cls-5" d="m551.27,485.89c-.56,37.25,4.97,29.67-275.51,32.26-257.93,2.39-244.2,12.43-244.33-32.26-.11-37.97-15.55-29.19,244.33-32.26,267.5-3.16,276.16-10.98,275.51,32.26Z"/>
  <path class="cls-5" d="m64.73,418.43c0,118.38-9.96,98.28-22.11,99.35-12.87,1.13-12.87-44.28-12.87-99.15s.66-99.55,12.87-99.55,22.11-15.73,22.11,99.35Z"/>
  <path class="cls-9" d="m224.03,428.39c32.84,48.44-101.31,34.9-123.56,32.62-39.88-4.08-36.47,3.46-35.78-33.78.76-41.32-5.82-44.75,40.57-45.3,73.41-.86,99.35,17.81,118.77,46.45Z"/>
  <path class="cls-6" d="m535.1,402.79c64.26,161.39-77.16,78.35-172.34,78.35s-132.35,30.53-143.54-77.89c-6.13-59.38-25.84-87.36,145.79-72.33,102.39,8.96,153.88,31.16,170.09,71.88Z"/>
  <path class="cls-4" d="m215.28,347.23c-3.08,17.66-16.43,17.66-27.22,17.66s-20.79-7.97-19.55-17.66c1.56-12.13-.11-17.83,19.55-17.66,10.8.09,28.9,8.02,27.22,17.66Z"/>
  <ellipse class="cls-2" cx="175.06" cy="337.29" rx="6.66" ry="6.01"/>
  <path class="cls-7" d="m101.27,373.7c-1.79,6.79-3.36,6.2-8.93,7.14-5.57.94-7.58,3.85-8.03-7.14-.12-2.94,4.91-5.32,9.2-5.32,9.9,0,8.52,2.43,7.76,5.32Z"/>
  <path class="cls-1" d="m146.92,354.8c.23,6.04-1.54,11.79-5,16.83-.77,1.11-.21,2.77.9,3.42,1.24.72,2.65.22,3.42-.9,3.88-5.64,5.94-12.5,5.68-19.35-.05-1.35-1.11-2.5-2.5-2.5-1.31,0-2.55,1.14-2.5,2.5h0Z"/>
  <polygon class="cls-8" points="265.41 388.19 257.09 390.02 254.05 397.25 249.55 390.68 241 390.3 246.53 384.4 244.29 376.94 252.21 379.87 259.37 375.63 258.73 383.34 265.41 388.19"/>
  <polygon class="cls-8" points="387.46 426.94 376.06 414.26 358.03 415.55 367.86 401.83 360.93 386.74 378.41 390.95 392.15 380.33 393.12 396.65 408.55 405.18 391.67 411.05 387.46 426.94"/>
  <polygon class="cls-8" points="322.55 448.54 306.69 453.76 300.72 468.02 292.34 456.6 276.1 457.7 286.78 445.41 282.71 431.84 297.69 435.67 311.42 426.17 310 440.83 322.55 448.54"/>
  <polygon class="cls-8" points="475.78 383.62 464.89 386.15 461.02 395.69 454.99 387.12 443.75 386.74 450.91 378.91 447.84 369.13 458.3 372.87 467.64 367.21 466.93 377.35 475.78 383.62"/>
  <polygon class="cls-8" points="527.55 477.86 499.17 466.66 472.87 481.43 475.89 453.59 452.21 435.56 482.45 429.55 494.12 403.64 509.79 427.76 540.68 429.78 520.12 450.7 527.55 477.86"/>
  <polygon class="cls-8" points="307.41 376.32 307.29 366.65 298.4 361.26 308.54 358.16 311.47 348.86 317.86 356.62 328.55 356.26 322.36 364.15 326.05 373.22 315.83 370.34 307.41 376.32"/>
</svg>