<?xml version="1.0" encoding="UTF-8"?>
<svg id="Layer_1" data-name="Layer 1" xmlns="http://www.w3.org/2000/svg" viewBox="0 0 595.28 841.89">
  <defs>
    <style>
      .cls-1 {
        fill: none;
      }

      .cls-1, .cls-2, .cls-3, .cls-4, .cls-5, .cls-6, .cls-7 {
        stroke: #231f20;
        stroke-miterlimit: 10;
      }

      .cls-1, .cls-3 {
        stroke-linecap: round;
      }

      .cls-1, .cls-3, .cls-4, .cls-5, .cls-6, .cls-7 {
        stroke-width: 3px;
      }

      .cls-8 {
        fill: #dda4ca;
      }

      .cls-9, .cls-2 {
        fill: #231f20;
      }

      .cls-3, .cls-4 {
        fill: #99633b;
      }

      .cls-5 {
        fill: #342a13;
      }

      .cls-6 {
        fill: #de9ac4;
      }

      .cls-7 {
        fill: #9a7e41;
      }
    </style>
  </defs>
  <path class="cls-9" d="m504.9,487.75c13.17,15.87,18.88,37.76,15.77,58.1-.9,5.88-2.51,11.62-4.8,17.11-.52,1.25.56,2.75,1.75,3.08,1.44.4,2.55-.49,3.08-1.75,8.56-20.5,7.36-44.49-2.19-64.44-2.69-5.62-6.09-10.84-10.07-15.63-.86-1.04-2.64-.89-3.54,0-1.03,1.03-.86,2.49,0,3.54h0Z"/>
  <path class="cls-9" d="m81.73,516.08c-9.07,14.95-14.37,32.06-15.48,49.51-.32,4.94-.27,9.89.11,14.82.1,1.35,1.07,2.5,2.5,2.5,1.27,0,2.6-1.15,2.5-2.5-1.29-16.67,1.43-33.67,8.08-49.03,1.91-4.41,4.12-8.67,6.61-12.78,1.67-2.76-2.65-5.27-4.32-2.52h0Z"/>
  <path class="cls-9" d="m269.5,519.34c8.96,17.07,14.85,35.78,17.17,54.92.16,1.34,1.03,2.5,2.5,2.5,1.22,0,2.66-1.15,2.5-2.5-1.9-15.62-5.95-30.83-12.1-45.32-1.75-4.12-3.68-8.16-5.76-12.13-1.5-2.85-5.81-.33-4.32,2.52h0Z"/>
  <path class="cls-9" d="m295.9,490c-8.16,20.47-8.56,42.95-7.07,64.64.43,6.2,1.01,12.39,1.62,18.57.13,1.34,1.05,2.5,2.5,2.5,1.25,0,2.63-1.15,2.5-2.5-2.1-21.34-4.1-43.29.15-64.5,1.19-5.93,2.88-11.76,5.12-17.38.5-1.25-.55-2.75-1.75-3.08-1.42-.39-2.57.49-3.08,1.75h0Z"/>
  <path class="cls-4" d="m133.58,406.24c11.04,2.84,7.61,25.35,4.45,36.4-3.16,11.04,1.66,5.59-9.39,2.75-11.04-2.84-24.59-4.24-26.54-15.42-1.95-11.17,20.44-26.56,31.48-23.72Z"/>
  <path class="cls-7" d="m128.98,417.69c5.99.95,5.69,11.42,4.77,16.6-.92,5.18,1.24,2.52-4.74,1.56s-13.2-1.17-14.97-6.25c-1.77-5.07,8.95-12.87,14.94-11.91Z"/>
  <path class="cls-4" d="m250.55,425.78c-.46,10.83-24.39,12.68-36.45,12.23-12.07-.45-5.38,2.78-4.92-8.06s-1.13-23.66,9.94-27.96,31.89,12.95,31.43,23.79Z"/>
  <path class="cls-7" d="m238.35,424.1c.56,5.73-10.19,8.14-15.71,8.63-5.52.49-2.25,1.79-2.81-3.94s-2.19-12.38,2.53-15.31c4.72-2.92,15.42,4.9,15.98,10.62Z"/>
  <path class="cls-3" d="m265.23,597.63c-16.3,64.61-38.23,50.86-79.32,51.55-50.06.84-68.21,9.29-87.32-40.24-27.63-71.62-23.35-198.62,85.71-198.69,93.69-.06,95.47,129.74,80.93,187.38Z"/>
  <ellipse class="cls-5" cx="178.82" cy="472.81" rx="21.47" ry="17.1"/>
  <ellipse class="cls-2" cx="178.86" cy="459.19" rx="7.05" ry="5.26"/>
  <line class="cls-1" x1="171.81" y1="599.43" x2="185.91" y2="606.16"/>
  <line class="cls-1" x1="183.67" y1="596.55" x2="174.54" y2="607.6"/>
  <path class="cls-4" d="m353.01,369.98c12.42,3.31,8.55,29.6,5,42.49-3.55,12.89,1.86,6.52-10.56,3.21-12.42-3.31-27.66-4.95-29.85-18s22.99-31.01,35.41-27.7Z"/>
  <path class="cls-7" d="m347.84,383.35c6.73,1.11,6.4,13.33,5.37,19.38-1.03,6.05,1.4,2.94-5.33,1.82s-14.84-1.36-16.84-7.29c-1.99-5.92,10.07-15.02,16.8-13.91Z"/>
  <path class="cls-4" d="m484.56,392.8c-.51,12.65-27.43,14.81-41,14.28-13.57-.53-6.05,3.24-5.53-9.4.51-12.65-1.27-27.62,11.18-32.64,12.43-5.01,35.86,15.12,35.35,27.77Z"/>
  <path class="cls-7" d="m470.84,390.83c.63,6.69-11.46,9.51-17.66,10.08-6.21.57-2.53,2.08-3.16-4.6s-2.47-14.46,2.85-17.88c5.31-3.41,17.34,5.72,17.98,12.4Z"/>
  <path class="cls-3" d="m501.08,593.42c-18.33,75.43-42.99,59.38-89.21,60.18-56.31.98-76.72,10.85-98.21-46.98-31.07-83.62-26.27-231.87,96.4-231.96,105.37-.07,107.38,151.47,91.03,218.75Z"/>
  <ellipse class="cls-5" cx="403.89" cy="447.7" rx="24.14" ry="19.96"/>
  <ellipse class="cls-2" cx="403.94" cy="431.8" rx="7.93" ry="6.14"/>
  <line class="cls-1" x1="396.01" y1="595.53" x2="411.87" y2="603.38"/>
  <line class="cls-1" x1="409.34" y1="592.16" x2="399.08" y2="605.06"/>
  <path class="cls-9" d="m135.77,457.35c.67-1,1.68-1.89,2.94-2.54,1.09-.56,2.43-.87,3.76-.82,1.19.04,2.42.43,3.55,1.1.19.11.37.23.55.35.07.04.33.23.12.07.31.23.6.51.87.78.61.61.77.82,1.26,1.66,1.6,2.79,5.93.27,4.32-2.52-2.19-3.8-6.29-6.29-10.68-6.44s-8.59,2.23-11.02,5.84c-.75,1.12-.22,2.77.9,3.42,1.23.72,2.67.23,3.42-.9h0Z"/>
  <path class="cls-9" d="m355.19,428.44c.68-1,1.69-1.89,2.94-2.54,1.09-.56,2.43-.86,3.76-.82,1.19.04,2.42.43,3.55,1.11.19.11.37.23.55.35.07.04.33.23.12.07.31.23.6.51.87.78.61.61.77.82,1.25,1.67,1.6,2.79,5.92.27,4.32-2.52-2.18-3.81-6.28-6.29-10.67-6.45s-8.59,2.22-11.02,5.83c-.75,1.12-.22,2.77.9,3.42,1.23.72,2.66.23,3.42-.9h0Z"/>
  <path class="cls-9" d="m207.21,457.45c.11-.18.23-.35.35-.52.1-.14.1-.13,0,.01l.16-.19c.29-.3.58-.59.89-.88.09-.08.29-.24.08-.08.17-.13.34-.24.51-.35.35-.23.72-.43,1.09-.61.4-.2-.52.17.21-.09.16-.06.31-.11.47-.16.4-.13.8-.22,1.21-.31.75-.16-.23,0,.2-.03.21-.02.41-.03.62-.04.41,0,.84,0,1.25.06-.27-.04-.12-.02.06.03.2.05.4.09.59.14s.39.11.58.18c.05.02.62.25.38.14-.22-.1.38.2.36.19.18.09.36.2.53.3s.34.22.51.33c.11.08.29.22.08.05.32.26.62.53.9.83.14.15.28.3.41.45.28.32-.29-.45.13.17.21.3.41.61.58.93.1.18.19.36.28.54-.18-.38.08.24.11.31.45,1.27,1.71,2.12,3.08,1.75,1.24-.34,2.19-1.8,1.75-3.08-1.55-4.42-5.41-7.66-10.09-8.24s-9.13,1.8-11.6,5.63c-.73,1.14-.23,2.76.9,3.42,1.21.71,2.69.24,3.42-.9h0Z"/>
  <path class="cls-9" d="m437.65,428.16c.11-.18.23-.35.35-.52.1-.14.1-.13,0,.01l.16-.19c.29-.3.58-.59.89-.88.09-.08.29-.24.08-.08.17-.13.34-.24.51-.35.35-.23.72-.43,1.09-.61.4-.2-.52.17.21-.09.16-.06.31-.11.47-.16.4-.13.8-.22,1.21-.31.75-.16-.23,0,.2-.03.21-.02.41-.03.62-.04.41,0,.84,0,1.25.06-.27-.04-.12-.02.06.03.2.05.4.09.59.14s.39.11.58.18c.05.02.62.25.38.14-.22-.1.38.2.36.19.18.09.36.2.53.3s.34.22.51.33c.11.08.29.22.08.05.32.26.62.53.9.83.14.15.28.3.41.45.28.32-.29-.45.13.17.21.3.41.61.58.93.1.18.19.36.28.54-.18-.38.08.24.11.31.45,1.27,1.71,2.12,3.08,1.75,1.24-.34,2.19-1.8,1.75-3.08-1.55-4.42-5.41-7.66-10.09-8.24s-9.13,1.8-11.6,5.63c-.73,1.14-.23,2.76.9,3.42,1.21.71,2.69.24,3.42-.9h0Z"/>
  <path class="cls-9" d="m143.23,482.19c-.49,3.83.89,7.79,3.44,10.65s6.34,4.41,10.1,4.41c1.31,0,2.56-1.15,2.5-2.5s-1.1-2.5-2.5-2.5c-.4,0-.79-.03-1.18-.06-.49-.04.29.06-.02,0-.16-.04-.32-.06-.48-.09-.39-.08-.77-.19-1.14-.31-.16-.05-.31-.11-.47-.16-.09-.03-.18-.07-.28-.11l.23.1c-.32-.02-.78-.38-1.05-.54s-.56-.34-.83-.53c-.19-.13-.44-.36-.12-.09-.15-.13-.3-.25-.45-.39-.27-.24-.52-.5-.76-.77-.11-.12-.21-.26-.33-.38.38.42-.04-.06-.09-.14-.21-.3-.41-.62-.59-.94-.08-.15-.16-.3-.23-.45-.04-.08-.31-.7-.08-.14-.14-.34-.26-.69-.37-1.05s-.2-.71-.27-1.08c-.03-.14-.15-.75-.04-.13-.03-.16-.04-.34-.05-.5-.06-.77-.03-1.54.07-2.31.17-1.3-1.27-2.56-2.5-2.5-1.5.07-2.32,1.1-2.5,2.5h0Z"/>
  <g>
    <path class="cls-9" d="m365.93,464.85c5.08,4.26,10.94,7.59,17.2,9.77"/>
    <path class="cls-9" d="m364.17,466.62c5.45,4.55,11.6,8.06,18.31,10.41,1.27.45,2.74-.51,3.08-1.75.38-1.38-.47-2.63-1.75-3.08-5.73-2.01-11.43-5.23-16.1-9.12-1.04-.86-2.52-1.02-3.54,0-.89.89-1.04,2.67,0,3.54h0Z"/>
  </g>
  <g>
    <path class="cls-9" d="m364.8,465.39c-2.93,1.74-3.77,5.57-3.97,8.97-.3,5.16.49,10.93,4.42,14.29,1.7,1.45,3.82,2.29,5.96,2.95,2.13.65,4.47,1.13,6.53.3,1.93-.78,3.26-2.58,4.21-4.44,1.84-3.63,2.56-7.82,2.05-11.86"/>
    <path class="cls-9" d="m363.53,463.24c-3.72,2.35-4.88,6.62-5.18,10.77s.13,8.29,1.85,12.02c1.92,4.16,5.71,6.5,9.94,7.85,2.37.76,4.96,1.29,7.42.69,2.27-.56,4.05-2.09,5.39-3.95,3.03-4.2,4.13-9.95,3.54-15.02-.16-1.34-1.04-2.5-2.5-2.5-1.23,0-2.66,1.15-2.5,2.5.41,3.54-.02,7.18-1.61,10.4-.59,1.2-1.31,2.47-2.44,3.23-1.41.95-3.18.61-4.71.2-3.07-.82-6.08-2.09-7.72-4.97-1.47-2.59-1.78-5.69-1.74-8.61.04-2.74.2-6.67,2.79-8.3s.21-6.04-2.52-4.32h0Z"/>
  </g>
  <path class="cls-9" d="m339.98,477.55c-9.99-.2-19.97-.48-29.96-.86-3.22-.12-3.21,4.88,0,5,9.98.38,19.97.67,29.96.86,3.22.06,3.22-4.94,0-5h0Z"/>
  <path class="cls-9" d="m334.49,486c-7.14.79-14.14,2.4-20.86,4.95-1.26.48-2.13,1.69-1.75,3.08.33,1.21,1.81,2.23,3.08,1.75,6.28-2.38,12.85-4.04,19.53-4.77,1.34-.15,2.5-1.04,2.5-2.5,0-1.24-1.15-2.65-2.5-2.5h0Z"/>
  <path class="cls-9" d="m339.59,492.36c-5.37,3.17-10.87,6.12-16.48,8.83-1.22.59-1.54,2.32-.9,3.42.73,1.24,2.2,1.49,3.42.9,5.61-2.71,11.11-5.66,16.48-8.83,1.16-.69,1.58-2.25.9-3.42s-2.25-1.59-3.42-.9h0Z"/>
  <ellipse class="cls-6" cx="119.46" cy="474.68" rx="10.28" ry="4.51"/>
  <ellipse class="cls-6" cx="232.44" cy="474.68" rx="10.28" ry="4.51"/>
  <path class="cls-8" d="m366.5,484c-.1.17-.23.31-.39.42l-.27.11c.12-.04.24-.07.36-.1l-.29.03c.31-.14.92-.04,1.25-.02.22,0,.44.02.66.04.18.02.66.09.21.01.47.07.94.17,1.4.29.43.11.85.25,1.26.4.1.04.21.08.31.12-.22-.1-.25-.11-.09-.04.2.1.4.19.6.29.39.2.78.42,1.15.66.19.12.37.24.55.37.09.06.18.13.27.2-.3-.18-.5-.45-.6-.81v-1.33c.18-.58.52-.94,1.02-1.08-.09.04-.19.07-.28.1-.19.06-.39.09-.58.15-.19.03-.13.03.17-.02-.13.01-.27.02-.4.02-.16,0-.46.05-.6-.02l.27.04c-.13-.02-.26-.05-.39-.08-.2-.05-.38-.12-.57-.17.54.15.01,0-.13-.07-.18-.1-.34-.2-.51-.32.24.19.25.2.04.01-.16-.18-.18-.19-.06-.05.32.32.4.75.23,1.3-.16.58-.47.95-.95,1.11-.21.08-.21.09,0,.03-.39.05-.45.06-.17.06.48-.04-.56-.16.03.02.2.06.4.11.6.18.09.03.68.31.18.06.41.21.8.41,1.18.67.09.06.17.12.26.18-.2-.16-.23-.18-.1-.07.18.17.37.32.54.5l.15.15c.18.21.18.2,0-.02l.1.18c-.09-.16-.14-.33-.14-.51,0-.54.19-.94.57-1.19.11-.1.24-.16.38-.19-.14.15-.57.1-.09.06-.22.02-.45,0-.67.01-.3-.03-.3-.02,0,.02-.11-.02-.22-.04-.33-.07-.22-.05-.44-.11-.65-.18-.11-.03-.22-.07-.32-.11.24.11.23.1-.03-.02-.41-.2-.81-.42-1.2-.66-.17-.11-.34-.22-.5-.34.45.33-.02-.06-.11-.14-.4-.32.13.3-.1-.11-.13-.25-.13-.23.02.07-.04-.13-.06-.25-.08-.38l-1.15,2.82c.26-.17.08-.04-.09,0-.16.04-.44.02-.11.02.52,0-.24-.12,0,0,.05.02.48.13.18.04s.1.05.16.08c.12.06.23.13.35.2.15.09.3.19.45.29.19.13.19.14,0,0,.47.38.91.8,1.3,1.25.03.04.32.38.14.16s.09.13.12.17c.15.21.31.66.51.81l-.08-.23,1.22-2.14h.68c-.08-.02-.16-.05-.24-.07-.14-.06-.29-.11-.43-.16.22.09.23.1.01,0-.54-.28-1.06-.57-1.56-.92-.09-.06-.45-.38-.09-.06-.11-.09-.22-.18-.32-.28-.21-.19-.42-.38-.62-.59-.22-.23-.43-.47-.63-.72-.23-.27.18.31,0,0-.41-.75.17.48,0,.88l-.64,1.1c-.76.34-.97.47-.63.38.12-.02.1-.03-.05,0-.34.09.2,0,.29-.01.17,0,.35.02.52.02.34,0-.54-.14.05.02.13.04.27.07.4.11.59.15-.22-.15.08.01.34.19.65.37.96.6l-.9-3.42c-.17.36.16-.07.24-.18.15-.1.17-.12.05-.05-.12.06-.1.06.06-.03.19-.08.18-.09-.03-.03l.32-.05c-.31.04-.03.01.15.04-.54-.07.13.13-.11-.01-.16-.09-.32-.17-.47-.27-.28-.18-.54-.37-.81-.56-1.34-.94-2.78-1.65-4.3-2.25-1.72-.69-3.7,1.38-3.08,3.08,1.54,4.16,5.01,7.49,9.36,8.56,2.45.6,5.36.55,7.17-1.47.86-.96,1.47-2.19,1.66-3.47.29-1.89-.4-3.33-1.93-4.42-2.17-1.54-4.86-2.55-7.47-3.04-1.28-.24-2.76.35-3.08,1.75-.28,1.23.37,2.82,1.75,3.08,1.15.22,2.24.55,3.33.94.27.11.29.11.04.01.14.06.28.12.42.19.28.13.56.27.83.41.48.25.92.56,1.4.82.23.16.22.14-.02-.04.2.2.19.18,0-.07,0,0-.31-.78-.12-.75.02,0-.19.72-.21.78-.1.27-.09.25.02-.04-.06.12-.12.24-.19.35-.24.48.25-.23-.1.12-.21.19-.19.18.05-.01-.11.08-.23.14-.36.2.52-.27-.22.02-.38.05.61-.11-.12-.02-.27-.03-.24,0-.49,0-.73-.05.67.13-.18-.05-.3-.08-.44-.1-.87-.23-1.3-.38-.12-.04-.24-.09-.36-.14.3.13.32.13.07.02-.23-.12-.46-.23-.69-.35-.39-.22-.77-.48-1.14-.73.52.36-.15-.13-.25-.21-.15-.13-.29-.26-.43-.39-.19-.18-.36-.37-.54-.56-.08-.09-.6-.76-.22-.24-.27-.36-.52-.74-.74-1.13-.13-.22-.24-.46-.36-.69-.12-.26-.11-.23.02.07-.05-.12-.09-.24-.14-.36l-3.08,3.08c.53.21-.18-.1.29.13.22.1.44.21.65.32.43.22.85.46,1.26.71.74.46,1.41,1.04,2.18,1.43,2.06,1.02,5.04.87,6.17-1.47.64-1.34.25-2.54-.9-3.42-1.82-1.4-4.91-2.04-7-.89-1.8.99-1.8,3.3-.7,4.79.68.92,1.42,1.77,2.31,2.49,1.83,1.47,4.98,3.6,7.31,2.04,1.69-1.14,1.82-3.1.85-4.77-.55-.94-1.25-1.83-2.03-2.59-1.93-1.87-5.11-3.76-7.72-2.04-1.03.68-1.32,1.66-1.15,2.82.32,2.1,2.3,3.57,4.07,4.45s4.11,1.55,6.16.89c1.22-.39,2.29-1.3,2.61-2.59.36-1.44-.23-2.8-1.17-3.88-1.23-1.41-2.97-2.44-4.75-2.98-2.17-.67-4.88-.19-5.49,2.35s1.99,4.48,4.14,5.16c1.83.58,4.2.47,5.86-.55,1.4-.86,2.06-2.74,1.09-4.19-.62-.92-1.67-1.58-2.61-2.13-1.93-1.12-4.04-1.78-6.24-2.05-2.34-.29-4.82-.18-6.3,1.93-.75,1.07-.23,2.83.9,3.42,1.28.68,2.62.25,3.42-.9h0Z"/>
  <path class="cls-9" d="m145.47,652.67l.07,13.47c0,1.92.22,3.96-.05,5.87-.21,1.47-.98,2.28-2.35,2.78-1.74.63-3.64.85-5.45,1.18-2.27.42-4.54.83-6.81,1.25-4.38.8-8.76,1.6-13.14,2.41-5.03.92-10.06,1.84-15.09,2.76-1.33.24-2.08,1.86-1.75,3.08.38,1.4,1.74,1.99,3.08,1.75,9.49-1.74,18.98-3.47,28.47-5.21,2.35-.43,4.7-.86,7.06-1.29,1.95-.36,3.93-.64,5.77-1.41s3.46-1.99,4.34-3.82c.99-2.08.95-4.39.94-6.64l-.08-16.16c-.02-3.22-5.02-3.22-5,0h0Z"/>
  <path class="cls-9" d="m207.74,651.14c.06,9.63.59,19.25,1.61,28.83.23,2.17.16,4.83,1.78,6.51,1.48,1.54,3.67,1.78,5.65,2.18,4.77.96,9.54,1.92,14.32,2.88,5.42,1.09,10.84,2.18,16.26,3.27,1.32.27,2.7-.38,3.08-1.75.34-1.23-.42-2.81-1.75-3.08-8.9-1.79-17.79-3.58-26.69-5.37-2.11-.42-4.24-.79-6.33-1.28-.47-.11-.73-.12-.94-.45-.17-.26-.15-.93-.18-1.21-.07-.65-.14-1.3-.21-1.95-.47-4.46-.84-8.94-1.1-13.42-.29-5.05-.45-10.11-.48-15.17-.02-3.22-5.02-3.22-5,0h0Z"/>
  <path class="cls-9" d="m382.25,658.07l1.19,13.12c.12,1.3.84,3.54-.3,4.51-1.32,1.12-3.37,1.67-4.93,2.34-7.9,3.36-15.89,6.51-23.95,9.48-4.62,1.7-9.27,3.34-13.93,4.92-3.03,1.03-1.73,5.86,1.33,4.82,8.8-2.97,17.52-6.17,26.15-9.59,4.41-1.75,8.79-3.55,13.15-5.41,1.89-.8,3.88-1.49,5.48-2.82s2.34-3.35,2.25-5.46c-.22-5.3-.95-10.63-1.43-15.91-.12-1.34-1.06-2.5-2.5-2.5-1.26,0-2.62,1.15-2.5,2.5h0Z"/>
  <path class="cls-9" d="m441.61,654.22c-.04,5.19-.07,10.38-.11,15.57-.02,2.25-.06,4.62,1.77,6.23.92.81,2.11,1.16,3.24,1.55,1.33.46,2.66.91,3.99,1.37,9.79,3.36,19.57,6.73,29.36,10.09,5.56,1.91,11.12,3.82,16.67,5.73,1.28.44,2.73-.5,3.08-1.75.38-1.37-.46-2.63-1.75-3.08-9.24-3.18-18.48-6.35-27.71-9.53-4.54-1.56-9.08-3.12-13.62-4.68-2.35-.81-4.7-1.61-7.05-2.42-.95-.33-1.92-.64-2.85-1.01-.14-.05-.22-.26,0,.15-.02-.03-.1-.32-.1-.35,0-.44-.04-.89-.04-1.33.03-5.52.08-11.04.11-16.56.02-3.22-4.98-3.22-5,0h0Z"/>
</svg>