<?xml version="1.0" encoding="UTF-8"?>
<svg id="Layer_1" data-name="Layer 1" xmlns="http://www.w3.org/2000/svg" viewBox="0 0 841.89 595.28">
  <defs>
    <style>
      .cls-1 {
        fill: none;
      }

      .cls-1, .cls-2, .cls-3, .cls-4, .cls-5, .cls-6, .cls-7, .cls-8, .cls-9, .cls-10, .cls-11, .cls-12, .cls-13, .cls-14, .cls-15, .cls-16, .cls-17, .cls-18 {
        stroke: #231f20;
        stroke-miterlimit: 10;
      }
      

      .cls-1, .cls-3, .cls-4, .cls-5, .cls-6, .cls-7, .cls-8, .cls-9, .cls-10, .cls-11, .cls-12, .cls-13, .cls-14, .cls-15, .cls-16, .cls-17, .cls-18 {
        stroke-width: 3px;
      }

      .cls-19, .cls-14 {
        fill: #fed411;
      }

      .cls-20, .cls-2 {
        fill: #231f20;
      }

      .cls-3 {
        stroke-linecap: round;
      }

      .cls-3, .cls-4 {
        fill: #99633b;
      }

      .cls-5 {
        fill: #342a13;
      }

      .cls-6 {
        fill: #bcbec0;
      }

      .cls-7 {
        fill: #a97029;
      }

      .cls-8 {
        fill: #a7a9ac;
      }

      .cls-9 {
        fill: #be1e2d;
      }

      .cls-10 {
        fill: #1c75bc;
      }

      .cls-11 {
        fill: #2b3990;
      }

      .cls-12 {
        fill: #9a7e41;
      }

      .cls-13 {
        fill: #fdecaa;
      }

      .cls-15 {
        fill: #fff200;
      }

      .cls-16 {
        fill: #fff;
      }

      .cls-17 {
        fill: #73431b;
      }

      .cls-18 {
        fill: #6a0006;
      }

    </style>
  </defs>
  <path class="cls-20" d="m573.49,477.53c9.65,8.34,14.68,20.48,17.69,32.6,3.58,14.4,4.84,29.46,5.49,44.25.41,9.42.41,18.85,0,28.26-.14,3.22,4.86,3.21,5,0,.72-16.95.14-33.94-1.78-50.79-1.57-13.81-3.96-27.78-9.99-40.43-3.12-6.56-7.37-12.66-12.89-17.43-1.02-.88-2.53-1-3.54,0-.9.9-1.03,2.65,0,3.54h0Z"/>
  <path class="cls-20" d="m273.56,475.78c-4.07,5-7,10.72-9.43,16.67-2.79,6.81-4.84,13.92-6.5,21.08-3.56,15.36-5.44,31.17-6.1,46.92-.31,7.39-.34,14.81.17,22.19.09,1.35,1.08,2.5,2.5,2.5,1.28,0,2.59-1.15,2.5-2.5-.96-13.86-.22-27.9,1.34-41.68,1.68-14.86,4.43-29.86,9.64-43.92,1.27-3.42,2.61-6.55,4.34-9.83.79-1.49,1.63-2.96,2.55-4.38.41-.64.84-1.27,1.28-1.89.59-.83.65-.91,1.24-1.63.85-1.05,1.02-2.51,0-3.54-.88-.88-2.68-1.05-3.54,0h0Z"/>
  <path class="cls-4" d="m354.65,308c17.87,4.31,12.3,38.49,7.19,55.25-5.11,16.76,2.68,8.48-15.18,4.17-17.87-4.31-39.79-6.44-42.94-23.41-3.15-16.95,33.07-40.32,50.93-36.01Z"/>
  <path class="cls-12" d="m347.21,325.38c9.69,1.45,9.21,17.33,7.72,25.2-1.49,7.86,2.01,3.82-7.67,2.37-9.69-1.45-21.35-1.77-24.22-9.48-2.87-7.7,14.48-19.53,24.17-18.08Z"/>
  <path class="cls-4" d="m543.87,337.67c-.74,16.45-39.45,19.25-58.97,18.56-19.52-.69-8.7,4.22-7.96-12.23.74-16.45-1.82-35.92,16.08-42.44,17.88-6.52,51.59,19.66,50.85,36.11Z"/>
  <path class="cls-12" d="m524.14,335.11c.91,8.7-16.48,12.36-25.41,13.1-8.93.74-3.64,2.71-4.55-5.99-.91-8.7-3.55-18.8,4.1-23.24,7.64-4.44,24.95,7.43,25.86,16.13Z"/>
  <path class="cls-3" d="m567.63,598.53c-26.37,98.08-61.84,77.21-128.32,78.26-80.99,1.27-110.35,14.11-141.27-61.09-44.7-108.72-37.78-301.49,138.66-301.6,151.56-.09,154.45,196.94,130.93,284.44Z"/>
  <ellipse class="cls-5" cx="427.84" cy="409.06" rx="34.73" ry="25.96"/>
  <ellipse class="cls-2" cx="468.06" cy="377.83" rx="8.97" ry="7.98"/>
  <ellipse class="cls-2" cx="387.74" cy="377.83" rx="8.97" ry="7.98"/>
  <ellipse class="cls-2" cx="427.9" cy="388.39" rx="11.41" ry="7.98"/>
  <line class="cls-1" x1="436.89" y1="444.57" x2="462.57" y2="437.6"/>
  <path class="cls-7" d="m782.41,372.75c-16.29,33.98-26.11,59.01-75.34,43.17-57.73-18.57-47.64-42.38-42.73-82.05,7.7-62.3,44.18-57.76,82.4-45.36,38.22,12.39,63.33,26.58,35.68,84.24Z"/>
  <path class="cls-7" d="m792.38,320.31c-4.2,12.96-26.94,11.58-58.67,1.29-31.73-10.29-54.39-23.82-50.19-36.77s32.83-6.16,63.21,3.69c21.31,6.91,49.86,18.84,45.65,31.8Z"/>
  <path class="cls-17" d="m792.52,247.05c19.82,6.18,3.52,21.59-10.63,39.89-18.14,23.46-20.23,32.42-33.23,18.45-2.17-2.34,5.17-16.56,17.28-32.66,12.11-16.11,18.25-28.27,26.58-25.67Z"/>
  <path class="cls-14" d="m783.13,317.48c-1.07,3.3-22.68,2.01-47.28-5.97-24.59-7.98-42.85-19.62-41.78-22.91s21.87.5,46.46,8.47c24.59,7.98,43.66,17.11,42.59,20.41Z"/>
  <path class="cls-1" d="m769.88,397c-21.77,11.78-107.7-22.39-108.08-36.92"/>
  <path class="cls-17" d="m733.61,306.09c4.42-13.64,35.52-9.48,38.75,10.27"/>
  <line class="cls-1" x1="786.94" y1="360.19" x2="769.88" y2="397"/>
  <path class="cls-13" d="m775.19,388.52c-6.9,16.5-23.67,13.69-56.69,3.96-58.17-17.14-59.35-25.04-56.67-39.08,11.14-58.27-13.41-23.79,85.82-3.78,51.21,10.32,47.23-8.19,27.53,38.9Z"/>
  <path class="cls-20" d="m673.89,338.79c-1.84,8.12-3.04,16.39-3.61,24.69-.19,2.77,4.47,3.46,4.91.66.34-2.16.62-4.52,1.81-6.4.64-1.01,1.97-2.43,3.32-2.15.16.03.33.19.11-.07.21.26.15.91.15,1.19.01,1.26-.07,2.53-.17,3.79-.19,2.54-.55,5.06-1.06,7.56-.27,1.32.38,2.7,1.75,3.08,1.23.34,2.81-.42,3.08-1.75.72-3.57,1.19-7.2,1.35-10.84.14-3.17-.2-6.86-3.88-7.78-2.96-.75-6.05.77-7.93,3.03-2.14,2.58-2.84,5.78-3.35,9.01l4.91.66c.54-7.87,1.69-15.67,3.43-23.36.71-3.13-4.11-4.47-4.82-1.33h0Z"/>
  <path class="cls-20" d="m696.49,348.14c-3.06-.31-5.81,2.43-7.04,4.98s-1.57,5.74-.06,8.34,4.46,4.17,7.46,3.68c2.76-.44,4.85-2.86,5.57-5.46.9-3.24-.33-6.64-2.13-9.33-.73-1.08-2.24-1.66-3.42-.9-1.08.7-1.68,2.26-.9,3.42.27.4.53.81.76,1.24.13.24.26.49.38.74.04.09.09.19.13.28.13.27-.12-.38.02.07s.3.91.4,1.38c.03.13.06.27.07.4,0-.03-.03-.44-.03-.16,0,.31.03.61.02.92,0,.08-.02.17-.02.25-.02.34.11-.49.02-.16-.05.19-.08.39-.14.58-.03.12-.25.67-.11.35s-.01,0-.05.09c-.06.13-.13.25-.21.37-.04.07-.09.14-.14.21-.07.11-.31.29-.06.09.28-.23-.19.18-.25.25-.06.06-.13.11-.18.17-.23.24.4-.25.11-.08-.19.11-.38.22-.57.33-.28.16.46-.14.14-.06-.08.02-.16.05-.24.07.02,0-.33.08-.33.07-.01-.04.66-.03.16-.04-.11,0-.74-.05-.33.01.37.06.08.01,0,0-.14-.03-.27-.06-.4-.11-.58-.18.27.18-.1-.03-.17-.1-.35-.19-.51-.3-.51-.33.21.22-.1-.08-.19-.18-.36-.37-.54-.55s.13.15.13.17c0-.04-.16-.23-.19-.29-.11-.17-.19-.35-.29-.53-.16-.29.14.45.06.12-.02-.08-.06-.16-.08-.24-.03-.12-.06-.23-.09-.35-.1-.35.05-.02,0,.11.06-.13-.04-.59-.04-.74,0-.12.09-.76,0-.41s.06-.28.09-.4c.06-.24.13-.48.21-.72.03-.1.07-.26.13-.35-.16.27-.11.26.02,0,.11-.23.24-.45.37-.66.05-.08.1-.16.15-.24,0-.01.35-.51.14-.21-.19.27.05-.05.1-.12.1-.12.21-.24.31-.35.15-.16.37-.47.57-.54-.05.02-.45.3-.04.03.11-.07.22-.14.33-.21.09-.05.24-.15.34-.18-.31.08-.24.15.03.03s-.18.07-.2.01c0-.02.55.01.57.02,1.31.13,2.56-1.24,2.5-2.5-.07-1.47-1.1-2.36-2.5-2.5h0Z"/>
  <path class="cls-20" d="m701.64,365.06c-1.08,3.12-1.45,6.52-1.05,9.8.15,1.25.83,2.28,2.17,2.46,1.2.16,2.43-.58,2.74-1.79.29-1.13.61-2.24,1-3.34.18-.52-.09.14.13-.32.15-.3.29-.59.46-.88.11-.18.22-.36.34-.54.08-.12.16-.23.25-.34-.17.23-.17.23.01.01.15-.15.29-.31.44-.46.1-.1.21-.19.31-.28.19-.16.22-.18.08-.06-.25.17.38-.23.44-.26.18-.1.56-.24.16-.1.12-.04.66-.29.77-.22l-.32.04c.12-.01.23-.02.35-.02.12,0,.24,0,.35.01-.34-.06-.42-.07-.23-.03.18.07.41.1.6.15.5.13-.35-.24.04.03.1.05.2.11.29.18-.28-.23-.31-.25-.11-.08.06.06.12.12.17.18.12.14.08.08-.14-.18.06.09.11.19.16.29-.13-.32-.16-.39-.1-.21.04.16.04.11,0-.17.01.17.02.33,0,.5,0-.46-.04.22-.06.33-.12.61-.26,1.22-.39,1.84-.53,2.47-1.05,4.95-1.58,7.42-.27,1.28.38,2.76,1.75,3.08,1.26.29,2.78-.38,3.08-1.75.49-2.3.98-4.6,1.47-6.89s1.4-4.98-.11-7.09c-1.24-1.74-3.4-2.76-5.55-2.58-2.37.2-4.44,1.53-5.88,3.39-1.6,2.07-2.35,4.53-2.99,7.03l4.91.66c-.18-1.49-.22-3-.07-4.5,0-.04.06-.52.03-.31s.04-.26.05-.3c.06-.38.14-.76.22-1.14.17-.75.39-1.5.64-2.23.43-1.24-.49-2.79-1.75-3.08-1.39-.32-2.62.42-3.08,1.75h0Z"/>
  <path class="cls-20" d="m720.08,364.68c1.58,1.45,3.33,3,5.49,3.47s4.37.07,5.95-1.45,2-4.1,1.19-6.15-2.64-3.57-4.82-4.23c-2.36-.7-5-.56-6.84,1.22-1.39,1.35-2.38,3.23-2.92,5.07-1.07,3.64-.37,8.04,2.55,10.65s7.77,3.6,11.19,1.19c1.07-.75,1.67-2.22.9-3.42-.68-1.06-2.28-1.7-3.42-.9-.24.17-.49.31-.75.46-.3.17.05.07.12-.04-.03.04-.26.09-.33.11-.12.04-.73.26-.84.2,0,0,.65-.04.15-.03-.18,0-.35.02-.52.01-.12,0-.23,0-.35-.01-.08,0-.58-.13-.19-.01.41.12-.14-.04-.19-.05-.12-.03-.23-.05-.35-.08-.26-.07-.51-.18-.76-.25-.34-.09.52.28.02,0-.16-.09-.32-.16-.47-.25-.17-.1-.49-.23-.6-.39.24.38.19.17.02,0-.11-.1-.22-.2-.33-.3-.15-.15-.39-.33-.48-.53.22.49.11.16.02,0s-.2-.33-.29-.49c-.08-.15-.15-.3-.23-.46.04.09.17.47.03.03-.09-.29-.18-.58-.25-.87-.04-.16-.07-.33-.1-.5.02.09.04.53.01.06-.02-.34-.04-.68-.03-1.02,0-.17.02-.34.03-.51.01-.15.1-.6,0-.05.05-.27.1-.54.17-.81.08-.34.2-.66.3-.99.03-.1.18-.45-.02.02.08-.19.17-.38.27-.56.16-.31.33-.61.52-.89.1-.15.55-.71.22-.33.13-.15.25-.29.38-.43l.08-.08c.22-.19.23-.21.03-.05-.02.03.44-.4.02-.05.26-.06.3-.07.12-.05-.18.02-.14.01.13,0,.33,0,.66.02.99.04.4.02-.57-.15.07.02.14.04.28.06.41.1s.27.09.4.12c.61.16-.24-.16.08.02.15.08.31.15.46.24.12.07.56.45.17.09.16.15.59.68.29.24.09.13.16.29.25.41.2.27-.12-.53.02.03.03.12.07.25.1.37.14.52,0-.09,0-.09.06.07,0,.38,0,.48-.01.19,0,.13.03-.2-.02.09-.04.18-.07.27-.05.35.26-.51-.01,0-.24.45.26-.35-.08.08-.13.17-.3.1.07-.05-.08.05-.16.1-.24.14-.16.08-.11.06.18-.06,0,0-.31.1-.36.11-.12.03-.24.06-.37.08l.29-.05c-.06.06-.39.01-.48,0-.1,0-.19,0-.29-.02.32.05.38.06.19.02-.15-.04-.31-.07-.46-.11-.11-.03-.65-.28-.23-.08-.35-.17-.69-.37-1.01-.59-.13-.09-.26-.18-.38-.27.37.28-.16-.14-.23-.2-.36-.31-.71-.63-1.06-.95-.96-.89-2.6-1.02-3.54,0-.89.96-1.03,2.59,0,3.54h0Z"/>
  <path class="cls-20" d="m741.11,364.16c-.86,2.21-1.53,4.72-.67,7.04s2.96,3.7,5.39,3.91c4.96.43,7.87-3.88,9.7-7.83l-4.66-1.26c-.31,4.81-1.75,9.58-3.31,14.11-1.2,3.49-3.39,7.92-7.51,8.51-1.23.18-2.85-.17-3.57-1.28-.85-1.31-.43-3.59.14-4.94,1.44-3.41,6.62-1.65,9.31-1.24,5.18.79,10.38.81,15.56.01,3.88-.59,7.72-1.9,10.81-4.36s4.95-6.2,4.58-10.13-2.66-7.58-6.49-8.95-8.78.2-10.97,3.74c-2.36,3.81-.75,9.61,3.81,10.79,3.12.81,4.45-4.01,1.33-4.82-.89-.23-1.38-1.26-1.24-2.41.12-.96.91-1.81,1.92-2.31,1.06-.53,2.37-.65,3.54-.27s2.14,1.43,2.65,2.63c1.21,2.85.12,5.78-2.14,7.75-2.57,2.25-6.31,3.14-9.62,3.58-4.64.61-9.38.47-13.98-.35-3.98-.71-8.49-1.41-11.76,1.58-3.02,2.77-3.88,8.69-1.78,12.19s7.1,4.61,10.85,3.11c4.85-1.93,7.53-6.37,9.21-11.09,1.82-5.09,3.29-10.45,3.64-15.86.15-2.4-3.62-3.51-4.66-1.26-.9,1.93-2.13,5.05-4.44,5.36-.65.09-1.38.04-1.65-.6-.5-1.19.38-2.95.8-4.03.49-1.26-.54-2.74-1.75-3.08-1.41-.39-2.58.48-3.08,1.75h0Z"/>
  <path class="cls-19" d="m699.84,295.07c1.98,3.54.14,7.93-.87,11.49-1.19,4.21-2.1,9.5.79,13.25,1.54,2,4.07,2.56,6.33,1.45,2.01-.98,3-2.94,3.8-4.92s1.47-4.01,2.36-5.94c.4-.86.86-1.8,1.61-2.42.24-.19.53-.39.82-.49.13-.05.27-.09.41-.11.61.06.5-.05-.32-.33l-.64-1.1.07-.39c-.05.24-.09.49-.14.73-.08.4-.16.81-.24,1.21-.13.65-.25,1.29-.38,1.94-.3,1.54-.6,3.07-.9,4.61-.58,2.99-1.17,5.99-1.75,8.98-1.01,5.17-1.91,11.51,2.69,15.33.94.78,2.09,1.51,3.34,1.61,1.79.14,2.93-.91,3.74-2.4,1.31-2.42,2.33-5.01,3.25-7.6s1.72-5.12,2.62-7.66c.81-2.29,1.62-4.91,2.99-6.94-.04.06.41-.5.42-.53.2-.18.17-.18-.09,0-.92-.39-1.21-.42-.86-.1.08.4,1,1.03,1.31,1.27,1.18.9,2.65,1.4,4.14,1.39,3.04-.03,5.69-2.27,6.38-5.2.24-1.02-.14-2.32-1.15-2.82-2.22-1.1-4.53-1.71-7.01-1.81-2.33-.09-3.08,2.72-1.77,4.27.72.85,1.44,1.7,2.16,2.55l2.43-4.18c-2.03-.35-3.93-1.1-5.52-2.44l-1.77,4.27c.15-.07.3-.04.45.09l1.33-4.82c-1.02-.26-1.9-.62-2.8-1.16l-.6,4.57c.5-.17.8-.21,1.31-.06l.66-4.91c-1.45-.09-2.85-.46-4.14-1.12-1.5-.76-3.13-.1-3.67,1.49-1.77,5.17-3.54,10.34-5.31,15.5h4.82c-.46-2.89-.13-5.81.78-8.58l-4.91-.66c.25,3.61-.29,7.06-1.62,10.42h4.82c-.97-4.3-.68-8.68.72-12.85l-4.18,1.1c.61.58.43,1.61.37,2.39-.12,1.45-.34,2.9-.52,4.35-.38,3.16-.77,6.33-1.15,9.49-.15,1.22,1.06,2.32,2.17,2.46,1.29.15,2.31-.59,2.74-1.79,2.1-5.75,4.19-11.5,6.29-17.25l-4.91-.66c-.28,3.12-.92,6.18-1.82,9.18-.39,1.29.47,2.72,1.75,3.08,1.41.39,2.59-.48,3.08-1.75,1.07-2.77,2.13-5.54,3.2-8.31l-4.82-1.33c-1.53,6.54-3.42,12.98-5.66,19.31l4.18-1.1-.78-.95c-1.15-1.41-3.86-.66-4.18,1.1-.21,1.15-.6,2.07-1.27,3.02l4.57.6c-.31-1.15-.33-2.23-.18-3.4h-5c.13,1.2,0,2.18-.43,3.3h4.82c-.85-2.03-1.28-4.11-1.15-6.31s.94-4.24,1.71-6.24c1.72-4.49,3.47-8.97,5.21-13.46,1.43-3.7,4.51-9.71-.4-12.28-2.11-1.11-4.62-.3-5.79,1.75-.48.83-.7,1.81-.76,2.76s.22,2.03,0,2.99l3.67-1.49c-.74-.43-1.36-1.02-1.67-1.83l-4.57,1.93c.27.51.46,1,.59,1.57.05.21.08.38.11.59.02.14.02.28.02.42,0,.32.02.28.07-.12l.9-.9-.29.16,1.26-.34c.2,0,.27.18.16-.03-.1-.2-.42-.4-.57-.57-.37-.39-.66-.8-.95-1.26-.57-.93-.92-1.88-1.16-2.94-.31-1.36-1.81-2.03-3.08-1.75-1.82.41-3.55,1.17-5.07,2.25l3.67,2.82c.25-1.83.7-3.6,1.37-5.32l-4.91-.66c-.11,1.7-.58,3.32-1.38,4.82l3.93-.51s-.01-.14-.01-.18c-.1-1.35-1.08-2.5-2.5-2.5-1.29,0-2.58,1.15-2.5,2.5.2,3.25-.85,6.28-1.89,9.32-1.11,3.22-2.15,6.44-2.25,9.87-.09,2.89,4.09,3.3,4.91.66.94-2.99,1.87-5.98,2.81-8.97.42-1.34.81-2.69,1.27-4.02.28-.8.64-1.78,1.36-2.29l-3.76-2.16c.09,1.4.02,2.73-.3,4.09l4.91.66c.04-.75-.66-.54-2.09.65l-.9-.9.12.18-.34-1.26.03.22,4.27-1.77c-.66-.72-.79-2-.97-3.08-.23-1.43-.46-2.83-1.13-4.13s-1.8-2.31-3.11-2.96c-1.01-.5-2.41-.87-2.79-1.65-.6-1.21-2.31-1.54-3.42-.9-1.23.72-1.5,2.2-.9,3.42.7,1.42,2.01,2.28,3.42,2.91.99.44,2.11.83,2.47,1.66.56,1.26.56,2.76.84,4.09.32,1.57.96,2.98,2.06,4.16,1.37,1.48,4.52.42,4.27-1.77-.23-2.01-1.84-3.52-3.97-3.04s-2.68,2.31-2.85,4.15c-.27,2.81,4.28,3.38,4.91.66.42-1.78.6-3.6.48-5.42-.12-1.72-2.1-3.34-3.76-2.16-2.71,1.92-3.55,4.9-4.49,7.92l-3.24,10.35,4.91.66c.2-6.64,4.54-12.41,4.14-19.19h-5c.11,1.47.58,2.56,1.48,3.71.98,1.26,3.24.79,3.93-.51,1.22-2.31,1.9-4.74,2.06-7.34.08-1.23-1.01-2.32-2.17-2.46-1.31-.16-2.28.6-2.74,1.79-.67,1.72-1.12,3.49-1.37,5.32-.14,1.02,0,1.96.9,2.63.74.56,1.96.78,2.78.2,1.21-.86,2.42-1.42,3.87-1.74l-3.08-1.75c.37,1.64,1.04,3.25,1.99,4.64,1,1.46,2.39,3.2,4.18,3.7,2.27.63,4.13-1.06,4.22-3.29.08-1.91-.52-3.82-1.4-5.49-1.3-2.46-5.59-.76-4.57,1.93.78,2.06,2.04,3.7,3.96,4.82,1.34.79,3.31.09,3.67-1.49.23-1,.26-1.94.2-2.96-.01-.22.08-1.59.06-1.61.07.08-2.09.78-.77.19-.38.17-.03-.7.02.18.03.51-.24,1.16-.4,1.63-1.28,3.74-2.85,7.41-4.28,11.09s-3.06,7.16-4.02,10.87-.76,7.79.74,11.39c.97,2.3,3.88,2.42,4.82,0,.57-1.47.78-3.06.61-4.63-.36-3.23-4.59-3.19-5,0-.21,1.59-.06,3.18.36,4.73.59,2.22,3.38,2.28,4.57.6.89-1.26,1.5-2.71,1.77-4.22l-4.18,1.1.78.95c1.29,1.58,3.61.49,4.18-1.1,2.24-6.33,4.13-12.77,5.66-19.31.75-3.19-3.68-4.29-4.82-1.33l-3.2,8.31,4.82,1.33c1.04-3.43,1.68-6.94,2-10.51.11-1.22-1.04-2.32-2.17-2.46-1.29-.15-2.31.59-2.74,1.79-2.1,5.75-4.19,11.5-6.29,17.25l4.91.66c.44-3.65.89-7.3,1.33-10.95.37-3.03.99-6.47-1.49-8.82-1.41-1.34-3.58-.69-4.18,1.1-1.68,5.01-1.88,10.36-.72,15.51.24,1.06,1.35,1.84,2.41,1.84,1.18,0,2-.8,2.41-1.84,1.46-3.72,2.07-7.76,1.79-11.75-.19-2.79-4.01-3.42-4.91-.66-1.19,3.66-1.38,7.45-.78,11.24.17,1.07,1.4,1.84,2.41,1.84,1.14,0,2.05-.79,2.41-1.84,1.77-5.17,3.54-10.34,5.31-15.5l-3.67,1.49c2.13,1.07,4.29,1.65,6.67,1.8,2.87.17,3.32-4.14.66-4.91-1.31-.38-2.68-.38-3.97.06-2.01.68-2.5,3.42-.6,4.57,1.24.75,2.59,1.31,3.99,1.67,3.15.79,4.35-3.78,1.33-4.82-.57-.2-1.17-.28-1.78-.27-2.02.01-3.49,2.82-1.77,4.27,2.24,1.88,4.83,3.22,7.73,3.72,2.49.43,4.1-2.21,2.43-4.18-.72-.85-1.44-1.7-2.16-2.55l-1.77,4.27c1.57.06,3.08.42,4.48,1.12l-1.15-2.82c-.22.92-.89,1.68-1.91,1.52-1.13-.17-1.71-1.53-2.69-2.05-4.04-2.14-6.52,2.84-7.79,5.77-1.42,3.28-2.52,6.67-3.67,10.05-.56,1.65-1.14,3.31-1.78,4.93-.3.74-.61,1.48-.95,2.2-.19.39-.38.79-.57,1.17-.1.19-.2.39-.3.58-.34.5-.26.52.24.06h1.33c-2-.33-2.82-3.02-2.91-4.74-.15-2.91.67-5.83,1.22-8.67.62-3.16,1.23-6.31,1.85-9.47.28-1.46.57-2.91.85-4.37.32-1.62.64-3.25-.72-4.52-2.19-2.06-5.89-.61-7.79,1.1-2.06,1.87-2.95,4.68-3.93,7.19-.26.65-1.63,5.39-2.58,5.24-.5-.08-.85-1.96-.9-2.3-.21-1.28-.06-2.64.19-3.91,1.2-6.04,4.39-12.16,1.05-18.13-1.57-2.81-5.89-.29-4.32,2.52h0Z"/>
  <path class="cls-19" d="m734.66,314.34c2.76.31,5.41-1.42,7.81-2.56l-1.26-2.16c-1.25.96-2.64,1.58-4.16,1.99s-3.06.41-4.52.82-1.45,1.99-.75,3.07,1.96,1.62,3.19,1.75c3.04.32,5.39-1.91,7.38-3.87.54-.53,1-.86,1.77-.78.85.08,1.71.37,2.54.55,1.9.42,3.8.84,5.7,1.26,1.57.35,2.24-2.06.66-2.41s-3.17-.7-4.75-1.05c-1.43-.32-2.99-.86-4.47-.87-2.72-.02-4.12,2.92-6.29,4.11-.93.51-2.11.86-3.12.36-.2-.1-.32-.27-.51-.39l-.08-.13c-.13-.5-.34-.23-.62.81.36.15,1.38-.2,1.81-.26,2.65-.42,5.31-1.14,7.47-2.8,1.26-.97.22-2.87-1.26-2.16-2,.95-4.24,2.47-6.54,2.22-1.6-.18-1.58,2.32,0,2.5h0Z"/>
  <path class="cls-19" d="m776.45,317.29l-.49,1.69c-.07.24-.11.56-.23.78-.03.05-.17.25-.04.17-.65.38-1.52-.83-1.85-1.19-1.45-1.58-3.74-2.66-5.48-.79-1.31,1.41-2.07,3.38-2.92,5.08-.43.86-.89,1.71-1.43,2.51-.25.37-.52.72-.82,1.05-.13.14-.7.85-.89.84l.63.17c.33.14.07.45.13.07.03-.24.03-.5.06-.74.05-.55.12-1.11.19-1.66.15-1.11.31-2.21.43-3.33.22-2.19.17-4.44-.64-6.52l-1.54,1.54c3.17.72,6.31,1.54,9.43,2.45l.66-2.41c-1.22-.21-2.45-.36-3.69-.43-.77-.04-1.47.84-1.21,1.58.22.62.5,1.09.91,1.6l.88-2.13c-1.2-.04-2.32-.37-3.37-.96s-1.98.38-1.84,1.41l.47,3.35,2.09-1.22c-.22-.19-.1,0-.15-.28-.26-1.46-2.37-1-2.46.33-.1,1.65-.27,3.3-.51,4.94h2.41c-.09-.5-.02-.99.21-1.44l-1.96.25c.31.34.31.69.17,1.11l2.46.33c.21-1.9.65-3.76,1.24-5.57l-2.28.3c.16.22.28.4.31.67.05.62.44,1.15,1.08,1.23.55.07,1.28-.27,1.37-.9.19-1.31,1.32-2.1,2.58-2.28,1.72-.25,3.5.55,5.05,1.18,1.35.54,2.12-1.57.96-2.28-.11-.05-.19-.13-.22-.25l-1.08,1.88c.28-.02.05-.16.17.1l1.41-1.84c-.43-.06-.11-.04-.1.1l-1.88,1.08-.03-.18c.43,1.07,2.08,1.3,2.41,0,.18-.7.36-1.4.54-2.1.4-1.56-2.01-2.22-2.41-.66-.18.7-.36,1.4-.54,2.1h2.41c-.23-.58-.53-1.05-1.12-1.31-.79-.35-1.94.04-1.88,1.08.07,1.11.78,2.15,1.94,2.31,1.09.15,1.91-.79,1.41-1.84-.42-.87-1.37-1.42-2.33-1.33s-1.58,1.01-1.08,1.88c.28.49.64.84,1.12,1.14l.96-2.28c-2.13-.86-4.5-1.71-6.82-1.08-1.86.51-3.6,1.95-3.89,3.93l2.46.33c-.06-.71-.23-1.35-.65-1.93-.63-.87-1.93-.77-2.28.3-.67,2.03-1.09,4.11-1.33,6.24-.16,1.46,2.04,1.6,2.46.33s.07-2.56-.82-3.54c-.52-.57-1.61-.45-1.96.25-.55,1.08-.69,2.17-.46,3.36s2.23,1.22,2.41,0c.28-1.86.48-3.72.6-5.6l-2.46.33c.1.54.38,1.02.79,1.38,1,.87,2.26,0,2.09-1.22l-.47-3.35-1.84,1.41c1.43.81,2.99,1.24,4.63,1.3,1.19.04,1.51-1.35.88-2.13-.11-.14-.2-.33-.26-.5l-1.21,1.58c1.02.06,2.02.17,3.02.34,1.56.27,2.24-1.95.66-2.41-3.12-.91-6.27-1.73-9.43-2.45-.84-.19-1.91.59-1.54,1.54,1.09,2.8.59,5.77.2,8.66-.17,1.24-.65,2.91-.08,4.11.72,1.52,2.34,1.16,3.4.25,1.96-1.68,3.04-4.09,4.17-6.35.27-.55.55-1.09.85-1.62.28-.5.59-1.19,1.04-1.55.84-.67,2.03,1.21,2.54,1.68,1.08,1,2.64,1.61,4.04.88s1.62-2.81,2.02-4.19c.45-1.55-1.97-2.21-2.41-.66h0Z"/>
  <path class="cls-11" d="m181.78,296.8c9.03-29.15,14.41-23.81,22.32-21.36s19.37,1.94,10.24,31.41c-8.87,28.63-18.31,22.64-26.22,20.19-7.92-2.45-15.07-2.05-6.34-30.24Z"/>
  <path class="cls-11" d="m177.06,295.31c4.87-15.77,14.03-23.93,21.49-21.62s7.62,14.97,3.21,29.22c-4.41,14.25-11.72,24.66-19.18,22.38-7.44-2.27-10.02-15.34-5.51-29.98Z"/>
  <path class="cls-11" d="m96.58,270.94c-9.03,29.15-14.41,23.81-22.32,21.36s-19.37-1.94-10.24-31.41,18.31-22.64,26.22-20.19,15.07,2.05,6.34,30.24Z"/>
  <path class="cls-11" d="m101.3,272.44c-4.87,15.77-14.03,23.93-21.49,21.62s-7.62-14.97-3.21-29.22,11.72-24.66,19.18-22.38c7.44,2.27,10.02,15.34,5.51,29.98Z"/>
  <rect class="cls-8" x="54.83" y="255.17" width="9.84" height="5.76" transform="translate(79.01 -6.13) rotate(17.21)"/>
  <path class="cls-10" d="m96.58,270.94c-3.45,9.92-7.27,14.84-12.26,13.3s-5.33-9.26-2.67-17.85,7.31-14.8,12.31-13.27c4.98,1.52,5.74,8.85,2.62,17.83Z"/>
  <rect class="cls-8" x="214.39" y="304.58" width="9.84" height="5.76" transform="translate(100.76 -51.11) rotate(17.21)"/>
  <path class="cls-10" d="m196.86,301.4c-3.45,9.92-7.27,14.84-12.26,13.3s-5.33-9.26-2.67-17.85,7.31-14.8,12.31-13.27c4.98,1.52,5.74,8.85,2.62,17.83Z"/>
  <rect class="cls-6" x="86.21" y="279.93" width="106.98" height="5.76" transform="translate(89.91 -28.67) rotate(17.21)"/>
  <path class="cls-16" d="m120.93,463.9c14.57,38.67,1.93,36.95-17.23,41.48-20.19,4.77-31.03,10.28-37.86-14.92-6.2-22.87-24.17-43.27,10.52-42.21,42.04,1.28,37.32-3.57,44.56,15.66Z"/>
  <path class="cls-16" d="m176.42,448.98c-2.86,34.75-2.95,30.14-29.86,44.7-20.45,11.06-15.61,6.17-21.61-19.58-4.11-17.62-13.14-21.12.28-30.52,51.01-35.68,54.05-29.28,51.19,5.39Z"/>
  <path class="cls-9" d="m190.98,459.46c11.63,59.95,14.64,25.26-32.43,47.39-24.05,11.3-17.72,17.6-26.49-16.98-6.01-23.67-12.98-37.29-1.14-44.83,61.23-39.01,50.79-33.39,60.06,14.43Z"/>
  <path class="cls-9" d="m127.51,474.18c17.36,51.64,1.5,45.39-21.93,48.4-43.26,5.54-28.14,30.23-44.02-16.63-16.69-49.25-24.96-53.49,15.3-53.4,49.4.11,42.44-2.79,50.65,21.64Z"/>
  <path class="cls-18" d="m132.1,482.01c7.01,35.29,11.31,33.49,2.43,35.84-9.14,2.41-8.46,5.28-16.83-31.49s-3.84-34.82-3.84-34.82c14.46-5.38,11.98-1.08,18.25,30.47Z"/>
  <path class="cls-20" d="m159.73,464.05c-.06.51.2-.19,0,.06s.16-.25.17-.27c-.05.15-.32.27.01.05-.45.31-.04.02.07-.02.38-.13-.55.22.07-.03.13-.05.29-.08.41-.1-.47.1-.14.01-.01,0,.22,0,.45,0,.67,0-.48-.03.5.13.68.19.46.15.13.06.04,0,.17.08.33.18.5.28.37.22-.43-.36.12.09.11.09.22.21.31.32-.28-.33-.05-.05,0,.03.28.42,0-.23.1.23.08.4-.08,1.19-.53,1.79-.24.33-.51.48-.79.73-1.04.93-.3.14-.28.13.07-.05.06.01-.03-.01-.45-.13-.94-.46-1.09-.75.02.05-.02.24-.02.24-.08-.08.15-.32.12-.42l-.11.26c.11-.19.1-.19-.04,0-.31.33-.62.52-1.07.57-.1.01-.99-.08-.59,0,0,0-.63-.27-.28-.09-.58-.29-.16-.11.1.17-.35-.38-.14-.13.04.13.04.05.25.52.08.12-.19-.44.03.17.05.19.14.12-.08.69,0-.19,0,.08,0,.17,0,.25.01-.73-.05-.17.12-.53.25-.53.54-.83,1.17-1.03-.21.07.32-.14.43,0,.02.02-.64-.2-.33-.08.14.07.11.05-.11-.06-.21-.13-.22-.14-.06-.03.15-.08.45.72.3.34.12.31,0,.35.04.36.11.03-.14.21.07-.16-.27.5.04-.01.15-.22.28-.53-.23.24,0-.04.15-.17.31-.33.47-.49.09-.09.37-.28-.06.03.1-.07.2-.14.31-.21.62-.38-.29.06.34-.15-.04.01-.63.05-.21.04-.54.02-.45-.1-.24-.02-.42-.15-.5-.34-.8-.61.26.23,0-.35.05.1-.01-.12-.12-.42-.03.04-.04-.18.03-.23.09-.37-.28.56-.06.15-.48.61.1-.1.17-.31-.07,0,.22-.29-.07,0,.12-.02.3-.02-.38-.24.22,0,.38.15.57.34.79.64-.05-.07-.21-.33-.04-.17l-.03.14.07-.25-.05.13c.15-.23.17-.28.09-.15-.12.12.39-.1.02-.01.67-.15.03-.05.05-.05.58.01-.03-.02-.09-.05l-.11-.03c.28.08.29.08.04,0,0,0-.22-.26-.2-.25-.04-.03.03-.25.04-.25.13.09-.11.28-.1.31.14.24-.25-.03.09-.02.39.01-.12-.34.78-.02.58.21.24.25.54.45-.32-.22-.01.07-.02-.08-.02-.41-.06.59.01-.14.06-.53-.11.27.04-.32.04-.16.08-.33.14-.49.26-.77-.09.21.1-.21.04-.09.32-.56.08-.18.12-.19.3-.14-.03-.05.41-.11-.49,0-.7-.03-.16-.02-.22-.28.05.09-.27-.39-.16-.73-.28-1.12.16.53-.02-.12.02-.03l-.12.18c.13-.18.14-.2.02-.07-.07.07-.46.38-.16.16-.14.1-.29.19-.44.27-.51.29-.26.21-.81.32-.1.02-.49.14-.02.02-.26,0-.29,0-.08.03.19.04.18.03-.05-.02.04.11.29.72.4.9.2.32-.45.2.07.03.04-.01-.62.54.14-.12.17-.15.39-.25.56-.3.06-.02.48-.09.1-.04.24-.03.54-.03.78,0-.3-.04.46.18.33.12.24.09.48.29.3.12.19.18.18.08.16.37,0-.11.14-.42-.04.19-.11.38-.04.19-.24.5-.61.96-2.22,1.5-3.19,1.13.02,0-.22-.14-.35-.33-.27-.39-.31-.67-.27-1,.05-.49.57-1.29,1.16-1.81.67-.59,1.43-1.01,2.27-1.14.43-.07,1.28.13,1.71.56.46.47.68,1.05.6,1.86-.07.72-.47,1.64-1.13,2.16-.45.36-1.13.48-1.57.42-.93-.14-1.57-.62-2.24-1.37l-3.03,3.93c-.38-.28.28.34.36.43.14.17.26.35.38.53.31.44.28.31.14.86-.42,1.74-1.31,3.1-1.39,4.94-.08,2.09,2.84,3.4,4.27,1.77.91-1.04,1.35-2.19,1.86-3.46.15-.38.32-.73.55-1.08.19-.28.49-.61.49-.6.25-.19-.41.07.19-.09.06-.02.4-.08.16-.04.62-.09,1.33-.06,1.95.02,1.43.17,2.82.7,4.17,1.17l-.6-4.57c.26-.16.55.18.12-.07-.29-.17-.62-.28-.97-.47-.83-.45-1.64-.91-2.54-1.2-1.94-.62-3.43,1.31-3.08,3.08.56,2.78,1.86,5.33,3.09,7.86.55,1.14,1.08,2.28,1.47,3.48.21.64.39,1.29.5,1.95.03.21.02.48.08.68v.31c.11-.65.54-1.11,1.32-1.39h1.33c.46.08.4.49.21.06-.05-.12-.21-.24-.29-.35-.42-.57-.73-1.22-1.05-1.84-.66-1.28-1.32-2.47-2.24-3.58-1.46-1.77-4.2-.23-4.27,1.77-.04,1.16.03,2.32-.01,3.47-.02.55-.06,1.13-.15,1.53-.02.08-.18.66-.12.51s-.48.61-.14.25l3.03-.39c.36.27-.33-.49-.13-.2-.21-.3-.39-.64-.53-.98-.18-.45-.43-1.42-.56-2.08-.31-1.51-.41-3.04-.48-4.63-.03-.7-.07-1.4-.06-2.1,0-.18,0-.36.02-.54.01-.12.04-.04.02-.06.04-.15.04-.14-.02,0-.1.3-.35.47-.74.51,1.13-.64-.86.65-.88.37,0-.03.39.33.41.35.2.23.41.61.6.9.52.82,1.06,1.65,1.79,2.28,1.47,1.28,4.48.57,4.27-1.77-.08-.9-.25-1.72-.8-2.46-1.17-1.58-3.15-1.61-4.32,0l-.22.3h4.32c-.39-.64-.79-1.27-1.15-1.93-.11-.2-.22-.4-.33-.61-.03-.05-.3-.64-.21-.41s-.09-.31-.11-.35c-.2-.39.06.34-.03.58l-.64,1.1.06-.08-2.43.64c.26.11.52.2.78.28l-1.49-1.15c1.32,1.8,1.7,4.04,2.42,6.1l4.57-1.93c-.68-.98-1.36-1.95-2.16-2.83-1.54-1.69-4.16-.28-4.27,1.77-.02.47.05.91.15,1.38l4.18-2.43c-.39-.41-.82-.74-1.27-1.08-1.07-.82-2.81-.16-3.42.9-.41.72-.74,1.49-.98,2.28l2.41-1.84c-.43,0-.88.03-1.3.14l-.22.09c-.84.33-.79.34.14.02l1.26.34-.2-.12c-2.05-1.25-3.97.81-3.67,2.82.13.93.19,1.87.26,2.81.26,3.16,5.02,3.26,5,0,0-.98-.02-1.97-.04-2.95l-4.91.66v-.03c.11,1.35,1.07,2.5,2.5,2.5,1.27,0,2.61-1.15,2.5-2.5-.04-.5-.09-.99-.09-1.49,0-.25.14-.53,0-.38h-3.54c1.5,1.72,2.87,3.59,4.42,5.29,1.62,1.79,5.06-.08,4.18-2.43-1.69-4.54-2.19-9.36-3.49-14-.4-1.43-.77-2.86-1.04-4.33-.03-.14-.09-.58-.04-.22-.02-.2-.04-.4-.06-.6-.02-.33-.02-.66-.02-1,0-.41-.11.1,0,0,.01-.06.02-.11.04-.17.06-.19.02-.11-.11.23.21-.29-.09.13-.14.17-.19.22-.42.34-.71.35-.48.09-.57.13-.27.11l-2.5-2.5c0,.68.2.47.61-.62l3.03.39c.2,1.02.32,1.23.35.62l-2.5,2.5c-1.72.16-1.74-3.03.27-2.78l1.26.34-.14-.08.9.9c.56,1.42-.07,2.23-1.89,2.41l-1.75-3.08c-.1.3.24-.31-.14.26-.08.13-.16.25-.24.37.16-.2.14-.18-.05.06-.41.47-.85.91-1.34,1.29-.24.19-1.09.73-1.6.97-.29.14-.17.09-.64.22-.16.04-.32.08-.49.11.22-.03.25-.04.07-.02-.12,0-.23,0-.35,0,.29.05.29.04,0-.02-.28-.09-.28-.09-.01,0,.19.18.18.17-.04-.03.11.18.09.16-.04-.05.11.18.16.38.17.6,0,.32-.31.87-.32.89-.04.07-.07.12-.34.19.27-.07.21-.07-.18,0,.28,0,.22-.02-.19-.06.31.15-.49-.35-.63-.49-.32-.32-.12-.64-.18.08-.12,1.35,1.24,2.5,2.5,2.5,1.45,0,2.38-1.15,2.5-2.5.27-3.02-2.4-5.26-5.31-4.29s-3.68,4.57-1.43,6.75c4.16,4.04,11.66-.98,13.12-5.48.42-1.29-.49-2.73-1.75-3.08-1.88-.52-3.73.67-4.15,2.56-.49,2.19,1.42,4.19,3.66,3.61,3.91-1.01,2.76-7.51-1.23-7.14-1.48.14-2.31,1.05-2.5,2.5-.15,1.13.32,2.13,1.11,2.91.71.7,2.16,1.05,3.03.39,1.22-.93,2.01-2.1,1.87-3.7-.12-1.33-1.05-2.52-2.5-2.5-5.33.07-3.7,7.16-2.87,10.32,1.34,5.12,2.03,10.48,3.88,15.45l4.18-2.43c-1.58-1.74-2.95-3.6-4.42-5.29-.9-1.03-2.62-.89-3.54,0-1.52,1.47-1.52,3.45-1.36,5.41h5c-.04-.44-.09-.87-.18-1.3-.57-2.78-4.97-2.13-4.91.66.02.98.04,1.97.04,2.95h5c-.11-1.38-.24-2.76-.44-4.14l-3.67,2.82c.6.37,1.27.52,1.97.44.36-.04.46-.11.8-.22.88-.3.05,0,.08,0,1.12.02,2.1-.8,2.41-1.84.12-.4.26-.72.47-1.09l-3.42.9c.05.12.13.22.26.3,1.78,1.91,4.7-.11,4.18-2.43l.03-.05-4.27,1.77c.52.57.94,1.19,1.38,1.82.71,1.02,1.93,1.55,3.12,1.02,1.07-.47,1.87-1.75,1.45-2.95-.56-1.58-.96-3.22-1.59-4.77-.32-.77-.65-1.54-1.12-2.24-.68-1.01-1.41-1.28-2.49-1.72-.73-.3-1.95.02-2.43.64-1.97,2.53.23,5.49,1.62,7.76,1.04,1.71,3.23,1.5,4.32,0l.22-.3h-4.32c.23.38.27.36.12-.06l4.27-1.77c-.8-.69-1.29-1.78-1.99-2.69-.95-1.21-2.33-2.21-3.93-2.27-3.19-.13-3.87,2.98-3.79,5.5.15,4.59.23,10.43,4.22,13.47.85.64,2.34.34,3.03-.39,2.35-2.49,1.78-6.18,1.88-9.31l-4.27,1.77c1.57,1.9,2.02,4.49,3.98,6.14,1.05.89,2.51,1.28,3.76.52,1.17-.71,1.56-2.11,1.52-3.41-.17-5.59-4.26-9.97-5.32-15.31l-3.08,3.08c.25.08.73.36,1.2.62.61.33,1.22.65,1.88.89,1.38.52,2.88.52,4.16-.28,1.89-1.18,1.43-3.87-.6-4.57-2.96-1.03-6.64-2.18-9.7-.85-1.31.57-2.27,1.65-3,2.85-.62,1.01-.77,2.51-1.52,3.37l4.27,1.77c.04-.95.56-1.87.9-2.75.44-1.14.69-2.33.48-3.54-.34-1.93-1.83-3.66-3.36-4.79-.99-.73-2.55-.26-3.23.64-.77,1.03-.65,2.33.2,3.28,2.89,3.23,8.07,3.92,11.2.62s3.06-8.97-.85-11.62-8.91-.52-11.34,3c-2.56,3.7-.92,9.33,3.81,10.1,4.08.67,9-2.35,9-6.82,0-4.23-4.78-6.64-8.49-5.24-2.06.78-3.88,2.64-3.95,4.94s2.17,4.14,4.42,4.19c3.43.08,8.36-3.48,6.32-7.31-.95-1.79-3.16-2.91-5.14-2.25-1.87.62-3.11,2.52-3.54,4.36s-.25,3.84,1.11,5.2c1.95,1.93,4.89,1.21,6.35-.88,1.32-1.88,1.28-4.5-.34-6.2-1.49-1.56-3.84-1.82-5.71-.79-1.98,1.08-3.05,3.3-2.67,5.51.35,2.03,1.93,3.58,4.05,3.57,4.01-.03,7-5.52,3.96-8.57-2.53-2.53-6.24-.42-7.85,2.06-2.11,3.25-.15,7.13,3.73,7.39s4.42-3.66,2.94-6.28-5.2-3.88-6.86-.63c-2.13,4.18,2.52,9.06,6.86,7.87s6.91-7.12,4.04-10.83c-2.05-2.65-6.22-3.64-9.18-1.97-1.73.98-2.49,2.61-2.73,4.5-.17,1.34,1.27,2.5,2.5,2.5,1.49,0,2.33-1.15,2.5-2.5h0Z"/>
  <path class="cls-20" d="m142.88,453.77c0-.24,0-.48.03-.72-.03.37,0,.02.04-.16.04-.19.09-.39.16-.58.02-.05.31-.69.1-.28.18-.35.37-.69.6-1.01-.29.38.18-.17.21-.2.04-.04.49-.45.26-.26-.21.18.31-.2.3-.2l.2-.11c-.25.13-.51.12-.79-.03-.51.03-.88-.18-1.13-.64l.09.16c-.11-.28-.14-.33-.09-.15.04.18.04.13-.02-.17,0,.05-.03.56,0,.31s-.09.36-.11.42c-.15.6.17-.2-.12.34-.12.22-.25.43-.39.64-.6.87-.38,2.33.39,3.03.83.77,2.02.95,3.03.39-.3.1-.32.11-.06.03-.19.07-.38.07-.57.01.27.08.25.06-.04-.05.23.15.24.13,0-.05.11.09.43.53.18.12.08.12.15.24.21.37-.11-.23-.11-.2,0,.1.06.31.07.34.03.12.01.18.02.36.01.53,0,.07-.05.8,0,.41-.04.36-.13.72-.21,1.06-.04.16-.08.33-.13.49.05-.12.11-.24.17-.36l1.1-.64c.46-.09.83.01,1.11.3-.19-.21-.22-.23-.08-.03-.15-.18-.27-.42-.39-.62-.32-.57-.61-1.17-.9-1.77-.59-1.2-1.11-2.38-1.57-3.51l-4.57,1.93c.55.86,1.05,1.75,1.49,2.66s.63,1.38.97,2.38c.31.92.59,1.86.78,2.81.01.06.11.68.08.46s.02.4.02.46c0,.03-.06.8.01.37-.01.09-.23.73-.07.37-.54,1.19-.38,2.75.9,3.42,1.1.58,2.84.37,3.42-.9,1.17-2.56.67-5.2-.15-7.79-.75-2.37-1.8-4.67-3.14-6.77-.67-1.06-1.95-1.52-3.12-1.02-1.04.44-1.91,1.79-1.45,2.95.89,2.22,1.83,4.5,3.03,6.58.67,1.16,1.61,2.17,2.92,2.59,1.84.61,3.57-.62,4.17-2.32.76-2.15.95-4.95-.22-6.98-1.3-2.25-4.13-3.33-6.47-2.04l3.42,3.42c1.03-1.48,1.52-3.41,1.18-5.19-.4-2.09-2.44-3.63-4.57-2.91-3.32,1.12-5.28,4.88-5.27,8.23,0,1.31,1.15,2.56,2.5,2.5s2.5-1.1,2.5-2.5h0Z"/>
  <path class="cls-20" d="m149.95,452.72c1.07-.16,2.19-.82,2.9-1.63.93-1.07,1.44-2.33,1.5-3.76.05-1.27-.35-2.82-1.31-3.71-1.46-1.34-3.72-.92-5.01.44-1.8,1.91-1.77,4.98-.38,7.12.59.91,1.39,1.75,2.37,2.27.44.23.93.45,1.43.56.81.18,1.48.17,2.29.04,1.1-.18,2.19-.82,2.95-1.62.99-1.04,1.5-2.31,1.61-3.73.05-.61-.31-1.35-.73-1.77s-1.15-.76-1.77-.73-1.32.24-1.77.73-.68,1.08-.73,1.77c0,.06,0,.12-.02.19l.09-.66c-.04.28-.11.54-.22.8l.25-.6c-.11.25-.25.48-.41.7l.39-.51c-.19.24-.4.45-.64.63l.51-.39c-.22.16-.44.29-.69.4l.6-.25c-.25.1-.5.17-.76.21l.66-.09c-.24.03-.47.03-.7,0l.66.09c-.3-.04-.58-.12-.85-.23l.6.25c-.28-.12-.53-.28-.77-.46l.51.39c-.27-.21-.51-.45-.72-.72l.39.51c-.23-.3-.42-.63-.57-.98l.25.6c-.13-.33-.22-.66-.28-1.01l.09.66c-.04-.32-.05-.63-.02-.95l-.09.66c.04-.26.1-.51.19-.75l-.25.6c.09-.21.2-.39.33-.57l-.39.51c.1-.12.2-.23.32-.33l-.51.39c.15-.11.3-.2.46-.27l-.6.25c.09-.03.17-.06.27-.07l-.66.09c.1-.01.18-.01.28,0l-.66-.09c.06,0,.12.03.18.05l-.6-.25.08.05-.51-.39c.05.04.1.08.13.13l-.39-.51c.07.11.13.22.18.34l-.25-.6c.11.27.18.54.23.83l-.09-.66c.04.32.04.64,0,.97l.09-.66c-.04.29-.11.56-.22.83l.25-.6c-.11.25-.24.48-.4.69l.39-.51c-.16.2-.34.39-.54.55l.51-.39c-.2.16-.42.28-.65.39l.6-.25c-.23.1-.47.16-.72.2-.58.09-1.21.67-1.49,1.15-.31.54-.45,1.33-.25,1.93s.57,1.19,1.15,1.49l.6.25c.44.12.89.12,1.33,0h0Z"/>
  <path class="cls-20" d="m159.84,442.49c-.03-.08-.05-.16-.06-.24l.09.66c-.01-.13-.02-.24,0-.36l-.09.66c.03-.21.09-.4.17-.6l-.25.6c.11-.23.24-.44.4-.65l-.39.51c.26-.31.54-.58.86-.83l-.51.39c.36-.27.73-.48,1.14-.66l-.6.25c.27-.11.54-.19.83-.24l-.66.09c.2-.02.39-.03.58,0l-.66-.09c.2.03.38.09.57.16l-.6-.25c.18.09.35.19.52.31l-.51-.39c.23.18.43.39.62.62l-.39-.51c.26.34.46.7.63,1.09l-.25-.6c.23.56.37,1.13.46,1.73l-.09-.66c.17,1.28.09,2.57,0,3.85l4.27-1.77s-.09-.08-.12-.12l.39.51c-.05-.07-.09-.14-.13-.23l.25.6c-.05-.15-.08-.3-.11-.45l.09.66c-.07-.59-.07-1.2-.22-1.78-.27-1-.99-1.81-1.93-2.21-1.62-.68-3.68.11-4.77,1.42-.64.78-1.04,1.67-1.05,2.69,0,.95.35,1.94,1.02,2.62,1.46,1.47,3.65,1.2,5.2.03.54-.41.96-.81,1.15-1.49.16-.6.09-1.4-.25-1.93s-.86-1-1.49-1.15-1.4-.15-1.93.25c-.28.21-.57.4-.89.54l.6-.25c-.16.06-.31.1-.47.12l.66-.09c-.08,0-.15,0-.23,0l.66.09c-.08,0-.15-.03-.22-.06l.6.25c-.08-.03-.15-.07-.21-.12l.51.39c-.08-.07-.14-.13-.21-.21l.39.51c-.04-.05-.07-.11-.1-.17l.25.6c-.05-.13-.09-.25-.11-.39l.09.66c-.01-.14-.01-.28,0-.42l-.09.66c.02-.14.06-.27.11-.4l-.25.6c.06-.11.12-.21.19-.32l-.39.51c.13-.16.27-.3.42-.43l-.51.39c.23-.17.47-.3.73-.41l-.6.25c.15-.05.29-.09.45-.12l-.66.09c.07,0,.15,0,.22,0l-.66-.09c.07,0,.14.02.21.05l-.6-.25c.07.03.13.06.19.11l-.51-.39s.09.08.12.12l-.39-.51c.05.07.09.14.13.23l-.25-.6c.05.15.08.3.11.45l-.09-.66c.14,1.23.17,2.46,1.16,3.36.75.69,1.77.92,2.73.52s1.46-1.27,1.54-2.28c.26-3.39.09-7.27-2.94-9.45-1.79-1.29-4.21-.92-5.95.27s-3.43,3.34-2.72,5.66c.38,1.25,1.76,2.17,3.08,1.75s2.16-1.74,1.75-3.08h0Z"/>
  <path class="cls-20" d="m163.77,439.5c1.54,2.13,2.95,4.35,4.24,6.64.61,1.09,2.01,1.49,3.12,1.02s1.87-1.77,1.45-2.95c-.4-1.12-.78-2.24-.95-3.41l.09.66c-.08-.62-.1-1.24-.03-1.86l-.09.66c.03-.2.06-.41.11-.61.03-.14.2-.45.18-.58-.17.37-.19.45-.09.22.04-.08.08-.15.12-.23.05-.08.38-.54.09-.17s.07-.06.14-.13c.06-.06.12-.12.18-.17-.35.26-.42.31-.21.17.14-.08.29-.15.43-.24-.41.17-.5.21-.26.13.08-.02.16-.04.24-.06,1.28-.28,2.15-1.84,1.75-3.08-.44-1.35-1.7-2.04-3.08-1.75-2.29.49-4.01,2.7-4.39,4.94-.22,1.33-.18,2.56.07,3.89.19,1.01.53,1.98.87,2.94l4.57-1.93c-1.28-2.29-2.7-4.51-4.24-6.64-.39-.54-.83-.97-1.49-1.15-.6-.16-1.4-.09-1.93.25-1.05.68-1.72,2.29-.9,3.42h0Z"/>
  <path class="cls-20" d="m160.28,482.06c-.29.89-.44,1.84-.48,2.77l.09.66c.08.33.23.61.45.85.11.19.26.34.45.45.24.22.52.37.85.45l.66.09.66-.09c.33-.08.61-.23.85-.45.27-.18.49-.41.64-.7.1-.19.2-.38.3-.56l-4.66-1.26c.02.53.03,1.05.05,1.58l.09.66.25.6.39.51c.23.24.49.42.8.52.19.11.41.17.63.17.22.06.44.06.66,0,.23,0,.44-.06.63-.17.31-.1.58-.27.8-.52.2-.18.37-.37.54-.57.29-.36.58-.72.81-1.12.36-.63.65-1.34.8-2.06.1-.33.12-.66.04-1-.02-.33-.11-.64-.3-.93-.16-.29-.37-.53-.64-.7-.24-.22-.52-.37-.85-.45-.64-.15-1.36-.11-1.93.25-.53.34-1.01.86-1.15,1.49-.07.31-.16.62-.29.92l.25-.6c-.17.4-.39.77-.65,1.12l.39-.51c-.17.22-.36.42-.57.61l4.27,1.77c-.02-.53-.03-1.05-.05-1.58l-.09-.66c-.08-.33-.23-.61-.45-.85-.11-.19-.26-.34-.45-.45-.24-.22-.52-.37-.85-.45l-.66-.09-.66.09c-.33.08-.61.23-.85.45-.27.18-.49.41-.64.7-.1.19-.2.38-.3.56l4.66,1.26c.01-.23.03-.47.06-.7l-.09.66c.07-.48.18-.95.33-1.41.1-.33.12-.66.04-1-.02-.33-.11-.64-.3-.93-.16-.29-.37-.53-.64-.7-.24-.22-.52-.37-.85-.45-.64-.15-1.36-.11-1.93.25l-.51.39c-.31.31-.52.68-.64,1.1h0Z"/>
  <polygon class="cls-15" points="781.95 536.75 751.54 534.31 730.69 556.11 725.46 528.6 697.55 518.25 724.73 503.69 728.33 475.5 750.36 494.01 780.49 486.93 766.93 512.93 781.95 536.75"/>
</svg>