<?xml version="1.0" encoding="UTF-8"?>
<svg id="Layer_1" data-name="Layer 1" xmlns="http://www.w3.org/2000/svg" viewBox="0 0 595.28 841.89">
  <defs>
    <style>
      .cls-1 {
        fill: none;
      }

      .cls-1, .cls-2, .cls-3, .cls-4, .cls-5, .cls-6, .cls-7, .cls-8, .cls-9 {
        stroke: #231f20;
        stroke-miterlimit: 10;
      }

      .cls-1, .cls-3 {
        stroke-linecap: round;
      }

      .cls-1, .cls-3, .cls-4, .cls-5, .cls-6, .cls-7, .cls-8, .cls-9 {
        stroke-width: 3px;
      }

      .cls-10, .cls-2 {
        fill: #231f20;
      }

      .cls-3, .cls-4 {
        fill: #99633b;
      }

      .cls-5 {
        fill: #342a13;
      }

      .cls-6 {
        fill: #be1e2d;
      }

      .cls-7 {
        fill: #9a7e41;
      }

      .cls-8 {
        fill: #fff;
      }

      .cls-9 {
        fill: #6a0006;
      }
    </style>
  </defs>
  <path class="cls-4" d="m230.67,198.79c16.56,4.31,11.4,38.49,6.67,55.25-4.74,16.76,2.49,8.48-14.07,4.17-16.56-4.31-36.88-6.44-39.8-23.41-2.92-16.95,30.65-40.32,47.21-36.01Z"/>
  <path class="cls-7" d="m223.77,216.17c8.98,1.45,8.54,17.33,7.16,25.2-1.38,7.86,1.87,3.82-7.11,2.37-8.98-1.45-19.79-1.77-22.45-9.48-2.66-7.7,13.42-19.53,22.4-18.08Z"/>
  <path class="cls-4" d="m406.05,228.46c-.68,16.45-36.56,19.25-54.66,18.56-18.09-.69-8.06,4.22-7.38-12.23.68-16.45-1.69-35.92,14.9-42.44s47.81,19.66,47.13,36.11Z"/>
  <path class="cls-7" d="m387.76,225.9c.84,8.7-15.27,12.36-23.55,13.1-8.27.74-3.37,2.71-4.21-5.99-.84-8.7-3.29-18.8,3.8-23.24,7.08-4.44,23.12,7.43,23.97,16.13Z"/>
  <path class="cls-3" d="m428.07,489.32c-24.44,98.08-57.32,77.21-118.94,78.26-75.07,1.27-102.28,14.11-130.93-61.09-41.43-108.72-35.02-301.49,128.51-301.6,140.48-.09,143.16,196.94,121.35,284.44Z"/>
  <ellipse class="cls-5" cx="298.5" cy="299.84" rx="32.19" ry="25.96"/>
  <ellipse class="cls-2" cx="335.37" cy="285.15" rx="8.32" ry="7.98"/>
  <ellipse class="cls-2" cx="260.93" cy="285.15" rx="8.32" ry="7.98"/>
  <ellipse class="cls-2" cx="298.56" cy="279.17" rx="10.57" ry="7.98"/>
  <line class="cls-1" x1="287.99" y1="492.06" x2="309.13" y2="502.27"/>
  <line class="cls-1" x1="305.77" y1="487.68" x2="292.08" y2="504.46"/>
  <path class="cls-8" d="m298.37,409.67c-2.89,69.25-22.37,57.34-56.83,50.06-36.31-7.68-57.84-7.33-51.6-50.49,5.66-39.18-9.63-83.29,46.38-56.11,67.86,32.94,63.49,22.11,62.06,56.54Z"/>
  <path class="cls-8" d="m399.43,428c-28.7,50.47-25.65,43.44-79.73,45.61-41.08,1.65-29.79-2.17-21.82-45.56,5.46-29.69-6.9-41.65,21.55-45.96,108.08-16.38,108.62-4.44,79.99,45.91Z"/>
  <path class="cls-6" d="m416.02,454.6c-22.41,99.27,6.49,49.02-85.79,47.78-47.15-.63-41.14,13.57-31.59-45.22,6.54-40.24,4.53-66,29.11-68.68,127.1-13.87,106.14-13.07,88.26,66.12Z"/>
  <path class="cls-6" d="m302.04,430.07c-7.29,90.93-28.91,69.79-69.31,57.06-74.58-23.51-66.91,25-60.5-57.63,6.73-86.82-3.86-99.33,61.92-69.51,80.72,36.59,71.33,27.07,67.88,70.08Z"/>
  <path class="cls-9" d="m304.13,445.3c-12.92,58.56-4.64,59.02-20.8,56.02-16.61-3.09-17.49,1.75-5.77-60.06,11.86-62.53,17.78-55.52,17.78-55.52,27.36,2.51,20.35,7.2,8.79,59.57Z"/>
  <path class="cls-10" d="m359.8,437.92c.3-.5.11-.31.55-.68.56-.49-.22.11.14-.11.16-.1.33-.2.5-.28-.41.19.43-.1.59-.13.41-.08-.57,0,.14,0,.24,0,.47,0,.71,0,.75.03-.26-.07.18.02.2.04.41.08.61.14.16.04.32.09.48.14,0,0,.77.3.36.12.68.3,1.62.89,1.93,1.15,1.3,1.1,2.02,2.05,2.26,3.55-.07-.45,0,.52-.02.67-.03.43.16-.54-.04.2-.05.18-.09.36-.16.53-.25.64-.89,1.41-1.54,1.91-1.42,1.12-3.37,1.68-4.94,1.39-.09-.02-.61-.21-.23-.04-.16-.07-.31-.17-.46-.26-.25-.16-.52-.39-.84-.73-.57-.6-1.05-1.36-1.27-2.1-.14-.47-.2-.58-.11-1.08-.04.22.3-.49.13-.26.17-.23.39-.41.59-.61.24-.24-.51.28-.07.06.27-.13.42-.1-.13.02.64-.15-.62,0-.02,0-.21,0-.93-.3-.6-.1-.34-.2-.35-.36-.1-.03s-.24-.55-.11-.13c.03.1.13.24.19.33.33.52-.09-.48.06.15.05.21.12.41.17.62.08.35.08.7.05.12.01.29.05.57.05.87,0,.21-.03.42-.03.63,0-.19.1-.46-.04.04-.03.11-.1.24-.11.35,0-.02.29-.6.11-.28s-.06,0,.02.02c.09.01.04-.06.17-.15.05-.03.34-.19.33-.18.59-.18.56-.06.25-.06,0,0,.71.11.31.03-.54-.11.33.27-.21-.1-.1-.07-.2-.13-.3-.19-.33-.22.2.23-.23-.2-.24-.24-.5-.46-.71-.73.52.66-.55-.87,0,0-.04-.07-.07-.22-.09-.31-.11-.54.03.61.02.07,0-.27.13-.13-.05.23.05-.11.09-.3.12-.42-.13.65,0,.06.17-.2-.38.59.1-.05.26-.21.43-.44-.21.06.25-.19.29-.16.57-.34.87-.5.62-.32-.23.04.44-.18.27-.09.54-.17.81-.24s.54-.12.82-.16c-.72.11.38,0,.58,0,.11,0,.23.02.34.02.52-.02-.47-.2-.02,0,.12.05.82.28.43.1s.03.03.09.07c.21.15.06.14-.16-.14.17.21.12.25.09.05-.06-.47.11.22.11.22,0-.05-.27-.56-.1-.17.2.46,0-.42,0-.1,0,.19-.03.96,0,.39,0,.07-.13.79-.02.16-.01.08-.16.31-.2.35.49-.52-.6.53-.33.32.16-.12-.47.27-.64.35.48-.24-.42.13-.6.18,0,0-.69.14-.29.07s-.28.02-.29.02c-.24,0-1.12-.14-.53,0-.19-.05-.37-.09-.55-.15.07.02.52.17.1.03l-.15-.09c-.19-.13-.19-.13-.03-.01.1-.05-.06-.07.17.19-.07-.08-.13-.21-.18-.31.19.42.21-.11.1.33.03-.12-.02-.31,0-.43.08-.54-.07.22.07-.3.19-.71-.13.18.05-.19.09-.17.18-.34.3-.49-.16.21.24-.18.24-.18.13-.08.26-.15.39-.23.6-.34-.26.07.13-.05.18-.06.36-.11.54-.15.65-.16-.44-.02.23-.03.19,0,.37,0,.56,0,.41.01-.55-.16.1.01.14.04.28.07.42.11.64.17-.23-.15.1.04.16.09.31.17.46.28-.37-.27-.08-.05-.02.02.13.14.2.24.25.44.12.43.07.21.05.08,0,.02,0,.87.05.35-.01.15-.09.35-.14.48.16-.45-.22.25-.04.03-.38.49-.85.78-1.44.9.3-.06-.41-.07-.22-.01-.26-.08.24.32-.15-.08.04.05.13.15.19.19-.07-.06-.31-.64-.18-.23-.02-.06-.02-.34,0-.42-.17.57.08-.2.11-.32.07-.26.56-1.07.81-1.34.66-.74.86-.91,1.68-1.36.7-.38-.42.19.28-.12.13-.06.31-.09.44-.12-.54.12.77.13.17,0,.56.13-.01.02,0-.03-.01.08.08,0,.21.14.17.18.29.34.47.75-.2-.45.02,0,0,.11-.04.26-.18-.46-.01-.02l.05-.33-.04.16-.05.16c.15-.34.17-.4.03-.16.08,0,.31-.49.08-.11-.03.05-.46.37-.15.15s-1.01.42-.36.19c-.34.12-.69.21-1.04.3-.15.04-.3.06-.45.09.49-.09-.01,0-.14.01-.35.02-.7.05-1.06.04-.24,0-.47-.02-.7-.03-.12,0-.79-.11-.25-.02-.36-.06-.71-.16-1.07-.24-.13-.03-.27-.09-.39-.13.48.17.16.08.05.02-.16-.09-.32-.18-.48-.28.2.13.48.51-.11-.13.21.23-.35-.38-.36-.39-.5-.52.18-.19-.04-.02-.29.23.12-.05.22-.12.34-.25.71-.39,1.12-.5,1.01-.28,1.87-.22,2.82.08.72.23,1.46.63,2.04,1.12.65.55,1.13,1.18,1.32,1.79s.21,1.04-.17,1.65c-.26.42-.61.77-1,1.08.24-.19-.59.35-.76.43-2.33,1.23-6.37.73-8.27-1.24s-.92-4.76,1.39-6.1c1.22-.71,2.97-1.17,4.24-1.26,1.75-.12,2.86-.09,4.47.64,3.25,1.5,4.27,4.88,2.65,7.63-1.94,3.28-6.12,4.07-9.13,2.14-1.48-.95-2.62-2.49-3.21-4.2l-4.57,1.93c.59.93.94,2.13,1.14,3.35.03.22.06.45.06.73.01.53.16-.21-.03.36-.1.29-.29.62-.51.9-1.76,2.21-4.35,3.54-5.61,6.19-.83,1.74.6,4.53,2.82,3.67,2.09-.81,3.56-2.26,5.19-3.75,1.18-1.08,2.9-2.21,4.42-2.03,1.75.2,3.78,1.41,5.31,2.41,1.88,1.23,3.54,2.76,5.2,4.27l1.1-4.18c.49-.07.09-.02-.21-.13.46.18-.58-.38-.3-.18-.65-.46-1.19-1.13-1.7-1.74-.98-1.17-1.84-2.49-3.02-3.48-1.35-1.13-3.73-.88-4.18,1.1-1.59,7.09.22,14.22-.47,21.35-.14,1.46-.41,3.06-.98,4.42-.06.14-.14.29-.22.42-.1.16-.1.17.02.03-.13-.18,2.31-.08,2.17.06.08-.08.01.23-.06-.15-.08-.39-.28-.81-.38-1.2-.87-3.34-.41-6.88-1.48-10.19-.62-1.92-3.55-2.62-4.57-.6-.92,1.82-1.63,3.73-2.57,5.54-.48.92-.99,1.89-1.64,2.7-.12.15-.59.64-.86.86-.12.1-.41.27-.54.31l2.82,1.15c-1.17-1.93-.83-4.8-.28-7.28.62-2.78,1.59-5.48,2.66-8.12.45-1.1.83-2.15,1.36-3.18.13-.26.27-.52.43-.76.18-.27.25-.19.1-.2l.19-.11c-.26.18-.55.22-.89.11.33-.27.21.2.15.06.12.25.49.48.67.74s.29.53.4.83c.23.66.36,1.37.48,2.06.31,1.73.6,3.36,1.42,4.94,1.08,2.05,3.88,1.29,4.57-.6.42-1.16.4-2.3.08-3.48-.44-1.63-2.25-2.22-3.67-1.49-.19.09-.38.19-.56.3l3.67,1.49c-.21-1.38-.38-2.31-.5-3.48-.08-.75-.13-1.51-.13-2.27,0-.18-.02-1.15,0-.54l.04-.18c.07-.22.06-.22-.03,0-.09.17-.1.21-.04.1.27-.47-.1-.2-1.11.81l-2.43-.64c.34.36.72.68,1.08,1.01l-.64-1.1c.96,3.7-.11,7.7-.34,11.44l4.91-.66c-.36-1.63-.7-3.26-1.29-4.83-.73-1.95-3.4-2.57-4.57-.6-.32.54-.56,1.09-.64,1.72h4.82c-.28-.77-.6-1.5-1.02-2.2-.67-1.12-2.27-1.64-3.42-.9-1.05.68-2.02,1.47-2.86,2.4l3.03-.39c-.64-.33-1.25-.58-1.96-.69-.23-.03-.5-.09-.74-.08-.91.04.19-.45.92.69-1.15-1.78-3.98-1.54-4.57.6-.52,1.87-1.18,3.69-1.82,5.51-.94,2.64,3.4,4.52,4.57,1.93.67-1.49,1.33-2.99,1.97-4.5l-4.57-1.93c-.07.36-.16.68-.29,1.03l4.82,1.33c.27-.74.5-1.5.84-2.2.32-.64.55-.99.96-1.1l-3.08-1.75c.42,1.18.53,2.48,1.06,3.59.26.54-.12-.33.04.06.08.2.15.4.22.6.15.43.29.86.43,1.29.61,1.9,1.12,3.84,1.81,5.72.96,2.6,4.79,2.26,4.91-.66.31-7.43,2.57-14.53,3.71-21.83.56-3.63.89-7.35,2.14-10.83.05-.14.1-.28.16-.42.14-.36-.16.34,0,0,.1-.22.2-.43.31-.64.1-.19.23-.37.33-.57.26-.48-.18.15.07-.1.1-.1.41-.52.19-.22-.15.2-.16.1-.02.03.43-.22-.43.12-.16.06.54-.12-.48.06-.07.02.01,0-.57-.11-.31-.03.16.05.48.2-.08-.06l-1.15-2.82s-.04.32-.11.2l.36-.21c-.2.07-.4.11-.6.13l2.82,1.15c.15.34-.25,1.14.17.51l-2.82,1.15c-.22-.07-.33-.25-.48-.41-.26-.27-.02.04-.06-.13-.03-.19-.03-.16-.03.1l.03-.24c-.08.24-.08.27,0,.1.08-.16.06-.14-.05.07.18-.13.26-.31.48-.42.26-.14.55-.17.86-.08l1,2.1c-.16.82-1.18.86-1.74.37v-3.54c-.17.18-.85.69-.35.36-.35.23-.7.46-1.08.65-.19.1-.38.19-.57.28-.1.05-.2.09-.3.14.04-.02.34-.14.07-.04-.53.2-1.06.38-1.6.54-2.12.61-3.65.84-5.95.68-.72-.05-.34,0-1.03-.15-.49-.1-.97-.24-1.43-.43.48.2-.83-.52-.65-.39.21.15-.22-.22-.3-.28-.08-.07-.14-.15-.21-.23.15.17.15.23.01.01-.11-.18-.22-.36-.31-.55.19.39.01-.09-.06-.23-.15-.3-.13.09-.04-.14.1-.25-.07.17-.06.16-.04.08-.09.19-.15.25.11-.1-.43.32-.03.03.08-.06-.48.12-.02.02.54-.12-.35-.07.07-.03.11.01.74.01.35-.02s.31.09.42.12c.27.06-.2-.1-.2-.1.07.02.25.09.3.15.24.29-.35-.26.07.06.02.01-.22-.36.02.08-.15-.26-.15-.27-.14-.37-.09.53.18-.18-.04.21,0,.01-.14.36-.04.13s-.25.41-.24.39c-1.67,2.76,2.66,5.28,4.32,2.52,1.82-3.02.92-6.65-2.55-7.85-2.68-.92-6.13.11-6.92,3.07s1.63,6.26,4.29,7.47c2.98,1.35,6.33,1.3,9.5.77,2.9-.48,6.34-1.52,8.4-3.75.87-.95,1.04-2.61,0-3.54-1.88-1.67-4.77-1.38-6.15.81s.22,5.16,2.9,5.2c4.93.08,5.51-7.41,1.03-8.77-1.11-.34-2.22.24-2.82,1.15-1.01,1.52-.88,2.94-.17,4.54.48,1.09,1.81,1.3,2.82,1.15,1.96-.29,3.28-1.8,3.84-3.61.3-.97-.18-2.37-1.15-2.82-5.44-2.52-7.76,4.07-8.66,8.15-.47,2.13-.78,4.28-1.07,6.44-.42,3.08-1.12,6.12-1.76,9.16-1.05,4.99-2.07,10.03-2.28,15.14l4.91-.66c-.69-1.88-1.21-3.81-1.81-5.72-.27-.85-.56-1.68-.91-2.5-.39-.91-.45-1.91-.85-3.05-.45-1.28-1.69-2.12-3.08-1.75-3.21.88-4.28,3.97-5.29,6.79-.46,1.27.52,2.74,1.75,3.08,1.4.39,2.6-.48,3.08-1.75.13-.35.22-.66.29-1.03.23-1.22-.24-2.46-1.45-2.95-1.03-.42-2.63-.14-3.12,1.02-.64,1.51-1.3,3.01-1.97,4.5l4.57,1.93c.65-1.82,1.31-3.64,1.82-5.51l-4.57.6c.51.79,1.13,1.4,2.07,1.65.49.13,1.25.09,1.5.22.95.49,2.27.46,3.03-.39.57-.63,1.14-1.16,1.85-1.62l-3.42-.9c.2.33.38.65.52,1.01.39,1.05,1.24,1.84,2.41,1.84,1,0,2.26-.77,2.41-1.84-.03-.2.02-.38.14-.52l-4.57-.6c.59,1.57.93,3.19,1.29,4.83.63,2.88,4.74,2.03,4.91-.66s.62-5.2.68-7.82c.03-1.33-.06-2.66-.3-3.97-.14-.76-.32-1.49-.86-2.07-.33-.36-.74-.65-1.08-1.01-.57-.59-1.64-.96-2.43-.64-2.45.96-2.63,3.49-2.49,5.81.12,1.99.46,3.95.77,5.91.26,1.67,2.4,2.18,3.67,1.49.19-.1.37-.2.56-.3l-3.67-1.49c.11.4.09.36-.08.82l4.57-.6c-.62-1.18-.72-2.62-.95-3.92-.3-1.65-.81-3.26-1.84-4.6-2.06-2.69-5.59-3.5-7.85-.59-1.59,2.04-2.4,4.76-3.33,7.16-1.02,2.64-1.92,5.36-2.4,8.16-.56,3.26-.72,6.82,1.06,9.76.54.9,1.78,1.51,2.82,1.15,4.97-1.7,6.47-7.5,8.59-11.71l-4.57-.6c1.29,4.01.41,8.42,2.24,12.32.75,1.58,2.31,2.86,4.15,2.41s2.74-2.35,3.3-3.98c2.86-8.28-.53-17.09,1.36-25.48l-4.18,1.1c1.5,1.25,2.5,3.01,3.85,4.41,1.74,1.8,3.73,2.75,6.25,2.4,1.87-.26,2.38-3.02,1.1-4.18-3.72-3.37-8.08-7.3-13.25-8.05-2.39-.35-4.67.47-6.68,1.76-1.01.65-1.9,1.47-2.77,2.29-.67.64-1.4,1.47-2.29,1.81l2.82,3.67c1.34-2.81,4.59-4.11,6.06-6.89s.57-7.01-1.1-9.68c-1.45-2.3-5.53-.86-4.57,1.93,2.18,6.34,8.97,10.86,15.62,8.18,5.99-2.42,9.47-9.68,5.76-15.48-3.27-5.12-10.12-6.33-15.58-4.42-2.56.9-5.07,2.47-6.37,4.94-1.36,2.6-1.33,5.85.13,8.41,2.93,5.14,10.39,6.23,15.4,3.86,3.08-1.46,5.2-4.66,4.64-8.11s-3.32-5.77-6.28-6.94c-3.13-1.24-7.3-.88-9.75,1.61-2.77,2.82-1.16,7.01,2.07,8.65,3.71,1.88,11.55,1.62,12.78-3.37.68-2.77-1.33-5.96-4-6.8s-5.64.7-7.47,2.64-3.22,4.81-2.23,7.48c1.27,3.43,5.14,4.21,8.15,2.59,2.77-1.49,4.2-4.74,3.08-7.73-.99-2.65-3.65-4.21-6.44-4.14s-5.44,1.61-6.53,4.23-.46,5.68,2.12,7.07c4.35,2.33,11.14-.86,10.78-6.17-.34-5.03-6.03-5.71-9.83-4.19-1.88.75-3.75,1.95-4.65,3.84-1.11,2.32-.34,4.77,1.43,6.51,1.51,1.49,3.67,2.76,5.81,1.87,1.84-.77,2.57-2.7,2.7-4.56.23-3.32-1.71-8.16-5.84-7.19-2.54.6-4.34,3.47-4.38,5.94-.05,3.18,2.21,6.55,4.94,8.07,5.8,3.23,14.65-1.94,14.67-8.56.02-5.59-5.72-10.28-11.05-10.44-2.79-.08-5.26,1.32-6.71,3.69-1.68,2.75,2.64,5.27,4.32,2.52h0Z"/>
  <path class="cls-10" d="m339.34,409.94c1.08-2.39,3.02-4.18,5.59-4.83.09-.02,1.7-.31,1.69-.21,0,.09-.87-.73-.55-.74.12,0-.08.65-.08.62-.35,1.15-1.57,2.04-2.58,2.59-2.13,1.16-1.22,4.79,1.26,4.66,1.09-.06,1.75,1.11,1.73,2.19-.02.96-.47,1.86-.95,2.66s-1.35,1.53-1.76,2.34c-.45.39-.09.42,1.1.09-.11-.13-.19-.28-.26-.45-.14-.34-.2-.77-.26-1.13-.18-1.13-.2-2.32-.26-3.46-.14-2.48-.18-4.95-.13-7.43l-4.91.66c.61,3.48.72,7.05.39,10.57-.24,2.6-.51,5.88-2.69,7.63-1.05.85-.88,2.65,0,3.54,1.04,1.04,2.48.85,3.54,0,3.02-2.43,3.64-6.62,4.06-10.23.5-4.29.28-8.58-.47-12.83-.5-2.85-4.86-2.07-4.91.66-.07,3.76-.03,7.57.44,11.31.23,1.83.76,3.69,2.21,4.94,1.76,1.52,4.08,1.23,5.69-.33,2.43-2.35,4.54-6.08,4.1-9.55s-3.14-6.36-6.65-6.18l1.26,4.66c2.2-1.2,4.26-3.26,4.92-5.74.78-2.96-.85-5.85-4.04-6.03-4.89-.27-9.83,3.13-11.8,7.5-.55,1.23-.35,2.69.9,3.42,1.07.63,2.86.34,3.42-.9h0Z"/>
  <path class="cls-10" d="m353.48,412.41c3.52,1.03,7.55-.59,9.16-3.94.9-1.87,1.42-4.52-.07-6.23s-4.09-1.62-5.99-.71c-3.35,1.6-4.42,5.79-3.67,9.17.68,3.04,3.06,5.82,6.13,6.58,3.4.85,7.28-.55,9.04-3.66.64-1.14.31-2.78-.9-3.42s-2.73-.32-3.42.9c-.05.09-.1.18-.16.26-.03.05-.3.49-.07.12.19-.31.03-.04-.05.04-.07.07-.14.15-.21.22s-.16.13-.22.2c-.23.24.52-.33.09-.07-.2.12-.39.24-.59.35-.12.07-.39.11-.05.04.41-.09-.05.02-.13.04-.19.07-.39.12-.59.17-.1.02-.2.04-.3.06-.31.07-.04-.12.21-.02-.18-.07-.57.03-.77.03-.1,0-.2-.01-.31-.02-.3,0-.06-.14.21.03-.13-.09-.44-.09-.6-.13-.1-.03-.19-.06-.29-.09-.42-.11.15.03.17.08-.03-.08-.62-.32-.72-.39.01,0-.27-.16-.27-.19,0,0,.4.35.12.08-.18-.17-.36-.33-.53-.52-.07-.08-.14-.17-.22-.25-.22-.25.26.39.09.11-.14-.24-.3-.46-.43-.71-.05-.1-.1-.2-.15-.3-.16-.29.16.46.05.14-.08-.24-.17-.47-.24-.71-.06-.22-.1-.43-.14-.65-.05-.24.08-.25.02.17.02-.14-.03-.35-.03-.5,0-.22,0-.44.01-.67s.13-.27-.03.17c.04-.1.04-.26.07-.37.05-.25.13-.48.2-.73.12-.44-.03,0-.05.07.04-.17.17-.35.26-.5.01-.02.15-.29.2-.31-.21.1-.24.27-.05.07.08-.09.18-.18.26-.27.37-.42-.28.14,0-.02.11-.06.23-.12.32-.19.27-.2-.41.11-.09.02.12-.03.24-.08.36-.11.09-.02.18-.04.27-.06-.33.04-.4.06-.2.05.09.01.5.04.12-.02l-.16-.02c.21.06.22.05.03-.03l-.14-.07c.19.11.19.11.02,0l-.13-.09c-.27-.25-.42-.54-.44-.88.13.14-.09.56-.03.72-.03-.07.13-.57,0-.13-.05.17-.08.35-.14.52-.02.06-.13.31-.12.34-.05-.13.21-.45-.01-.03-.06.11-.12.21-.18.31-.05.08-.42.51-.17.26s-.04.02-.1.09c-.1.11-.21.21-.32.31-.34.33.06-.02.08-.05-.07.12-.35.23-.47.3-.06.03-.25.16-.33.17.28-.11.34-.14.17-.08-.09.03-.18.06-.27.09-.12.04-.24.07-.36.1-.09.02-.18.04-.27.05-.19.03-.12.02.2-.03-.15.11-.66,0-.84,0-.36.01.59.15.02,0-.18-.05-.36-.08-.54-.14-1.25-.37-2.78.44-3.08,1.75s.4,2.68,1.75,3.08h0Z"/>
  <path class="cls-10" d="m374.9,405.18c-.02.18-.26.66-.04.3.26-.43-.29.17.13-.13s-.34.13.18-.13c.16-.08.31-.18.47-.26.15-.07.13-.06-.06.02.12-.05.24-.09.37-.13.21-.07.41-.13.62-.19.25-.07.51-.12.76-.16-.42.07.36-.03.37-.03.51-.03,1.04-.03,1.54.04-.37-.05-.02.01.15.06.1.02.68.25.48.15-.26-.13.25.17.3.2-.44-.29.04.07.13.16.43.41-.17-.35.13.16.11.19.21.37.31.56-.2-.38,0,.03.06.21s.1.34.14.52c.03.12.05.24.07.36-.02-.2-.02-.21,0-.03.02.21.03.42.04.63,0,.25,0,.5-.01.76,0,.02-.1.79-.02.34-.09.5-.2,1-.34,1.49-.13.46-.3.91-.47,1.35-.06.16-.06.16,0,0l-.11.24c-.11.24-.22.48-.33.72-.46.95-.96,1.87-1.48,2.79h4.32c.12.2.18.41.18.65,0-.22,0-.21-.02.01-.04.22-.03.23.01,0,.03-.11.06-.22.1-.33.11-.34.25-.67.36-1.01.37-1.17.36-2.42-.24-3.52-1.25-2.27-4.59-2.51-6.77-1.7-2.65.98-4.44,4.09-2.87,6.75,1.36,2.3,4.15,2.34,6.47,1.89,1.29-.25,2.14-1.86,1.75-3.08-.44-1.37-1.7-2.01-3.08-1.75-.13.02-.25.04-.38.07.56-.13.13-.02-.03,0-.26.02-.52,0-.79,0-.19-.01-.13,0,.19.03l-.18-.04s-.31-.11.1.05c-.28-.11-.03-.06.09.07.05.06.3.58.23.37-.07-.25,0,.29.01.33-.03.17-.03.19,0,.05.05-.17.02-.13-.08.14l.1-.17-.16.18c.14-.03.2-.19-.05-.02.12-.09.25-.16.39-.23-.4.21.02.02.14-.01.06-.01.51-.08.23-.05-.32.03.36,0,.35,0,.03,0,.41,0,.41.01l-.29-.05.19.04.18.05c-.28-.14-.33-.16-.17-.08.2.13-.19-.18-.23-.24-.15-.19-.17-.36-.24-.58-.02-.2-.02-.24-.02-.1,0,.19.01.11.05-.26.01,0-.17.61-.19.67-.52,1.53-.78,2.82-.06,4.36.81,1.72,3.46,1.53,4.32,0,2.62-4.67,5.45-11.04,1.5-15.84-1.95-2.38-5.28-2.7-8.12-2.19-1.3.23-2.64.7-3.72,1.47-1.41,1.01-2.21,2.3-2.4,4.04-.14,1.3,1.25,2.56,2.5,2.5,1.48-.07,2.35-1.1,2.5-2.5h0Z"/>
  <path class="cls-10" d="m387.3,404.67c.51,2.13.96,4.27,1.35,6.42.19,1.06.36,2.11.52,3.17.04.25.07.51.11.76,0,.06.11.78.05.36.08.6.15,1.19.22,1.79.15,1.29,1.04,2.57,2.5,2.5s2.41-1.1,2.5-2.5c.04-.7.09-1.4.15-2.09.03-.37.07-.74.12-1.1-.04.27-.01.11.02-.07.04-.2.07-.4.11-.61.12-.64.28-1.27.49-1.89.05-.13.09-.26.14-.4.22-.62-.14.25.03-.08.14-.28.27-.57.43-.84.14-.24.29-.47.45-.71.25-.39-.14.13.05-.07.1-.1.18-.21.28-.31.22-.23.45-.44.68-.65-.17.15-.2.14,0,.01.12-.08.24-.15.36-.23.15-.09.32-.16.47-.25.3-.18-.35.1-.01,0,.3-.09.6-.18.91-.26.28-.07.17,0-.04,0,.14,0,.28-.02.42-.02.07,0,.65.02.29,0s.25.06.28.07c1.27.29,2.77-.39,3.08-1.75.29-1.28-.38-2.76-1.75-3.08-3.78-.87-7.36,1.05-9.44,4.18s-2.29,6.67-2.5,10.14h5c-.54-4.66-1.33-9.27-2.43-13.83-.31-1.27-1.82-2.15-3.08-1.75-1.32.43-2.07,1.71-1.75,3.08h0Z"/>
  <path class="cls-10" d="m351.91,467.17c-.98,1-1.84,2.16-2.48,3.41-.26.51-.37,1.02-.3,1.59.07.52.29,1.07.69,1.44.32.29.69.51,1.1.64.33.1.66.12,1,.04.33-.02.64-.11.93-.3.29-.21.59-.42.88-.63l-3.67-2.82c-.34.81-.67,1.62-1.01,2.43-.12.44-.12.89,0,1.33.12.42.33.79.64,1.1.63.63,1.57.88,2.43.64,1.06-.29,2.11-.75,3.01-1.37.52-.36,1.03-.75,1.49-1.18.48-.45.88-.97,1.28-1.5.37-.48.4-1.38.25-1.93-.16-.58-.61-1.21-1.15-1.49-.58-.31-1.28-.46-1.93-.25l-.6.25c-.38.22-.67.52-.9.9l-.05.06.39-.51c-.41.53-.89,1-1.41,1.41l.51-.39c-.57.44-1.19.8-1.85,1.08l.6-.25c-.32.13-.65.24-.98.34l3.08,3.08c.34-.81.67-1.62,1.01-2.43l.09-.66-.09-.66c-.14-.53-.47-.97-.9-1.3-.36-.28-.73-.43-1.18-.49-.51-.07-1.16-.02-1.59.3-.29.21-.59.42-.88.63l3.42,3.42c.34-.65.73-1.27,1.18-1.86l-.39.51c.28-.37.59-.71.91-1.05.45-.46.73-1.12.73-1.77,0-.61-.27-1.35-.73-1.77s-1.1-.76-1.77-.73-1.3.25-1.77.73h0Z"/>
  <path class="cls-10" d="m253.45,317.66c-1.05,4.08-.34,8.66,2.17,12.09s6.2,5.47,10.4,5.98c1.3.16,2.56-1.26,2.5-2.5-.07-1.49-1.1-2.33-2.5-2.5.5.06-.02,0-.12-.03-.19-.03-.37-.07-.56-.12-.37-.09-.73-.19-1.09-.31-.18-.06-.35-.13-.53-.2-.26-.09.27.15-.13-.06-.34-.17-.68-.34-1.01-.53s-.64-.4-.95-.62c-.37-.26.07.09-.12-.1-.14-.13-.29-.24-.43-.37-.28-.25-.55-.52-.8-.8-.13-.14-.24-.29-.37-.43-.27-.29.3.45-.09-.13-.23-.33-.45-.66-.64-1.01-.08-.14-.16-.28-.23-.43,0-.01-.33-.71-.15-.29-.3-.71-.52-1.46-.67-2.21-.04-.2-.08-.4-.11-.6.06.45,0-.1,0-.18-.03-.41-.04-.81-.03-1.22,0-.2.01-.41.03-.61,0-.06.08-.69.03-.39s.06-.33.07-.39c.05-.24.11-.48.17-.71.33-1.26-.41-2.77-1.75-3.08s-2.73.39-3.08,1.75h0Z"/>
  <path class="cls-10" d="m155.07,356.33c-9.78,1.7-18.36,8.35-23.22,16.9-5.47,9.63-6.38,21.46-3.65,32.08,4.98,19.35,21.77,34.47,41.58,37.11,11.75,1.57,24-.99,34.01-7.39,2.7-1.73.2-6.06-2.52-4.32-15.83,10.13-37.32,9.53-52.15-2.22-14.34-11.36-21.91-31.76-14.69-49.23,3.81-9.22,12.05-16.4,21.96-18.12,1.33-.23,2.08-1.86,1.75-3.08-.39-1.41-1.74-1.98-3.08-1.75h0Z"/>
  <path class="cls-10" d="m437.24,364.53c7.95-.43,14.38,5.41,18.19,11.87,4.59,7.79,6.15,17.3,5.27,26.23-1.67,16.83-13.65,31.98-29.69,37.42-8.11,2.75-18.3,3.06-25.08-2.95-2.4-2.13-5.95,1.4-3.54,3.54,7.14,6.33,17.13,7.36,26.16,5.31s17.3-7.17,23.62-13.78c6.7-7,11.34-15.9,12.99-25.47,1.77-10.28.48-21.14-4.16-30.53s-13.17-17.21-23.75-16.63c-3.2.18-3.22,5.18,0,5h0Z"/>
</svg>