<?xml version="1.0" encoding="UTF-8"?>
<svg id="Layer_1" data-name="Layer 1" xmlns="http://www.w3.org/2000/svg" viewBox="0 0 595.28 841.89">
  <defs>
    <style>
      .cls-1 {
        fill: none;
      }

      .cls-1, .cls-2, .cls-3, .cls-4, .cls-5, .cls-6, .cls-7, .cls-8, .cls-9, .cls-10, .cls-11 {
        stroke: #231f20;
        stroke-miterlimit: 10;
      }

      .cls-1, .cls-3 {
        stroke-linecap: round;
      }

      .cls-1, .cls-3, .cls-4, .cls-5, .cls-6, .cls-7, .cls-8, .cls-9, .cls-10, .cls-11 {
        stroke-width: 3px;
      }

      .cls-12 {
        fill: #fff;
      }

      .cls-13, .cls-2 {
        fill: #231f20;
      }

      .cls-3, .cls-4 {
        fill: #99633b;
      }

      .cls-5 {
        fill: #342a13;
      }

      .cls-6 {
        fill: #bcbec0;
      }

      .cls-7 {
        fill: #a7a9ac;
      }

      .cls-8 {
        fill: #1c75bc;
      }

      .cls-9 {
        fill: #2b3990;
      }

      .cls-10 {
        fill: #9a7e41;
      }

      .cls-11 {
        fill: #ed1c24;
      }
    </style>
  </defs>
  <line class="cls-1" x1="464.08" y1="403.49" x2="402.39" y2="411.87"/>
  <path class="cls-4" d="m249.62,269.79c13.32,3.61,9.17,32.24,5.36,46.29-3.81,14.04,2,7.1-11.32,3.49-13.32-3.61-29.66-5.39-32.01-19.61-2.35-14.2,24.65-33.78,37.97-30.17Z"/>
  <path class="cls-10" d="m244.07,284.35c7.22,1.21,6.87,14.52,5.76,21.11-1.11,6.59,1.5,3.2-5.72,1.99-7.22-1.21-15.91-1.49-18.05-7.95-2.14-6.45,10.79-16.36,18.02-15.15Z"/>
  <path class="cls-4" d="m390.67,294.64c-.55,13.78-29.41,16.13-43.96,15.55-14.55-.58-6.48,3.53-5.93-10.24.55-13.78-1.36-30.09,11.99-35.56,13.33-5.46,38.45,16.47,37.91,30.25Z"/>
  <path class="cls-10" d="m375.96,292.5c.68,7.29-12.28,10.36-18.94,10.98-6.66.62-2.71,2.27-3.39-5.01-.68-7.29-2.65-15.75,3.05-19.47,5.69-3.72,18.6,6.23,19.28,13.51Z"/>
  <path class="cls-3" d="m408.38,513.19c-19.66,82.17-46.1,64.68-95.66,65.56-60.38,1.07-82.26,11.82-105.31-51.18-33.32-91.08-28.16-252.58,103.36-252.67,112.98-.08,115.14,164.99,97.6,238.29Z"/>
  <ellipse class="cls-5" cx="304.18" cy="354.45" rx="25.89" ry="21.75"/>
  <ellipse class="cls-2" cx="304.22" cy="337.13" rx="8.5" ry="6.69"/>
  <line class="cls-1" x1="143.2" y1="400.48" x2="190.16" y2="406.49"/>
  <line class="cls-1" x1="295.72" y1="515.48" x2="312.73" y2="524.03"/>
  <line class="cls-1" x1="310.02" y1="511.81" x2="299.01" y2="525.86"/>
  <path class="cls-9" d="m412.42,427.28c0-66,16.47-58.42,36.78-58.42s46.76-8.39,46.76,58.35-26.45,58.5-46.76,58.5-36.78,5.41-36.78-58.42Z"/>
  <path class="cls-9" d="m400.28,427.2c-.04-35.7,15.5-58.42,34.63-58.42s28.69,26.06,28.69,58.33-9.56,58.45-28.69,58.52c-19.06.08-34.59-25.29-34.63-58.42Z"/>
  <path class="cls-9" d="m194.2,428.35c0,66-16.47,58.42-36.78,58.42s-46.76,8.39-46.76-58.35,26.45-58.5,46.76-58.5,36.78-5.41,36.78,58.42Z"/>
  <path class="cls-9" d="m206.34,428.43c.04,35.7-15.5,58.42-34.63,58.42s-28.69-26.06-28.69-58.33,9.56-58.45,28.69-58.52c19.06-.08,34.59,25.29,34.63,58.42Z"/>
  <rect class="cls-7" x="86.56" y="419.06" width="24.11" height="12.46"/>
  <path class="cls-8" d="m194.2,428.35c-.89,22.7-6.27,35.32-19.06,35.32s-19.19-15.72-19.19-35.18,6.4-35.26,19.19-35.3c12.75-.05,19.86,14.62,19.06,35.17Z"/>
  <rect class="cls-7" x="495.95" y="419.06" width="24.11" height="12.46"/>
  <path class="cls-8" d="m451.04,427.12c-.89,22.7-6.27,35.32-19.06,35.32s-19.19-15.72-19.19-35.18,6.4-35.26,19.19-35.3c12.75-.05,19.86,14.62,19.06,35.17Z"/>
  <path class="cls-11" d="m371.26,298.28c29.55,23.29-40.8,17.85-74.82,17.85s-89.24,6.84-58.09-17.02c6.58-5.04,24.07-10.6,58.09-10.6s66.46,3.18,74.82,9.77Z"/>
  <rect class="cls-6" x="172.66" y="419.06" width="262.19" height="12.46"/>
  <path class="cls-12" d="m370.17,300.49c28.85,10.78-39.83,8.27-73.04,8.27s-87.12,3.17-56.71-7.88c6.42-2.33,23.5-4.91,56.71-4.91s64.88,1.47,73.04,4.52Z"/>
  <path class="cls-13" d="m255.3,331.96c5.07,3.25,9.74,7.03,14.01,11.28l1.77-4.27c-7.48.66-14.94,1.45-22.39,2.39-1.34.17-2.5,1.03-2.5,2.5,0,1.22,1.15,2.67,2.5,2.5,7.45-.94,14.91-1.73,22.39-2.39,2.08-.18,3.4-2.64,1.77-4.27-4.56-4.54-9.6-8.59-15.02-12.07-2.72-1.74-5.23,2.58-2.52,4.32h0Z"/>
  <path class="cls-13" d="m346.03,328.73c-3.25,3.69-6.49,7.39-9.74,11.08-1.44,1.64-.46,4.17,1.77,4.27,7.05.3,14.08.83,21.1,1.6,1.34.15,2.5-1.25,2.5-2.5,0-1.47-1.15-2.35-2.5-2.5-7.01-.76-14.05-1.29-21.1-1.6l1.77,4.27c3.25-3.69,6.49-7.39,9.74-11.08.89-1.01,1-2.54,0-3.54-.91-.91-2.64-1.02-3.54,0h0Z"/>
  <path class="cls-13" d="m267.89,376.59c7.11,1.71,13.68,5.17,19.13,10.05,1,.9,2.54.99,3.54,0,.92-.92,1.01-2.63,0-3.54-6.08-5.45-13.39-9.42-21.34-11.34-3.13-.75-4.46,4.07-1.33,4.82h0Z"/>
  <path class="cls-13" d="m186.25,481.87c-.87,5.53,3.58,10.66,9.27,10.35,6.09-.33,10.12-5.37,12.72-10.37,5.42-10.4,10.02-21.78,11.72-33.44.98-6.7.99-13.41-.34-20.07-.27-1.32-1.84-2.09-3.08-1.75-1.38.38-2.01,1.75-1.75,3.08,1.97,9.8.52,19.87-2.41,29.32-1.49,4.81-3.35,9.5-5.45,14.09-1.91,4.19-3.78,9.26-7.38,12.31-1.55,1.32-3.96,2.4-5.99,1.58-1.37-.55-2.74-2.2-2.5-3.77.21-1.33-.34-2.69-1.75-3.08-1.19-.33-2.86.4-3.08,1.75h0Z"/>
  <path class="cls-13" d="m420.44,480.76c-8.07,5.39-17.29-.71-22.09-7.5-5.66-8.02-8.3-17.68-9.69-27.28-.81-5.6-1.15-11.26-1.4-16.91-.14-3.2-5.14-3.22-5,0,.49,10.93,1.37,22.08,4.84,32.52,3.21,9.66,9,20.32,18.82,24.54,5.46,2.35,12,2.32,17.05-1.05,2.66-1.78.16-6.11-2.52-4.32h0Z"/>
  <path class="cls-13" d="m248.96,580.39l.31,28.44c0,.52-.12,1.23.02,1.73-.12.94.27.78,1.17-.46-.27,0-.54,0-.81-.02-1.15-.04-2.31-.09-3.46-.14-2.31-.09-4.62-.18-6.93-.27-4.78-.19-9.57-.38-14.35-.56-3.22-.13-3.21,4.87,0,5,5.28.21,10.55.41,15.83.62,2.64.1,5.28.21,7.92.31,1.23.05,2.53.22,3.67-.37s1.77-1.63,1.91-2.89c.27-2.49,0-5.14-.02-7.66l-.09-7.91-.18-15.83c-.04-3.22-5.04-3.22-5,0h0Z"/>
  <path class="cls-13" d="m355.3,581.59c2.4,8.52,4.03,17.23,4.81,26.04.11,1.28,1.05,2.59,2.5,2.5,8.16-.53,16.3-1.47,24.37-2.78,1.33-.22,2.08-1.87,1.75-3.08-.39-1.42-1.74-1.96-3.08-1.75-7.64,1.24-15.33,2.09-23.05,2.6l2.5,2.5c-.82-9.26-2.47-18.42-4.99-27.37-.87-3.09-5.7-1.78-4.82,1.33h0Z"/>
</svg>