<?xml version="1.0" encoding="UTF-8"?>
<svg id="Layer_1" data-name="Layer 1" xmlns="http://www.w3.org/2000/svg" viewBox="0 0 595.28 841.89">
  <defs>
    <style>
      .cls-1, .cls-2 {
        fill: none;
      }

      .cls-1, .cls-2, .cls-3, .cls-4, .cls-5, .cls-6, .cls-7, .cls-8, .cls-9, .cls-10, .cls-11 {
        stroke: #231f20;
        stroke-miterlimit: 10;
      }

      .cls-1, .cls-2, .cls-4, .cls-5, .cls-6, .cls-7, .cls-8, .cls-9, .cls-10, .cls-11 {
        stroke-width: 3px;
      }

      .cls-1, .cls-4 {
        stroke-linecap: round;
      }

      .cls-12 {
        fill: #ed1c24;
      }

      .cls-13, .cls-10 {
        fill: #fed411;
      }

      .cls-14, .cls-3 {
        fill: #231f20;
      }

      .cls-4, .cls-5 {
        fill: #99633b;
      }

      .cls-6 {
        fill: #342a13;
      }

      .cls-7 {
        fill: #a97029;
      }

      .cls-8 {
        fill: #9a7e41;
      }

      .cls-9 {
        fill: #fdecaa;
      }

      .cls-11 {
        fill: #73431b;
      }
    </style>
  </defs>
  <path class="cls-5" d="m215,139.2c20.72,5.34,14.27,47.73,8.34,68.52-5.93,20.79,3.11,10.51-17.61,5.17-20.72-5.34-46.15-7.98-49.81-29.03-3.66-21.02,38.35-50,59.08-44.66Z"/>
  <path class="cls-8" d="m206.37,160.76c11.24,1.8,10.68,21.5,8.96,31.25-1.72,9.75,2.34,4.74-8.9,2.94-11.24-1.8-24.76-2.2-28.09-11.76-3.32-9.55,16.79-24.22,28.03-22.43Z"/>
  <path class="cls-5" d="m434.47,175.99c-.85,20.39-45.76,23.88-68.4,23.02-22.64-.86-10.09,5.23-9.23-15.17s-2.11-44.55,18.65-52.63c20.74-8.08,59.83,24.38,58.98,44.78Z"/>
  <path class="cls-8" d="m411.58,172.82c1.06,10.78-19.11,15.33-29.47,16.25-10.36.92-4.22,3.36-5.27-7.42-1.06-10.78-4.12-23.32,4.75-28.83,8.86-5.51,28.94,9.22,29.99,20Z"/>
  <path class="cls-4" d="m462.03,499.51c-30.58,121.64-71.73,95.75-148.84,97.05-93.94,1.58-127.99,17.49-163.85-75.76-51.84-134.83-43.82-373.9,160.82-374.04,175.79-.12,179.14,244.24,151.86,352.75Z"/>
  <ellipse class="cls-6" cx="299.89" cy="264.53" rx="40.28" ry="32.19"/>
  <ellipse class="cls-3" cx="346.54" cy="225.8" rx="10.41" ry="9.9"/>
  <ellipse class="cls-3" cx="253.38" cy="225.8" rx="10.41" ry="9.9"/>
  <ellipse class="cls-3" cx="299.96" cy="238.89" rx="13.23" ry="9.9"/>
  <line class="cls-1" x1="286.73" y1="502.9" x2="313.19" y2="515.57"/>
  <line class="cls-1" x1="308.98" y1="497.48" x2="291.86" y2="518.28"/>
  <path class="cls-7" d="m437.97,501.46c-11.38,77.26-15.04,132.76-132.36,133.02-137.56.3-132.45-52.99-149.63-134.17-26.98-127.5,54.91-141.83,146.05-141.83s155.25,11.9,135.94,142.98Z"/>
  <path class="cls-7" d="m422.79,391.92c0,28.17-50.03,39.97-125.71,39.97s-134.02-12.16-134.02-40.33,66.53-33.07,138.96-33.07c50.81,0,120.76,5.27,120.76,33.44Z"/>
  <path class="cls-11" d="m371.82,247.69c47.09-.49,22.7,40.23,4.97,85.26-22.73,57.73-20.96,76.7-58.8,57.5-6.33-3.21-.43-35.87,14.44-75.3,14.87-39.42,19.6-67.27,39.4-67.47Z"/>
  <path class="cls-10" d="m400.84,392.25c0,7.17-47.54,18.42-106.19,18.42-58.65,0-106.19-11.26-106.19-18.42,0-7.17,47.54-12.97,106.19-12.97,58.65,0,106.19,5.81,106.19,12.97Z"/>
  <path class="cls-2" d="m427.9,557.17c-38.72,37.07-248.06,24.67-259.06-3.68"/>
  <path class="cls-11" d="m286.02,401.45c0-29.67,70.01-41.33,90.8-4.52"/>
  <line class="cls-2" x1="438.95" y1="473.85" x2="427.9" y2="557.17"/>
  <path class="cls-9" d="m433.42,537.11c-3.35,36.87-41.5,42.04-119.55,43.97-137.51,3.4-145.59-11.4-149.63-40.73-16.74-121.77-45.59-38.24,182.54-62.2,117.73-12.36,96.18-46.26,86.63,58.96Z"/>
  <path class="cls-14" d="m183.2,503.67c1.68,16.96,4.77,33.76,9.3,50.19.36,1.3,1.77,2.1,3.08,1.75,1.41-.39,1.98-1.74,1.75-3.08-1.19-6.82-2.49-15.77,3.87-20.58,2.31-1.75,6.11-2.9,7.9.09.91,1.51,1.36,3.29,1.87,4.96.63,2.06,1.22,4.13,1.74,6.22,1.21,4.79,2.15,9.66,2.75,14.56.17,1.34,1.03,2.5,2.5,2.5,1.22,0,2.67-1.15,2.5-2.5-.65-5.27-1.58-10.5-2.87-15.66-.62-2.48-1.32-4.93-2.09-7.37-.65-2.05-1.3-4.21-2.58-5.97-3.09-4.22-8.5-4.37-12.84-2.04-3.8,2.04-6.43,5.74-7.76,9.78-1.85,5.62-.8,11.66.19,17.33l4.82-1.33c-4.41-16-7.49-32.35-9.12-48.86-.13-1.34-1.05-2.5-2.5-2.5-1.25,0-2.63,1.15-2.5,2.5h0Z"/>
  <path class="cls-14" d="m236.45,510.38c-5.58,1.07-8.9,7.14-9.69,12.33-.84,5.61.94,11.19,5.62,14.59,4.04,2.93,9.67,3.67,14.19,1.46s6.96-7.59,6.43-12.49c-.7-6.4-5.42-11.18-10.42-14.75-1.1-.79-2.78-.19-3.42.9-.74,1.26-.2,2.63.9,3.42,3.17,2.27,6.42,5.25,7.6,9.09.91,2.95.33,6.56-2.23,8.66s-6.12,1.84-8.89.41c-3.35-1.73-5.09-4.97-5.02-8.76s2.05-9.22,6.26-10.03c1.33-.25,2.08-1.85,1.75-3.08-.38-1.39-1.74-2-3.08-1.75h0Z"/>
  <path class="cls-14" d="m261.48,537.64c-.15,6.92,1.51,13.7,4.67,19.85,1.11,2.17,4.82,1.2,4.66-1.26-.42-6.33-.84-14.76,5.65-18.35,1.95-1.08,4.72-1.24,6.55-.18,1,.58,1.42,1.48,1.66,2.79.36,1.92.47,3.91.69,5.85.54,4.7,1.07,9.4,1.61,14.1.15,1.34,1.04,2.5,2.5,2.5,1.23,0,2.65-1.15,2.5-2.5-.55-4.86-1.11-9.73-1.66-14.59-.49-4.31-.31-9.41-4.27-12.15-2.87-1.99-6.97-2.15-10.19-.99-3.81,1.38-6.78,4.51-8.39,8.18-2.14,4.87-1.98,10.14-1.64,15.33l4.66-1.26c-2.76-5.37-4.11-11.3-3.99-17.33.07-3.22-4.93-3.22-5,0h0Z"/>
  <path class="cls-14" d="m299.74,523.17c3.97,1.67,8.21,3.32,12.6,2.8,3.63-.44,7.45-2.21,9.03-5.71s.35-7.56-2.35-10.17c-3-2.9-7.47-3.83-11.52-3.38-2.14.24-4.33.66-6.25,1.67s-3.18,2.66-4.02,4.55c-1.44,3.23-2.15,6.79-1.87,10.34.58,7.31,4.88,13.79,11.8,16.48,6.7,2.6,15.72,1.47,20.44-4.34.85-1.05,1.02-2.51,0-3.54-.88-.88-2.68-1.05-3.54,0-2.94,3.61-7.96,4.79-12.43,3.95-4.98-.94-9-4.24-10.56-9.13-.75-2.34-.98-4.85-.62-7.29.34-2.27,1.11-5.67,3.39-6.75,2.64-1.25,6.24-1.42,9.01-.55,2.07.66,4.11,2.41,4.25,4.65.16,2.59-2.87,3.93-5.07,4.25-3.75.54-7.6-1.24-10.96-2.65-1.25-.52-2.75.56-3.08,1.75-.4,1.44.5,2.55,1.75,3.08h0Z"/>
  <path class="cls-14" d="m346.02,510.68c-.42,6.31.55,13.7,7.46,16.02,6.56,2.21,13.77-2.15,16.66-7.99,1.86-3.75,2.44-7.85,2.99-11.96l-4.91.66c2.8,9.85,3.12,20.4,2.91,30.58-.18,8.47-2.06,17.94-9.72,22.87-3.21,2.07-7.18,3.05-10.95,2.14-4.04-.98-6.18-4.05-7.12-7.95s-.96-8.06,1.99-10.92c2.51-2.43,6.2-3.38,9.55-4.04,4.23-.84,8.55-1.16,12.8-1.87,4.99-.83,9.93-2,14.77-3.47,8.8-2.69,17.78-6.23,25.25-11.7,6.66-4.88,12.56-11.7,12.98-20.33.39-7.99-4.82-15.78-12.09-18.9s-16.57-1.2-21.8,4.94c-2.57,3.01-4,6.8-3.39,10.78s3.26,7.59,6.78,9.35c1.83.92,3.84,1.38,5.89,1.22,1.35-.1,2.5-1.08,2.5-2.5,0-1.27-1.15-2.6-2.5-2.5-3.26.25-6.12-1.82-7.32-4.83s-.25-5.95,1.79-8.23c4.74-5.31,12.78-6.22,18.62-2.25s8.02,11.58,5.32,18.05c-3.04,7.28-10.36,12.18-17.11,15.64-8.57,4.39-17.96,7.36-27.38,9.24-4.44.89-8.92,1.35-13.39,2.02-3.84.57-7.72,1.4-11.18,3.24s-6.44,5.17-7.27,9.23c-.91,4.41-.06,9.41,1.92,13.43,4.14,8.4,15.01,9.35,22.57,5.3,8.16-4.37,12.06-13.21,13.11-22.01.59-4.97.44-10.02.3-15.01s-.51-10.36-1.35-15.47c-.41-2.49-.96-4.95-1.65-7.38-.34-1.19-1.52-1.97-2.74-1.79-1.33.2-2,1.18-2.17,2.46-.83,6.27-2.4,13.87-9.65,15.33-2.55.51-5.14-.3-6.46-2.64-1.44-2.58-1.19-5.93-1-8.77.09-1.35-1.21-2.5-2.5-2.5-1.43,0-2.41,1.15-2.5,2.5h0Z"/>
  <path class="cls-13" d="m207.44,399.21c5.94,4.88,6.94,12.74,7.19,19.97.27,7.87.14,16.4,4.58,23.28,2.31,3.58,6.08,7.35,10.7,6.87s7.76-4.51,8.54-8.91c.85-4.79.8-9.81,1.14-14.66.27-3.92.78-8.13,3.82-10.93.6-.55,1.3-1.02,2.04-1.35.36-.16.75-.27,1.13-.37.18-.04.37-.07.55-.12.09,0,.18-.01.27-.01.45.03.29-.12-.49-.44-.07.09.1.67.11.78.09.58.15,1.15.23,1.73.19,1.4.37,2.8.56,4.2.69,5.19,1.38,10.38,2.07,15.57s1.36,10.22,2.04,15.33c.62,4.68,1.26,9.37,3.11,13.75,1.65,3.89,4.25,7.23,7.76,9.62,1.64,1.11,3.52,1.97,5.45,2.43,2.15.52,4.9.9,6.69-.7s1.9-4.22,2.25-6.38c.4-2.5.69-5.01.89-7.53.4-5,.45-10.03.51-15.05s.1-10.04.49-15.05c.19-2.4.45-4.78.85-7.15.26-1.56.53-3.4,1.51-4.61.18-.22.37-.39.5-.48.03-.02.34-.18.25-.17.87-.14,1.72.59,2.44.97,1.92,1,4.06,1.54,6.23,1.49,4.29-.09,8.54-2.33,10.5-6.26.9-1.82,1.37-3.84,1.14-5.87-.11-.99-.69-2.25-1.84-2.41-4.96-.71-9.9-.51-14.75.79-2.06.55-2.47,3.51-.6,4.57,2.15,1.21,4.3,2.43,6.46,3.64l.6-4.57c-5.11.7-10.32-.02-15.12-1.83v4.82c.66-.23,1.17-.3,1.87-.26v-5c-2.58.18-5.13.03-7.65-.53l.6,4.57c1.34-.96,2.75-1.46,4.4-1.46l-.66-4.91c-3.7.91-7.58,1.14-11.35.58-1.6-.24-3.13.63-3.16,2.41-.2,11.3-.4,22.59-.6,33.89l4.66-1.26c-3.26-5.73-4.97-12.13-4.92-18.73l-4.66,1.26c3.04,6.79,4.27,14.23,3.74,21.64l4.66-1.26c-5.31-8.06-8.19-17.43-8.03-27.1l-3.16,2.41c1.82.72,2.68,2.83,3.21,4.56.89,2.92,1.38,5.98,2.02,8.96,1.47,6.84,2.93,13.68,4.4,20.52.61,2.85,4.8,2.06,4.91-.66.5-12.65,1-25.3,1.5-37.95l-4.91.66c1.65,6.54,2.54,13.19,2.67,19.93.06,3.24,4.81,3.2,5,0,.36-6.13.72-12.26,1.08-18.39h-5c1.28,13.83,1.72,27.72,1.3,41.6l3.76-2.16-2.34-1.38c-2.04-1.2-4,.77-3.67,2.82.37,2.31.02,4.59-.75,6.77l4.57-.6c-1.61-2.2-2.67-4.56-3.17-7.23l-4.57,1.93c1.11,2.16,1.51,4.46,1.32,6.87l4.27-1.77c-4.35-4.53-7.29-10.4-7.85-16.69-.33-3.7-.05-7.41.18-11.11s.46-7.56.69-11.34c.47-7.73.94-15.45,1.41-23.18.21-3.42.59-7-.95-10.19-1.31-2.71-4.11-4.55-7.11-4.76-3.76-.26-6.6,2.56-6.96,6.18-.17,1.71.22,3.41.86,4.99s1.61,3.25,1.72,5l3.16-2.41c-2.9-.53-5.38-1.85-7.3-4.11l-3.54,3.54c1.74,1.5,3.14,3.22,4.13,5.3.13.28.3,1.12.5,1.29l.04.16.75-.98s-.19.04-.4.01c-.74-.08-1.59-.49-2.3-.83-3.81-1.8-7.12-4.54-9.39-8.1-.75-1.18-2.19-1.55-3.42-.9-3.36,1.77-6.39,4.19-8.76,7.17l4.18,1.1c-.72-3.53-.92-7.09-.68-10.68l-4.91.66c1.09,3.74,1.67,7.84.5,11.63l3.67-1.49c-.87-.38-1.24-1.12-2.3-1.69-1.86-1-3.7.23-4.23,2.09-1.01,3.57.55,7.22,1.39,10.65l4.18-2.43c-.8-.69-1.16-2-1.55-2.96-.55-1.35-1.03-2.72-1.46-4.11-.81-2.63-1.45-5.34-1.81-8.08l-4.91.66c1.41,4.24,2.13,8.59,2.11,13.06l4.91-.66c-.67-1.99-1.16-4.01-1.45-6.09l-4.57,1.93c.22.4.44.8.66,1.2,1.55,2.82,5.87.3,4.32-2.52-.22-.4-.44-.8-.66-1.2-.59-1.08-2.02-1.51-3.12-1.02-1.24.54-1.63,1.68-1.45,2.95.29,2.08.77,4.11,1.45,6.09.88,2.6,4.9,2.26,4.91-.66.02-4.88-.74-9.76-2.29-14.39-.39-1.17-1.48-1.98-2.74-1.79-1.1.16-2.33,1.21-2.17,2.46.44,3.34,1.1,6.63,2.13,9.85.49,1.53,1.06,3.04,1.68,4.52s1.2,3.23,2.48,4.32c1.86,1.59,4.8.1,4.18-2.43-.38-1.55-.88-3.06-1.23-4.61-.16-.7-.28-1.39-.29-2.12,0-.26,0-.53.03-.79.15-1.1.52-.28-.68.4l-1.26.34c-.48,0-.88-.17-1.2-.47l.14.13c.17.19.38.36.58.53.53.46,1.08.89,1.72,1.17,1.49.66,3.16.18,3.67-1.49,1.42-4.62.83-9.72-.5-14.29-.81-2.79-4.72-2.11-4.91.66-.27,4.03.04,8.06.86,12.01.35,1.73,3.02,2.55,4.18,1.1,2.13-2.68,4.71-4.79,7.75-6.39l-3.42-.9c1.68,2.65,3.79,4.94,6.27,6.85s5.29,3.69,8.25,4.35c1.55.35,3.24.3,4.55-.68,1.6-1.21,1.82-3.23,1.22-5.04-1.09-3.25-3.21-6.17-5.79-8.4s-5.62,1.08-3.54,3.54c2.41,2.83,5.86,4.72,9.5,5.39,1.49.27,3.27-.66,3.16-2.41-.1-1.64-.53-3.09-1.16-4.6-.53-1.28-1.28-2.62-1.44-4.02-.2-1.76.62-2.88,2.27-2.47,2.45.62,2.96,3.16,2.98,5.39.02,3.3-.34,6.62-.54,9.91-.43,7.07-.86,14.14-1.29,21.21s-1.39,14.15-.41,21.1,4.29,13.16,9.06,18.13c1.6,1.67,4.1.29,4.27-1.77.26-3.28-.5-6.48-2-9.4-.56-1.09-2.04-1.5-3.12-1.02-1.19.53-1.69,1.69-1.45,2.95.58,3.04,1.85,5.93,3.68,8.43,1.29,1.77,3.82,1.52,4.57-.6,1.09-3.07,1.26-6.23.75-9.43l-3.67,2.82,2.34,1.38c1.67.99,3.71-.29,3.76-2.16.42-13.88-.01-27.78-1.3-41.6-.29-3.18-4.81-3.25-5,0-.36,6.13-.72,12.26-1.08,18.39h5c-.14-7.16-1.1-14.31-2.85-21.26-.71-2.8-4.8-2.1-4.91.66-.5,12.65-1,25.3-1.5,37.95l4.91-.66c-1.6-7.49-3.21-14.98-4.81-22.48-1.24-5.78-2.09-12.58-8.3-15.05-1.56-.62-3.14.94-3.16,2.41-.17,10.49,2.95,20.87,8.72,29.62,1.4,2.13,4.48,1.22,4.66-1.26.6-8.32-1.02-16.57-4.42-24.16-1.06-2.36-4.64-1.05-4.66,1.26-.06,7.46,1.92,14.78,5.6,21.25,1.25,2.19,4.62,1.18,4.66-1.26.2-11.3.4-22.59.6-33.89l-3.16,2.41c4.71.7,9.38.55,14.01-.58,2.75-.67,2.15-4.92-.66-4.91-2.46,0-4.91.7-6.92,2.15-1.61,1.16-1.68,4.06.6,4.57,2.95.66,5.97.92,8.98.71,3.2-.22,3.23-4.82,0-5-1.08-.06-2.17.08-3.2.44-2.42.84-2.32,3.95,0,4.82,5.7,2.15,11.77,2.66,17.78,1.83,2.2-.3,2.32-3.6.6-4.57-2.15-1.21-4.3-2.43-6.46-3.64l-.6,4.57c3.93-1.05,8.06-1.36,12.1-.79l-1.84-2.41c.39,3.45-1.88,6.23-5.21,6.97-1.63.36-3.45.17-4.96-.55-2.02-.97-3.75-2.09-6.1-1.62-3.92.8-5.48,5.1-6.08,8.56-.84,4.85-1.22,9.76-1.39,14.68-.33,9.63.13,19.35-1.17,28.92-.16,1.18-.36,2.36-.58,3.53-.08.44-.35,1.05-.3,1.49.02.2-.21.5.14.23-.37.29-1.83-.15-2.26-.25-.87-.21-1.71-.5-2.51-.9-3.27-1.66-5.68-4.46-7.22-7.75-1.83-3.9-2.39-8.35-2.95-12.57-.67-5.03-1.34-10.05-2.01-15.08s-1.34-10.05-2.01-15.08c-.35-2.61-.64-5.23-1.04-7.83-.37-2.42-2.14-3.99-4.63-3.93-4.11.11-7.85,3.07-9.88,6.47-2.35,3.95-2.58,8.67-2.87,13.13-.16,2.39-.31,4.78-.47,7.17-.14,2.12-.14,4.34-.89,6.36-.52,1.39-1.55,2.62-2.99,3.1-1.72.56-3.3-.55-4.48-1.7-5.46-5.33-5.78-13.63-5.95-20.77s-.54-15.5-4.88-21.84c-1.09-1.58-2.35-3.01-3.84-4.23-1.04-.86-2.51-1.02-3.54,0-.88.88-1.05,2.67,0,3.54h0Z"/>
  <path class="cls-13" d="m293.52,415.76c2.73-.46,5.08-1.85,7.23-3.53,2.46-1.92,4.77-4.04,7.13-6.07l-1.96-1.51c-2.98,4.02-7.43,6.63-11.85,8.77-1.03.5-2.08.98-3.13,1.44s-2.39.79-2.86,1.93c-.8,1.95,1.75,3.66,3.29,4.21,4.24,1.52,8.82-.6,11.84-3.57,1.67-1.64,3.01-3.61,4.17-5.63,1.22-2.14,2.16-4.67,4.77-5.37,1.42-.38,2.95-.4,4.41-.53,1.79-.16,3.58-.32,5.37-.47,3.42-.3,6.84-.6,10.26-.9,1.59-.14,1.6-2.64,0-2.5-5.62.49-11.24.99-16.85,1.48-2.28.2-4.65.34-6.51,1.83-1.69,1.35-2.56,3.38-3.6,5.21-2.12,3.7-5.19,7.66-9.68,8.35-1.85.28-3.72,0-5.03-1.4.27.29-.68.36.22.18.22-.05.55-.24.74-.32.49-.22.99-.43,1.48-.65,1.11-.5,2.21-1.01,3.3-1.56,4.53-2.27,8.79-5.11,11.84-9.22.89-1.2-.96-2.38-1.96-1.51-2.16,1.86-4.28,3.77-6.49,5.57-2.01,1.63-4.19,2.96-6.77,3.39-1.58.27-.91,2.67.66,2.41h0Z"/>
  <path class="cls-13" d="m387.89,396.02c.06,1.61.14,3.23.18,4.84.03,1.31-.24,2.12-1.61,2.46-2.51.63-4.82-1.26-6.99-2.22s-4.81-1.41-6.88-.07c-1.96,1.27-2.56,3.78-3.07,5.91-1.21,5.07-1.35,10.44-3.33,15.31-.46,1.13-1.03,2.24-1.73,3.24-.34.48-.57,1.04-1.06.56-.39-.38-.46-1.29-.58-1.77-.61-2.47-1.05-4.97-1.56-7.47-1.13-5.54-2.7-11.01-6.58-15.3l-.88,2.13c7.35-.6,14.71-1,22.07-1.2v-2.5c-2.64.34-5.25.81-7.84,1.43-.99.24-1.12,1.4-.55,2.09.64.77,1.39,1.38,2.25,1.89l.3-2.28c-2.87.76-5.83.88-8.75.32-1.07-.2-1.95.83-1.41,1.84,1.12,2.1,2.23,4.2,3.35,6.3l1.41-1.84c-.43-.16-.64-.38-.85-.76-.69-1.24-2.67-.4-2.28.96.99,3.54,1.82,7.11,2.49,10.72l2.28-.96c-.75-1.22-1.08-2.55-.83-3.98l-1.84.75c1.28.64,2.11,1.71,2.07,3.18l2.46-.33c-.9-3.98-1.33-8.02-1.31-12.11l-1.88,1.08c.71.46,1.15,1.03,1.49,1.81.6,1.37,2.53.34,2.28-.96-.66-3.41,2.58-6.28,5.48-7.34,3.73-1.37,7.83-1.07,11.72-.83,1.39.09,1.72-2.18.33-2.46-.54-.11-.96-.25-1.38-.62l-.55,2.09c.73-.3,1.41-.3,1.99.29l.55-2.09c-.51.1-1.23-.11-1.44-.65l-1.21,1.58c.31,0,.54.13.7.4.69.8,2.21.17,2.13-.88-.1-1.49-.2-2.98-.3-4.48-.11-1.6-2.61-1.61-2.5,0,.1,1.49.2,2.98.3,4.48l2.13-.88c-.66-.76-1.48-1.06-2.46-1.13-.75-.05-1.49.85-1.21,1.58.74,1.89,2.54,2.77,4.51,2.4.95-.18,1.17-1.46.55-2.09-1.15-1.16-2.9-1.56-4.42-.93-.79.33-1.34,1.4-.55,2.09.74.64,1.52,1.07,2.49,1.26l.33-2.46c-4.7-.29-9.81-.58-14.12,1.67-3.55,1.85-6.29,5.53-5.5,9.66l2.28-.96c-.5-1.16-1.34-2.02-2.39-2.71-.81-.53-1.88.17-1.88,1.08-.02,4.3.45,8.58,1.4,12.77.32,1.4,2.43,1.05,2.46-.33.05-2.3-1.28-4.31-3.31-5.33-.66-.33-1.69-.1-1.84.75-.37,2.09-.04,4.08,1.08,5.9.77,1.25,2.53.4,2.28-.96-.66-3.61-1.49-7.19-2.49-10.72l-2.28.96c.54.96,1.33,1.53,2.35,1.91,1.09.4,1.88-.95,1.41-1.84-1.12-2.1-2.23-4.2-3.35-6.3l-1.41,1.84c3.37.64,6.76.55,10.08-.32,1.05-.28,1.22-1.74.3-2.28-.69-.4-1.23-.88-1.74-1.5l-.55,2.09c2.37-.57,4.76-1.03,7.18-1.34,1.54-.2,1.66-2.54,0-2.5-7.37.2-14.73.6-22.07,1.2-1.09.09-1.64,1.3-.88,2.13,3.84,4.24,5.09,9.89,6.17,15.35.51,2.57.82,5.36,1.76,7.82s3.39,3.19,5.15,1.15c3.7-4.31,4.26-10.67,5.17-16.03.22-1.33.47-2.66.78-3.97s.56-2.82,1.38-3.87c1.89-2.43,5.48-.18,7.5.83,2.48,1.24,5.55,2.12,8.05.38,1.14-.79,1.66-1.98,1.72-3.34.08-1.85-.12-3.75-.19-5.6-.06-1.6-2.56-1.61-2.5,0h0Z"/>
  <g>
    <path class="cls-12" d="m231.36,286.56c.23-3.84,2.07-7.66,5.23-9.86s7.63-2.55,10.88-.49c3.04,1.93,4.61,5.53,5.25,9.06.4,2.19.46,4.59-.7,6.49-.54.88-1.3,1.59-2.12,2.21-3.83,2.91-9,3.96-13.65,2.78"/>
    <path class="cls-14" d="m233.86,286.56c.2-2.85,1.52-5.83,3.86-7.6s5.49-2.21,7.94-.91c2.58,1.37,3.83,4.19,4.47,6.95.34,1.5.6,3.18.12,4.67-.44,1.37-1.69,2.28-2.88,3.01-3.12,1.91-6.9,2.52-10.45,1.66-3.13-.75-4.46,4.07-1.33,4.82,4.57,1.1,9.42.5,13.56-1.73,2.01-1.09,4.12-2.64,5.21-4.71,1.22-2.31,1.27-4.88.89-7.41-.63-4.26-2.54-8.44-6.12-10.99s-8.81-2.47-12.7-.44c-4.67,2.44-7.2,7.59-7.56,12.68-.1,1.35,1.22,2.5,2.5,2.5,1.43,0,2.4-1.15,2.5-2.5h0Z"/>
  </g>
  <path class="cls-14" d="m227.15,276.29c-.09,7.48,2.23,15.03,6.61,21.11s10.9,10.85,18.27,13.15c4.07,1.27,8.41,1.79,12.67,1.52,1.35-.09,2.5-1.09,2.5-2.5,0-1.29-1.15-2.59-2.5-2.5-13.39.85-26.17-7.16-30.72-19.89-1.26-3.52-1.88-7.16-1.84-10.9.04-3.22-4.96-3.22-5,0h0Z"/>
  <path class="cls-14" d="m236.46,292.85c.32-.7.72-1.36,1.19-1.97l-.39.51c.52-.66,1.11-1.26,1.77-1.78l-.51.39c.63-.48,1.3-.9,2.03-1.22l-.6.25c.37-.16.75-.28,1.15-.34l-.66.09c.2-.03.4-.04.6-.03,1.31.04,2.56-1.18,2.5-2.5s-1.1-2.46-2.5-2.5c-2.18-.06-4.22,1.2-5.83,2.55-1.28,1.08-2.36,2.5-3.06,4.03-.29.63-.44,1.24-.25,1.93.16.58.61,1.21,1.15,1.49.58.31,1.28.46,1.93.25.58-.19,1.23-.57,1.49-1.15h0Z"/>
  <path class="cls-14" d="m472.01,346.95c11.11,9.3,18.48,22.16,23.08,35.76,4.28,12.67,6.26,26.08,5.47,39.45s-4.21,25.74-11.11,36.71c-7.46,11.86-18.76,20.14-31.49,25.64-6.7,2.9-13.75,5.01-20.82,6.79-3.58.9-7.19,1.71-10.81,2.47-3.3.69-6.78,1.47-10.17.99-1.6-.22-3.02-.79-4.34-1.7-1.11-.77-2.78-.21-3.42.9-.73,1.24-.22,2.65.9,3.42,6.48,4.49,15.14,1.95,22.16.4,7.56-1.68,15.07-3.64,22.36-6.29,14.21-5.18,27.3-13.08,36.58-25.24,8.36-10.94,12.9-24.29,14.6-37.85,1.73-13.85.41-28.14-3.38-41.54-4.13-14.59-11.06-28.86-21.9-39.65-1.33-1.33-2.72-2.59-4.16-3.79-1.03-.87-2.52-1.01-3.54,0-.89.89-1.04,2.67,0,3.54h0Z"/>
  <path class="cls-14" d="m119.55,360.28c-16.72,21.31-27.6,48.13-24.26,75.58,1.65,13.56,6.55,26.45,14.91,37.29,8.2,10.64,19.04,19.17,30.89,25.42,13.7,7.22,28.89,11.39,44.35,12.21,3.22.17,3.21-4.83,0-5-25.57-1.35-51.3-12.68-68.32-32.05-8.46-9.62-13.93-21.31-16.21-33.9s-1.29-25.73,2.26-38.03c3.98-13.83,11.06-26.7,19.93-38,.83-1.06,1.04-2.5,0-3.54-.87-.87-2.7-1.07-3.54,0h0Z"/>
  <path class="cls-14" d="m180.1,597.29c.63,4.74-.92,9.36-2.1,13.9-1.25,4.81-2.5,9.61-3.75,14.42-.81,3.12,4.01,4.45,4.82,1.33,1.29-4.96,2.58-9.93,3.87-14.89s2.82-9.76,2.15-14.75c-.18-1.34-1.02-2.5-2.5-2.5-1.21,0-2.68,1.15-2.5,2.5h0Z"/>
  <path class="cls-14" d="m109.75,610.93c8.55.34,16.85,2.53,24.97,5.09s16.87,5.56,25.3,8.36c4.86,1.61,9.72,3.23,14.57,4.84,3.06,1.02,4.37-3.81,1.33-4.82-8.7-2.89-17.4-5.78-26.09-8.67s-16.63-5.74-25.2-7.71c-4.89-1.12-9.87-1.89-14.89-2.09-3.22-.13-3.21,4.87,0,5h0Z"/>
  <path class="cls-14" d="m416.18,591.61c3.06,5.15,6.12,10.29,9.18,15.44l4.46,7.5,2.17,3.64c.7,1.17,1.33,2.48,2.32,3.45,2.38,2.34,5.12.96,7.53-.45,2.59-1.5,5.17-3,7.76-4.5,5.1-2.96,10.2-5.92,15.3-8.88,5.82-3.38,11.64-6.75,17.46-10.13,2.78-1.61.27-5.94-2.52-4.32-9.63,5.59-19.25,11.17-28.88,16.76-2.37,1.38-4.74,2.75-7.11,4.13-1.08.63-2.16,1.25-3.23,1.88-.57.33-1.15.67-1.72,1-.36.21-1.03.79-1.44.84.41-.06.26.21.06-.3-.21-.54-.65-1.08-.94-1.58l-2.17-3.64-4.21-7.08-9.69-16.29c-1.64-2.76-5.97-.25-4.32,2.52h0Z"/>
  <path class="cls-13" d="m214.74,401.98c2.8,7.96,5.61,15.91,8.41,23.87.92,2.62,4.81,2.25,4.91-.66l.5-14.93-4.91.66c1.12,2.91,1.79,5.92,1.93,9.04h5c-.34-4.19-.18-8.4.59-12.54l-4.57.6c1.41,2.2,1.27,4.78-.24,6.89l4.57.6c-.73-2.7-.17-5.34,1.44-7.61h-4.32c1.11,1.95.86,4.15-.4,5.95l4.57.6c-.34-2.03.33-4.22,1.67-5.76l-4.18-1.1c.73,2.11.74,4.14.02,6.25h4.82c-.24-1.76.7-3.43,1.98-4.53l-4.18-1.1c.35,1.54-.27,2.9-1.42,3.9l4.27,1.77c-.22-2.39.82-4.51,2.94-5.67l-3.67-1.49c.52,1.59-.12,3.17-1.66,3.95l3.76,2.16-.04-.31c-.04.61-.44.69-1.22.25-.75.29-1.15.17-1.19-.37-.11-.29-.1-.58.03-.88l.9-.9-.2.15,3.42,3.42c.87-2.06,2.04-3.86,3.62-5.44l-4.18-2.43c.05-.13.14-.17.19-.26.2.02.13.03-.19.02.06,0,.12,0,.17.04-.14-.37-.19-.52-.06-.96l-3.08,1.75c1.21.18,2.07.65,2.68,1.73l2.16-3.76c-2.16.14-4.17-.47-5.76-1.97l-1.1,4.18c2.04-.36,4.38.17,6.02,1.46l-.39-3.03-1.03,1.78c-.7,1.21-.24,2.69.9,3.42.88.56,1.9.85,2.94.75l-2.41-3.16c.11-.29-.07-.03-.28.1-.41.24-.86.42-1.29.61-.99.43-1.87.92-2.71,1.62-1.85,1.55-2.92,3.78-3.82,5.97-2.17,5.25-4.14,10.59-6.21,15.88h4.82c-1.22-4.61-1.75-9.28-1.61-14.05l-4.91.66c.65,2.46.92,4.94.78,7.48-.05.93-.15,4.39-1.12,4.65l2.82,1.15c-1.46-2.86-2.01-6.17-1.45-9.34l-4.57.6c1.53,2.02,2.27,4.23,2.16,6.77h5c-.45-4.25-.57-8.52-.35-12.79l-4.91.66c.69,2.4.88,4.79.63,7.28l4.66-1.26c-1.5-3.03-2.53-6.23-3.18-9.55-.26-1.33-1.84-2.08-3.08-1.75-1.41.39-1.97,1.74-1.75,3.08.59,3.48.91,6.99,1.01,10.52l4.91-.66c-.19-1.21-.18-2.43-.09-3.64l-4.91.66c.63,3.09,1.42,6.14,2.37,9.14.69,2.19,4.33,2.56,4.82,0,.66-3.46,1.68-6.83,3.04-10.08l-4.18,1.1c1.51,1.66,2.13,3.76,1.99,5.98h5c0-1.55-.15-3.52,1.03-4.72l-3.93-.51c1.05,1.83,1.06,3.78.3,5.71h4.82c-.63-2.05-.48-3.94.35-5.91l-4.91-.66.37,5.63c.21,3.19,4.88,3.24,5,0,.11-2.96.46-5.89,1.06-8.79l-4.91-.66c.07,3.31-.03,6.62-.31,9.92h5c.06-2.96.25-5.92.65-8.85l-4.91-.66c.04,3.96-.47,7.82-1.54,11.63h4.82c-.2-.73-.14-1.27.1-1.99l-4.91-.66c-.29,2.7-1.2,5.28-2.56,7.62h4.32c-.7-1.34-1-2.74-.99-4.25l-4.91.66c.36,1.15.46,2.38-.04,3.52h4.32c-.99-2.03-.97-4.26-.24-6.36l-4.57.6c.56,1.24,1.18,4.11.41,5.12l.9-.9.02-.03h1.33c-.77-.12,0,.15-.21-.08-.25-.28-.43-.69-.57-1.04-.31-.78-.36-1.51-.32-2.34l-3.76,2.16c1.57,1.08,2.06,3.41,1.2,5.04l3.42-.9c-1.8-1.2-2.51-3.27-2.29-5.36l-3.76,2.16c2.28,1.56,3.48,4.23,3.41,6.95l4.66-1.26c-1.49-2.02-1.99-4.36-1.27-6.79l-4.18,1.1c.69.57,1.36,1.58.97,2.51l4.57.6c.02.14.02-.17-.01-.17.1-.3.11-.38.05-.26-.02.05-.05.09-.09.12.06.02-2.55.17-1.93-.35-.14.12-.21.71-.29.88h4.32l-.11-.16.34,1.26.02-.2-.34,1.26.11-.18-.9.9.19-.1-1.26.34.28.02-1.26-.34c-.2-.11-.34-.45-.31-.68l.63-.71c1.74.65,1.91,1.43.5,2.36l-2.43-.64c-.14-.14-.24-.52-.18-.7.08-.25.76-.6.16-.3l3.67,1.49c-.42-1.1-.34-1.95.33-2.93l-3.42.9c-.7-.42-.54-.96-.23-1.41.22-.32.31.15.07-.13-.16-.19-.56-.39-.75-.57l-3.03,3.93c.29.17.74.52.69.91l3.67-1.49c-.65-.49-1.05-1.19-1.38-1.91-1.21-2.62-5.29-.75-4.57,1.93.41,1.53,1.05,2.99,1.9,4.32,1.34,2.08,4.59,1.27,4.66-1.26.04-1.59-.83-3.21-2.32-3.86l-1.26,4.66c3.9-.12,7.27-2.69,8.38-6.44h-4.82c.52,1.32.66,2.53.47,3.94l4.91-.66c-.27-1.75-.01-3.49.54-5.16l-4.91-.66c-.04,1.31-.27,2.54-.69,3.78-.19.55-.41,1.07-.69,1.58-.14.25-.3.49-.43.75-.3.38-.33.46-.09.27.32-.27.72-.33,1.19-.2l1.1.64-.12-.12.64,1.1-.03-.2-4.18,2.43.17.17-.64-1.1.39-1.34,1.1-.64-.23.08,2.82,1.15c-.2-.32-.33-.52-.35-.9-.2-3.2-5.2-3.22-5,0,.08,1.25.37,2.36,1.03,3.43.56.9,1.76,1.5,2.82,1.15,2.36-.79,3.28-3.68,1.42-5.52-.79-.78-2.07-.95-3.03-.39-1.03.6-1.32,1.71-1.15,2.82.26,1.65,2.11,2.48,3.62,2.09,1.39-.36,2.23-1.4,2.93-2.58,1.52-2.57,2.29-5.48,2.38-8.45s-4.05-3.27-4.91-.66-.94,5.17-.54,7.82c.19,1.21,1.64,1.96,2.74,1.79,1.33-.2,2-1.18,2.17-2.46.23-1.78,0-3.6-.65-5.27-.86-2.21-4.08-2.53-4.82,0-.47,1.59-1.89,2.72-3.56,2.77-2.27.07-3.68,3.6-1.26,4.66.74.33-.16-.24-.16-.46l4.66-1.26c-.64-.99-1.09-1.99-1.4-3.12l-4.57,1.93c.71,1.54,1.83,2.7,3.18,3.7,1.19.89,3.47.02,3.67-1.49.37-2.67-.56-5.17-2.98-6.55s-5.08,1.91-3.03,3.93,5.43,3.07,7.63.77c1.82-1.9,1.64-5.12-.67-6.51-1.22-.73-2.66-.21-3.42.9-1.34,1.95-1.68,4.56-.84,6.78.6,1.58,2.13,2.25,3.67,1.49,2.6-1.28,2.93-4.85,1.03-6.85-.57-.6-1.63-.94-2.43-.64-2.3.87-3.55,3.51-2.11,5.72s4.77,2.16,6.38.18c1.51-1.86,1.08-4.94-.98-6.24-2.48-1.56-5.98,1.28-4.16,3.91.95,1.37,3.49,1.87,4.32,0,.67-1.51,1.22-3,.75-4.67s-1.96-2.93-3.68-2.99c-3.35-.11-4.41,3.56-3.94,6.24.35,2,3.74,2.55,4.57.6,1.24-2.94.83-6.44-1.75-8.57-1.44-1.18-3.61-.82-4.18,1.1-1.07,3.59-.46,7.61,1.77,10.64,1.42,1.93,4.59,1.38,4.66-1.26.13-4.55-2.16-8.72-5.89-11.27-1.72-1.18-3.58.44-3.76,2.16-.41,3.87,1.58,7.56,4.77,9.68,1.09.73,2.82.25,3.42-.9,2.2-4.16.87-9.24-2.99-11.88-1.65-1.13-3.68.4-3.76,2.16-.15,3.31,2.21,9.91,6.71,8.11,2.06-.82,2.37-3.28,2.42-5.22.06-2.16-.48-4.19-1.36-6.14-.96-2.12-3.94-1.23-4.57.6-1.18,3.4-.81,7.01.75,10.22.77,1.59,3.58,1.68,4.32,0,1.05-2.39,1.34-4.85.55-7.37-.84-2.65-4.89-2.22-4.91.66-.02,2.4.56,4.65,1.67,6.77.88,1.68,3.41,1.57,4.32,0,1.83-3.14,2.86-6.54,3.24-10.14.13-1.22-1.05-2.32-2.17-2.46-1.27-.15-2.34.58-2.74,1.79-.51,1.52-.51,3.1-.1,4.65.64,2.4,4.16,2.36,4.82,0,1.18-4.21,1.76-8.59,1.72-12.96-.01-1.23-.94-2.31-2.17-2.46-1.1-.13-2.57.54-2.74,1.79-.46,3.38-.76,6.77-.83,10.18-.03,1.35,1.17,2.5,2.5,2.5,1.45,0,2.39-1.15,2.5-2.5.27-3.3.38-6.61.31-9.92-.06-2.72-4.32-3.52-4.91-.66-.68,3.33-1.1,6.72-1.23,10.12h5l-.37-5.63c-.08-1.24-.89-2.3-2.17-2.46s-2.25.61-2.74,1.79c-1.14,2.71-1.22,5.77-.35,8.57.78,2.51,3.94,2.23,4.82,0,1.23-3.12.85-6.67-.8-9.56-.8-1.39-2.8-1.65-3.93-.51-2.19,2.22-2.51,5.27-2.5,8.25.02,3.24,4.8,3.19,5,0,.22-3.54-1.09-6.91-3.45-9.52-1.4-1.54-3.51-.5-4.18,1.1-1.36,3.25-2.38,6.62-3.04,10.08h4.82c-.95-3.01-1.74-6.05-2.37-9.14-.25-1.2-1.59-1.96-2.74-1.79-1.28.19-2.08,1.18-2.17,2.46-.12,1.68,0,3.31.27,4.97.44,2.8,4.99,2.11,4.91-.66-.12-3.98-.53-7.93-1.19-11.85l-4.82,1.33c.73,3.74,1.99,7.33,3.69,10.74.49.98,1.81,1.43,2.82,1.15,1.13-.31,1.73-1.3,1.84-2.41.28-2.89-.01-5.81-.81-8.61s-4.76-2.12-4.91.66c-.22,4.27-.11,8.54.35,12.79.34,3.15,4.86,3.28,5,0s-.84-6.65-2.85-9.29c-.62-.82-1.41-1.36-2.49-1.19-.9.14-1.91.82-2.08,1.79-.8,4.57-.17,9.06,1.95,13.2.5.98,1.8,1.42,2.82,1.15,3.43-.92,4.24-4.53,4.62-7.6.44-3.57.13-7.2-.79-10.68-.73-2.77-4.83-2.13-4.91.66-.15,5.18.46,10.37,1.79,15.37.68,2.57,3.98,2.16,4.82,0,2.04-5.24,3.94-10.58,6.15-15.75.75-1.74,1.65-3.47,3.41-4.34,2.08-1.03,3.88-1.72,4.75-4.09.52-1.44-.86-3.31-2.41-3.16-.68.06.16.3-.42-.07l.9,3.42,1.03-1.78c.5-.86.47-2.36-.39-3.03-3.18-2.49-6.9-3.46-10.89-2.75-1.86.33-2.39,2.97-1.1,4.18,2.5,2.36,5.84,3.67,9.29,3.44,1.88-.12,3.12-2.03,2.16-3.76-1.17-2.1-3.27-3.68-5.67-4.03-1.37-.2-2.64.32-3.08,1.75-.83,2.72.38,6.02,3.21,6.98,2.65.9,5.42-.58,6.31-3.16.84-2.42-2.49-4.13-4.18-2.43-1.86,1.86-3.37,4.03-4.4,6.45-.44,1.04-.47,2.17.39,3.03.73.73,2.15,1.04,3.03.39,2.2-1.63,2.22-4.94-.32-6.32s-5.85,1.24-5.48,4.07c.25,1.9,1.93,3.09,3.76,2.16,3.41-1.74,5.13-5.97,3.95-9.6-.51-1.56-2.21-2.29-3.67-1.49-3.54,1.92-5.79,5.95-5.42,9.98.2,2.2,2.56,3.24,4.27,1.77,2.51-2.17,3.44-5.58,2.71-8.77-.45-1.95-2.83-2.26-4.18-1.1-2.75,2.37-3.76,5.88-3.27,9.4.15,1.07,1.42,1.84,2.41,1.84,1.14,0,2.05-.79,2.41-1.84.98-2.88.97-6.04-.02-8.91-.57-1.65-2.86-2.61-4.18-1.1-2.62,2.99-3.62,6.72-2.96,10.62.39,2.32,3.46,2.17,4.57.6,2.27-3.23,2.34-7.6.4-11-.99-1.74-3.27-1.48-4.32,0-2.34,3.31-3,7.57-1.94,11.46.6,2.22,3.37,2.28,4.57.6,2.48-3.47,2.53-8.37.24-11.94-1.07-1.66-4.15-1.64-4.57.6-.85,4.58-1.14,9.22-.77,13.87.11,1.35,1.07,2.5,2.5,2.5,1.31,0,2.56-1.14,2.5-2.5-.15-3.55-.83-7.05-2.11-10.36-.98-2.55-4.81-2.3-4.91.66l-.5,14.93,4.91-.66-8.41-23.87c-.45-1.27-1.71-2.12-3.08-1.75-1.23.34-2.2,1.8-1.75,3.08h0Z"/>
  <path class="cls-13" d="m251.39,407.94l1,3.71,4.82-1.33c-1.08-2.69-1.62-5.44-1.58-8.34l-4.66,1.26c2.18,4.71,3.79,9.67,4.9,14.74.29,1.32,1.82,2.09,3.08,1.75,1.43-.39,1.94-1.73,1.75-3.08l-1.23-8.46-4.82,1.33c1.35,3.88,2.21,7.88,2.47,11.98l4.66-1.26c-1.9-2.87-3.51-5.92-4.73-9.15-.44-1.16-1.44-1.99-2.74-1.79-1.11.17-2.32,1.21-2.17,2.46l1.22,10.06,4.91-.66c-1.38-4.31-2.34-8.73-2.76-13.24-.13-1.34-1.06-2.5-2.5-2.5-1.33,0-2.53,1.14-2.5,2.5.11,4.42.76,8.83,1.95,13.09.87,3.12,5.47,1.8,4.82-1.33s-1.62-5.88-2.89-8.67c-.51-1.12-2.09-1.48-3.12-1.02-1.22.54-1.65,1.68-1.45,2.95.72,4.49,2.16,8.79,4.18,12.86,1.01,2.03,3.96,1.32,4.57-.6l.89-2.8-4.91-.66c.28,12.81.62,25.81,4.28,38.19.65,2.19,4.41,2.57,4.82,0,.54-3.35.79-6.71.67-10.1l-4.91.66c.51,3.28.79,6.58.9,9.9s5.06,3.23,5,0c-.05-2.46-.05-4.92,0-7.39.02-1.15.05-2.3.09-3.45.01-.31.07-.86.06-1.1,0-.21.17-.4-.06-.25l-3.76-2.16c.31,4.76.61,9.53.89,14.29.07,1.24.89,2.3,2.17,2.46,1.12.13,2.54-.55,2.74-1.79.82-5.02,1.65-10.03,2.47-15.05l-4.91-.66c.22,3.85.29,7.71.2,11.56h5c-.08-4.41.19-8.81.88-13.17l-4.91-.66c.36,3.59.5,7.2.43,10.81h5c-.42-5.17-.54-10.36-.35-15.54h-5l-.1,19.17h5l-1.05-11.83c-.12-1.34-1.06-2.5-2.5-2.5-1.31,0-2.56,1.14-2.5,2.5.4,8.6.17,17.21-.71,25.78l4.66-1.26c-1.11-2.2-1.9-4.51-2.44-6.92s-4.42-2.47-4.82,0l-.24,1.48,4.18-1.1c-1.43-1.46-2.49-3.12-3.3-5l-4.32,2.52c.73,1.62,1.47,3.25,2.2,4.87.51,1.12,2.09,1.48,3.12,1.02,1.2-.53,1.68-1.69,1.45-2.95l-.96-5.28-4.57,1.93c1.75,2.5,2.65,5.55,5.89,6.53,1.4.42,2.96.26,4.2-.54,1.15-.74,1.69-2,2.71-2.85l-4.18-1.1c.33,1.84.38,3.71.26,5.57-.08,1.23,1.01,2.32,2.17,2.46,1.3.15,2.3-.59,2.74-1.79l.72-1.95-4.18,1.1c-.07-.09.08.3.07.39,0,.07-.17.48-.1.43l3.03.39c-.37-.3-.51-.32-.28-.71l-4.57-.6c.17.54.34,1.09.51,1.63.81,2.6,5.03,2.26,4.91-.66s0-6.02.5-8.99h-4.82l.31,1.28c.66,2.67,5.18,2.19,4.91-.66-1.45-15.51-1.53-31.12-.22-46.64l-4.91.66c1.14,5.37,1.69,10.81,1.69,16.29h5c-.14-3.9.15-7.77.93-11.6h-4.82c.68,4.24.19,8.55-1.21,12.6l4.91.66c.16-4.05,1.05-7.98,2.56-11.74l-4.91-.66c-.05.87-.46,1.56-1.09,2.16l4.27,1.77c-.06-2.42,1.58-4.4,3.92-4.91,2.7-.58,2.16-5.28-.66-4.91s-5.61-.18-8.07-1.78v4.32c1.81-.82,3.83-.84,5.72-.3v-4.82c-2.94,1.09-5.88,1.03-8.79-.15l.6,4.57c3.22-1.53,6.76-1.98,10.28-1.56l-1.26-4.66c-1.83,1.03-3.77,1.71-5.83,2.11-.91.17-1.83.24-2.76.26-.47,0-1.29-.19-1.72-.05.17.04.1.02-.22-.05.23.18.4.43.51.73l-1.75,3.08c5.89-1.51,12.02-1.58,17.93-.18l-.6-4.57c-2.03,1.16-4.45,1.17-6.49.02v4.32c2.57-1.29,5.48-1.49,8.24-.72v-4.82c-1.59.64-3.58.45-4.64-1.08l-2.16,3.76c4.89.03,9.73.57,14.5,1.64l-.6-4.57c-3.16,1.77-7.7,2.01-10.77-.15-.08-.04-.15-.09-.22-.14-.59-.77-.92-.23-.96,1.63.31.04.94-.2,1.27-.23,1.16-.12,2.37-.11,3.52.04,1.09.14,2.16.43,3.2.8.46.16.87.38,1.31.58.35.26.42.28.21.08-.25-.85.16-1.36,1.22-1.53l.66,4.91c.95-.33,2.36-.99,3.38-.61-.04-.01.15.21.19.26.08.1-.1.24,0,.08.2-.31-.04-.3.45-.66l3.67,1.49c.08.37,0,.1.23-.04.28-.18.62-.59.87-.82l.1-.07c.41-.19.44-.24.09-.15l-1.03-.65c-.27-.63-.06-1.25.63-1.87l2.52,4.32c2.46-1.85,4.24-4.29,4.95-7.32s-4.09-4.47-4.82-1.33c-.39,1.69-1.24,3.28-2.65,4.34-2.53,1.9-.42,5.79,2.52,4.32,3.48-1.74,1.28-6.79-2.12-6.8-1.67,0-3.18,1.08-4.31,2.21-1.46,1.44-2.25,3.15-1.81,5.2.31,1.47,2.4,2.43,3.67,1.49,2.42-1.78,2.6-4.93.68-7.2-2.17-2.56-5.74-1.98-8.56-1.01-1.17.41-1.98,1.47-1.79,2.74.17,1.15,1.2,2.26,2.46,2.17,2.42-.17,4.15-2.34,3.59-4.78-.51-2.22-2.65-3.28-4.59-4.02s-4.13-1.15-6.26-1.23c-1.94-.07-4.62-.08-6.19,1.2-2,1.62-1.56,4.34.15,5.99,1.38,1.33,3.43,2.15,5.25,2.62,3.98,1.03,8.22.46,11.8-1.54,1.82-1.02,1.51-4.1-.6-4.57-5.2-1.16-10.51-1.78-15.83-1.82-1.79-.01-3.26,2.17-2.16,3.76,2.24,3.23,6.51,4.9,10.28,3.38,1.04-.42,1.84-1.22,1.84-2.41,0-1.1-.78-2.11-1.84-2.41-4.08-1.15-8.31-.67-12.09,1.22-1.69.85-1.56,3.44,0,4.32,3.59,2.03,7.95,2.02,11.53-.02,1.83-1.04,1.51-4.07-.6-4.57-6.79-1.61-13.83-1.56-20.59.18-1.2.31-2.24,1.83-1.75,3.08,1.31,3.26,4.95,3.24,7.97,2.94,3.32-.33,6.48-1.31,9.4-2.94.96-.54,1.44-1.77,1.15-2.82-.31-1.14-1.3-1.7-2.41-1.84-4.42-.53-8.8.33-12.81,2.24-.88.42-1.33,1.59-1.19,2.49.16,1.06.83,1.69,1.79,2.08,3.62,1.47,7.78,1.51,11.44.15,2.23-.83,2.51-4.1,0-4.82-3.25-.93-6.51-.58-9.57.8-1.82.82-1.42,3.39,0,4.32,3.11,2.02,6.91,2.94,10.59,2.46l-.66-4.91c-4.44.96-7.71,5.21-7.6,9.73.05,2.18,2.69,3.28,4.27,1.77s2.41-3.5,2.55-5.69c.08-1.23-1.01-2.32-2.17-2.46-1.32-.16-2.26.6-2.74,1.79-1.68,4.17-2.57,8.58-2.74,13.07-.11,2.94,4.03,3.23,4.91.66,1.7-4.93,2.03-10.12,1.21-15.26-.39-2.44-4.35-2.34-4.82,0-.86,4.26-1.26,8.59-1.1,12.93.11,3.21,5,3.23,5,0,0-5.92-.64-11.83-1.87-17.62-.25-1.2-1.59-1.96-2.74-1.79-1.29.19-2.06,1.18-2.17,2.46-1.31,15.52-1.23,31.13.22,46.64l4.91-.66-.31-1.28c-.56-2.28-4.41-2.49-4.82,0-.57,3.42-.83,6.86-.68,10.32l4.91-.66c-.17-.54-.34-1.09-.51-1.63-.64-2.04-3.44-2.48-4.57-.6-1.29,2.15-.95,5.16,1.06,6.77.8.64,2.09,1.09,3.03.39,2.86-2.13,3.39-5.93,1.04-8.67-1.32-1.55-3.59-.51-4.18,1.1l-.72,1.95,4.91.66c.16-2.32-.02-4.61-.44-6.9-.36-2.02-2.88-2.19-4.18-1.1-.68.57-1.18,1.31-1.7,2.02-.14.19-.45.28-.14.19.33-.09-.04.01-.26-.13-1.41-.92-1.91-2.87-2.85-4.2-1.65-2.35-5.08-.9-4.57,1.93l.96,5.28,4.57-1.93c-.73-1.62-1.47-3.25-2.2-4.87-.56-1.23-2.34-1.53-3.42-.9-1.28.75-1.43,2.18-.9,3.42.97,2.25,2.37,4.26,4.09,6.01,1.21,1.24,3.87.8,4.18-1.1l.24-1.48h-4.82c.64,2.82,1.64,5.53,2.94,8.11.49.98,1.81,1.43,2.82,1.15,1.13-.31,1.72-1.3,1.84-2.41.87-8.57,1.11-17.18.71-25.78h-5l1.05,11.83c.12,1.34,1.06,2.5,2.5,2.5,1.36,0,2.49-1.14,2.5-2.5l.1-19.17c.02-3.23-4.88-3.21-5,0-.19,5.18-.07,10.37.35,15.54.26,3.17,4.93,3.26,5,0,.08-3.61-.07-7.22-.43-10.81-.12-1.24-.86-2.3-2.17-2.46-1.12-.13-2.54.55-2.74,1.79-.77,4.8-1.15,9.63-1.06,14.5.06,3.22,4.93,3.22,5,0,.09-3.86.02-7.71-.2-11.56-.07-1.24-.9-2.3-2.17-2.46-1.12-.13-2.54.55-2.74,1.79l-2.47,15.05,4.91.66c-.28-4.77-.58-9.53-.89-14.29-.12-1.78-2.07-3.27-3.76-2.16-2.49,1.63-2.45,4.46-2.53,7.14-.09,3.12-.1,6.24-.04,9.36h5c-.12-3.77-.49-7.51-1.08-11.23-.44-2.79-5.01-2.12-4.91.66.11,2.93-.02,5.87-.49,8.77h4.82c-3.53-11.97-3.83-24.47-4.1-36.86-.06-2.85-4.05-3.36-4.91-.66l-.89,2.8,4.57-.6c-1.83-3.68-3.03-7.61-3.68-11.67l-4.57,1.93c1.08,2.39,1.85,4.91,2.38,7.48l4.82-1.33c-1.07-3.85-1.67-7.76-1.77-11.76h-5c.47,4.96,1.42,9.83,2.94,14.57.38,1.18,1.49,1.98,2.74,1.79,1.11-.17,2.32-1.21,2.17-2.46l-1.22-10.06-4.91.66c1.37,3.63,3.09,7.1,5.23,10.34,1.27,1.92,4.83,1.37,4.66-1.26-.29-4.54-1.15-9.01-2.65-13.31-1.08-3.1-5.28-1.81-4.82,1.33l1.23,8.46,4.82-1.33c-1.2-5.51-3.04-10.82-5.4-15.93-1.09-2.35-4.63-1.06-4.66,1.26-.05,3.31.53,6.6,1.76,9.67.5,1.25,1.67,2.13,3.08,1.75,1.31-.36,2.1-1.77,1.75-3.08l-1-3.71c-.83-3.1-5.66-1.79-4.82,1.33h0Z"/>
  <path class="cls-13" d="m355.43,403.75c2.56,3.67,4.79,7.56,6.65,11.63,1.17,2.55,5.57.73,4.57-1.93l-4.09-10.85-4.57,1.93c2.17,3.48,3.81,7.19,4.92,11.14.78,2.79,4.75,2.11,4.91-.66.18-3.07.16-6.15-.04-9.22l-4.27,1.77c.4.43.38.86.32,1.43h5l-.04-7.83c-.01-2.16-2.73-3.31-4.27-1.77l.35-.14h1.33l-.3-.06,1.1.64-.22-.21.73,1.77-.03-.28-3.76,2.16c-.16-.13-.28-.29-.34-.48.01-.14.02-.12.02.06-.09.15,0,.7-.03.9-.08.93-.21,1.86-.32,2.79-.22,1.91-.44,3.82-.67,5.73h5c.12-1.93.66-3.78,1.56-5.48l-4.57-.6c.19.87.38,1.74.57,2.61.43,1.98,2.84,2.23,4.18,1.1.75-.63,1.36-1.43,1.76-2.31l-4.66-1.26c.12,5.33.4,11.65-3.11,16.1l4.18,1.1c-1.48-5.19-1.09-10.7-3.63-15.6-.62-1.2-2.3-1.55-3.42-.9-1.28.75-1.44,2.18-.9,3.42l1.66,3.78c.86,1.96,4.15,1.4,4.57-.6l.3-1.4c.28-1.32-.39-2.7-1.75-3.08-1.24-.34-2.8.42-3.08,1.75l-.3,1.4,4.57-.6-1.66-3.78-4.32,2.52c2.28,4.4,1.8,9.72,3.13,14.4.47,1.64,2.97,2.64,4.18,1.1,4.48-5.68,4.72-12.7,4.57-19.64-.05-2.3-3.57-3.64-4.66-1.26-.26.57-.51.9-.98,1.3l4.18,1.1c-.19-.87-.38-1.74-.57-2.61-.45-2.08-3.58-2.46-4.57-.6-1.33,2.51-2.06,5.17-2.24,8-.08,1.35,1.21,2.5,2.5,2.5,1.48,0,2.34-1.15,2.5-2.5.29-2.5.58-4.99.87-7.49.25-2.19.17-4.61-2.02-5.81-1.53-.84-3.94.18-3.76,2.16.28,3.08,3.5,3.88,5.57,1.8l-4.27-1.77.04,7.83c0,1.35,1.14,2.5,2.5,2.5,1.48,0,2.35-1.15,2.5-2.5.21-1.86-.53-3.62-1.78-4.97-1.42-1.53-4.41-.39-4.27,1.77.21,3.07.22,6.14.04,9.22l4.91-.66c-1.22-4.34-3.05-8.5-5.43-12.33-.65-1.05-1.97-1.53-3.12-1.02-1.05.46-1.89,1.77-1.45,2.95l4.09,10.85,4.57-1.93c-1.87-4.07-4.09-7.96-6.65-11.63-.77-1.11-2.19-1.62-3.42-.9-1.09.64-1.67,2.31-.9,3.42h0Z"/>
  <path class="cls-13" d="m386.44,401.17v-.04c.12-.65.13-1.34-.25-1.93s-.85-.94-1.49-1.15c-1.61-.53-3.27.9-3.28,2.5s1.38,2.72,2.88,2.58l-.66-.09.11.02-.6-.25c.19.09.36.2.53.33l-.51-.39c.16.14.31.28.44.44l1.1-4.18c-.24.09-.48.15-.73.19l.66-.09c-.3.03-.58.04-.88,0l.66.09c-.34-.05-.65-.14-.97-.27l.6.25c-.23-.11-.44-.23-.65-.38l.51.39-.1-.08-.51,3.93.09-.04-.6.25.09-.02-.66.09h.1c-.22-.03-.44-.06-.66-.09l.09.02-.6-.25c.06.02.12.05.17.09l-.51-.39.07.07-.39-.51.05.08,2.16-3.76c-.79.1-1.57.11-2.36,0l.66.09c-.44-.06-.87-.15-1.3-.28v4.82c.1-.02.2-.03.3-.05l-.66.09c.9-.12,1.8-.12,2.7,0l-.66-.09c.82.12,1.6.4,2.43.44.59.03,1.24-.13,1.75-.43.42-.24.62-.54.97-.83l-.51.39c.11-.08.22-.14.34-.2l-.6.25c.16-.06.31-.1.48-.13l-.66.09c.17-.02.33-.02.5,0l-.66-.09c.17.03.32.07.48.13l-.6-.25c.12.06.23.12.34.2l-.51-.39c.1.08.19.17.28.28.38.47,1.19.73,1.77.73.61,0,1.35-.27,1.77-.73s.76-1.1.73-1.77c-.03-.7-.29-1.23-.73-1.77-.74-.91-2.06-1.39-3.21-1.35-.7.02-1.36.19-1.98.53-.46.25-.78.65-1.18.96l.51-.39-.08.05.6-.25c-.06.03-.12.04-.19.05l.66-.09c-.14.01-.28,0-.42,0l.66.09c-.96-.16-1.88-.41-2.87-.49s-2.05.03-3.06.2c-.52.09-1,.5-1.3.9-.33.42-.56.97-.54,1.51.05,1.11.74,2.1,1.84,2.41,1.39.4,2.89.55,4.32.36.45,0,.87-.12,1.26-.34.38-.22.67-.52.9-.9.45-.77.45-1.75,0-2.52-.38-.65-1.03-1.2-1.77-1.39-.82-.21-1.54-.06-2.29.29-1.37.62-1.7,2.98-.51,3.93.8.64,1.66,1.17,2.69,1.35s2.08.19,3.06-.17c.84-.31,1.5-.85,1.75-1.75s-.06-1.73-.64-2.43c-.72-.87-1.92-1.62-3.08-1.51l.66.09-.11-.02,1.1.64-.04-.03.73,1.77v-.04c-.11.42-.23.84-.34,1.26l.02-.04-.39.51.04-.04-.51.39.03-.02-1.93.25h.02c-.58-1.02-1.16-2.04-1.75-3.07v.04c-.12.68-.12,1.31.25,1.93.3.52.9,1.01,1.49,1.15,1.21.28,2.84-.37,3.08-1.75h0Z"/>
</svg>