<?xml version="1.0" encoding="UTF-8"?>
<svg id="Layer_1" data-name="Layer 1" xmlns="http://www.w3.org/2000/svg" viewBox="0 0 595.28 841.89">
  <defs>
    <style>
      .cls-1 {
        fill: none;
      }

      .cls-1, .cls-2, .cls-3, .cls-4, .cls-5, .cls-6 {
        stroke: #231f20;
        stroke-miterlimit: 10;
      }

      .cls-1, .cls-3 {
        stroke-linecap: round;
      }

      .cls-1, .cls-3, .cls-4, .cls-5, .cls-6 {
        stroke-width: 3px;
      }

      .cls-7 {
        fill: #ebacce;
      }

      .cls-8, .cls-2 {
        fill: #231f20;
      }

      .cls-3, .cls-4 {
        fill: #99633b;
      }

      .cls-5 {
        fill: #342a13;
      }

      .cls-6 {
        fill: #9a7e41;
      }
    </style>
  </defs>
  <path class="cls-4" d="m415.23,262.59c-.74,16.45-39.45,19.25-58.97,18.56-19.52-.69-8.7,4.22-7.96-12.23.74-16.45-1.82-35.92,16.08-42.44,17.88-6.52,51.59,19.66,50.85,36.11Z"/>
  <path class="cls-8" d="m147.47,419.01c-10.85-6.62-17.76-17.87-22.7-29.27-2.64-6.09-4.73-12.42-6.59-18.78-2.33-7.95-4.36-15.99-6.07-24.09-1.91-8.99-3.44-18.07-4.56-27.19-.17-1.34-1.03-2.5-2.5-2.5-1.22,0-2.67,1.15-2.5,2.5,2.09,16.92,5.41,33.67,10.08,50.06,3.78,13.28,8.41,26.77,16.4,38.17,4.29,6.11,9.52,11.52,15.93,15.42,2.75,1.68,5.27-2.64,2.52-4.32h0Z"/>
  <path class="cls-8" d="m451.12,428.17c5.19-3.83,9.46-8.63,13.3-13.78,4.41-5.91,8.17-12.28,11.57-18.81,7.26-13.94,13.02-28.73,17.59-43.77,2.16-7.11,4.05-14.31,5.4-21.61.25-1.33-.37-2.7-1.75-3.08-1.22-.33-2.83.41-3.08,1.75-2.52,13.62-6.73,26.97-11.66,39.9-5.36,14.04-11.79,27.96-20.4,40.33-2.07,2.98-4.18,5.71-6.64,8.41-1.1,1.21-2.25,2.38-3.45,3.5-.57.53-1.15,1.05-1.75,1.55-.32.27-.65.54-.98.8-.2.16-.21.17-.68.51-1.08.8-1.63,2.17-.9,3.42.63,1.07,2.33,1.7,3.42.9h0Z"/>
  <path class="cls-6" d="m394.36,259.53c.84,8.7-15.27,12.36-23.55,13.1-8.27.74-3.37,2.71-4.21-5.99-.84-8.7-3.29-18.8,3.8-23.24,7.08-4.44,23.12,7.43,23.97,16.13Z"/>
  <path class="cls-4" d="m226.01,232.92c17.87,4.31,12.3,38.49,7.19,55.25-5.11,16.76,2.68,8.48-15.18,4.17-17.87-4.31-39.79-6.44-42.94-23.41-3.15-16.95,33.07-40.32,50.93-36.01Z"/>
  <path class="cls-6" d="m218.57,250.3c9.69,1.45,9.21,17.33,7.72,25.2-1.49,7.86,2.01,3.82-7.67,2.37-9.69-1.45-21.35-1.77-24.22-9.48-2.87-7.7,14.48-19.53,24.17-18.08Z"/>
  <path class="cls-3" d="m438.99,523.45c-26.37,98.08-61.84,77.21-128.32,78.26-80.99,1.27-110.35,14.11-141.27-61.09-44.7-108.72-37.78-301.49,138.66-301.6,151.56-.09,154.45,196.94,130.93,284.44Z"/>
  <ellipse class="cls-5" cx="299.2" cy="333.98" rx="34.73" ry="25.96"/>
  <ellipse class="cls-2" cx="299.26" cy="313.31" rx="11.41" ry="7.98"/>
  <line class="cls-1" x1="287.85" y1="526.19" x2="310.67" y2="536.4"/>
  <line class="cls-1" x1="307.03" y1="521.82" x2="292.27" y2="538.59"/>
  <path class="cls-8" d="m255.04,357.15c2.25-1.78,4.94,1.36,6.48,2.66,2.63,2.22,5.57,3.93,8.7,5.36,2.94,1.35,5.98,2.48,8.95,3.78,1.97.86,5.61,2.08,5.29,4.83s-3.57,4.45-5.91,5.39c-3,1.2-6.22,1.78-9.45,1.75-6.16-.07-13.04-2.39-16.09-8.13-1.55-2.92-2.28-6.69-1.81-9.98.38-2.66,2.06-5.98,5.07-6.35,1.34-.17,2.5-1.03,2.5-2.5,0-1.22-1.15-2.67-2.5-2.5-4.16.52-7.44,3.18-9.03,7.05s-1.38,8.41-.29,12.4,3.4,7.65,6.78,10.21,7.27,3.87,11.26,4.45c4.29.62,8.68.37,12.84-.87,3.88-1.16,8.21-3.13,10.35-6.77,2.27-3.85,1.3-8.31-2.22-10.97-3.05-2.3-7.03-3.47-10.53-4.93-4.04-1.67-7.95-3.59-11.24-6.5-1.68-1.49-3.45-3.04-5.68-3.6-2.57-.65-4.97.1-7,1.7-1.06.84-.88,2.66,0,3.54,1.05,1.05,2.47.84,3.54,0h0Z"/>
  <path class="cls-8" d="m253.1,372.74c2.97-3.42,8.38-3.75,12.37-2.16s6.82,5.44,7.59,9.71c.24,1.33,1.86,2.08,3.08,1.75,1.4-.38,1.99-1.74,1.75-3.08-1.08-5.98-5.34-10.97-10.96-13.15s-13.24-1.34-17.35,3.39c-.88,1.02-1,2.53,0,3.54.9.9,2.65,1.02,3.54,0h0Z"/>
  <path class="cls-8" d="m253.56,363.52c-.28-.07.19-.3.01.03.11-.19.17-.34.34-.55.08-.1-.05.12-.21.01-.01,0,.18-.01.17.03-.02.36.67.43-.13.75-.32.13-.53.03-.74-.29-.32-.51-.11-.36-.05-.73.42-.94,1.21-.56,2.39,1.15l-.08.12-.1.09c.2-.2.24-.24.14-.14-.25-.16,0,.59.09,0,.02-.09-.15.24.11.01-.07.06-.34-.07-.39-.12l2.43-4.18c1.73.53-.4,2.99-1.19,1.62l1.49-3.67c.18-.03.55-.1.62.16l-3.67,2.82c.33.19.67.38,1,.57v-4.32c-.38.22-.71.26-1.05-.05l-2.43,4.18c2.69.81,4.95,2.34,6.79,4.45l1.77-4.27c-.85-.08-1.7-.16-2.56-.24v5c1.52-.08,2.98,0,4.47.34l1.33-4.82c-1.31-.21-2.5-.64-3.52-1.52v3.54c-.88.75-1.31.1-.31.76.42.27.81.57,1.22.85.88.62,1.76,1.23,2.64,1.85,1.83,1.28,3.66,2.56,5.49,3.84,2.33,1.63,5.1-2.01,3.03-3.93-.58-.54-1.05-1.1-1.33-1.86l-3.08,3.08c3.19.87,6.15,2.38,8.67,4.54l1.77-4.27c-.63,0-1.2-.11-1.78-.4l-1.93,4.57c.89.14,1.68.41,2.27,1.12.07.09.15.29.24.34l.17.31,1.33-1.74c.02.06.09.17-.16-.04-.04-.03-.41-.22-.49-.27-2.04-1.24-3.99.8-3.67,2.82.06.35.11.71.17,1.06l3.67-2.82c-.63-.35-.84-.72-.97-1.43l-4.82,1.33c.9,2.22,3.09,3.7,5.55,3.04,1.14-.31,2.09-1.1,2.73-2.07.15-.23-.13-.07-.11-.12,0,0,.25.06.22.07-.12.07-.54-.71-.16,0l.9-3.42c-2.21,1.08-3.89,3.29-4.23,5.75l.64-1.1c-.38.32-.77.65-1.15.97-1.26,1.06-.77,3.15.51,3.93,1.53.92,3.25.59,4.66-.39.34-.24.66-.5.99-.76.07-.05.8-.63.46-.38.06-.04.71-.53.76-.48-.16.11-.33.15-.52.14-.76-.29-.94-.33-.55-.1,2.74,1.71,5.25-2.62,2.52-4.32-1.51-.94-3.25-.6-4.64.37-.34.24-.66.5-.99.76-.07.05-.79.63-.46.38-.06.05-.71.54-.76.49-.01-.01.87-.14,1.06-.03l.51,3.93c.46-.39.98-.74,1.34-1.22.46-.61.42-1.24.68-1.92.32-.82.94-1.31,1.7-1.69,1.24-.61,1.5-2.3.9-3.42-1.04-1.92-3.34-2.89-5.46-2.38-1.04.25-1.88.86-2.55,1.68-.94,1.14-.1.06.28.99-1.2-2.96-5.42-1.89-4.82,1.33.35,1.89,1.59,3.5,3.27,4.42,2.06,1.13,4-.72,3.67-2.82-.06-.35-.11-.71-.17-1.06l-3.67,2.82c1.19.72,2.7,1.24,4.1.88,1.69-.43,2.75-1.98,2.66-3.7-.16-3.08-3.44-5.59-6.27-6.04-1.23-.19-2.45.21-2.95,1.45-.44,1.09-.11,2.56,1.02,3.12,1.37.69,2.76,1.06,4.3,1.08,2.06.03,3.44-2.83,1.77-4.27-3.18-2.73-6.83-4.73-10.88-5.83-1.72-.47-3.75,1.24-3.08,3.08.57,1.56,1.38,2.92,2.61,4.06l3.03-3.93c-2.51-1.75-5.02-3.51-7.52-5.26-2.34-1.64-4.95-3.5-7.58-1.25-.98.83-.96,2.7,0,3.54,1.65,1.43,3.55,2.45,5.73,2.81,1.33.22,2.69-.35,3.08-1.75.35-1.26-.42-2.78-1.75-3.08-1.91-.43-3.84-.62-5.8-.51-3.25.18-3.18,4.7,0,5,.85.08,1.7.16,2.56.24,2.34.22,3.06-2.79,1.77-4.27-2.39-2.74-5.52-4.69-8.99-5.74-2.36-.71-4.26,2.48-2.43,4.18,1.96,1.82,4.78,2.21,7.11.83,1.6-.95,1.64-3.38,0-4.32-.33-.19-.67-.38-1-.57-1.88-1.08-4.26.7-3.67,2.82.7,2.55,3.03,3.72,5.53,3.33,1.64-.25,2.22-2.41,1.49-3.67-1.37-2.38-4.91-2.81-6.65-.59s-.43,5.51,2.19,6.31c2.37.73,4.25-2.48,2.43-4.18-2.56-2.4-7.25-1.31-8.13,2.25-.51,2.06.68,4.43,2.93,4.65,2.05.2,3.83-1.26,4.3-3.23,1.05-4.38-4.79-6.85-7.56-3.59-2.95,3.47.53,8.41,4.76,7.48,4.84-1.07,4.53-8.03-.07-9.19-3.12-.79-4.45,4.03-1.33,4.82h0Z"/>
  <path class="cls-7" d="m259.77,376.13c.8-.06,1.6-.08,2.4-.04.38.02.75.05,1.12.09.46.06-.28-.05.17.03.23.04.46.08.69.13v-4.82c-.29.09-.28.09,0,.02.67.24.81.26.43.04l-1.93,4.57c.15.03.3.07.45.12-.2-.1-.22-.11-.06-.03.11.05.21.11.3.17-.19-.17-.17-.15.04.04l1.1-4.18c-.25.06-.5.12-.75.15.35-.05-.09,0-.23,0-.47.02-.94.02-1.41-.04.35.04-.09-.02-.22-.05-.21-.04-.42-.09-.62-.15-.25-.07-.49-.15-.73-.24.37.15-.31-.16-.34-.17l-1.26,4.66c.22,0,.43,0,.65,0-.23,0-.28-.06-.02,0,.21.06.42.11.62.18-.33-.11-.1-.04.09.06.16.09.31.19.46.29-.29-.19-.07-.05.08.09.13.12.26.26.37.4-.27-.34.02.07.1.21l2.16-3.76c-.06,0-.79-.04-.28.03-.23-.04-.47-.1-.69-.18.39.13-.16-.1-.26-.16l-.2-.13c.4.25.58.67.55,1.24l-.34,1.26.07-.15-.9.9s-.43.14-.43.12c0-.01.43-.02.46-.02.15,0,.31,0,.46.02-.37-.03-.06,0,.14.05.15.04.3.1.45.13.33.07-.24-.16.05.01s.6.34.89.55l-.51-3.93c.47-.5,1.73-.51.81-.47-.44.02.26.12.03,0-.12-.06-.3-.09-.44-.13-.57-.16.44.24-.09-.04-.63-.33-1.23-.7-1.85-1.06-1.66-.98-3.28-1.49-5.21-1.18-1.55.25-2.33,2.43-1.49,3.67,2.82,4.19,7.71,5.64,12.56,5.59,1.25-.01,2.29-.94,2.46-2.17.15-1.09-.56-2.58-1.79-2.74-.52-.07-1.02-.18-1.52-.35-.21-.07-.41-.14-.61-.22-.16-.06-.16-.06,0,0l-.24-.11c-.92-.46-1.84-.92-2.77-1.34-2-.91-4.05-1.7-6.15-2.34l.6,4.57c.27-.21.56-.37.85-.53s-.31.06.02,0c.14-.02.29-.09.43-.12.18-.04.37-.09.55-.11-.25.03-.22.02.01.02.35,0,.69-.02,1.04,0,.15,0,.31.03.46.04.41.03-.57-.11.14.03.3.06.6.12.9.19.73.18,1.45.41,2.15.69-.25-.1-.02-.01.1.04.15.07.3.14.45.22.34.17.66.35.98.56.14.09.28.18.42.28.06.04.48.38.18.13.24.2.47.4.68.62.14.14.27.28.4.42.03.03.32.39.17.19s.12.18.14.21c.11.16.21.32.31.49.07.13.41.84.25.44.14.36.25.73.34,1.1l2.41-3.16c-.72,0-1.44-.05-2.16-.12-.31-.04-.36-.04-.14-.02-.13-.02-.27-.04-.4-.07-.31-.05-.62-.11-.93-.18-.71-.16-1.4-.35-2.09-.58-.26-.09-.51-.18-.77-.27-.17-.06-.34-.13-.5-.2.18.07.13.05-.15-.07-1.22-.59-2.41-1.24-3.56-1.96-.51-.32-1.04-.62-1.53-.97.48.35-.62-.43-.15-.1-.15-.26-.17-.28-.06-.06.02.13.01.26-.03.38.24-1.28-.36-2.76-1.75-3.08-1.23-.28-2.82.37-3.08,1.75-.45,2.38.73,4.18,2.63,5.49,1.35.93,2.8,1.78,4.26,2.51,3.24,1.63,6.76,2.51,10.4,2.54,1.67.01,2.78-1.6,2.41-3.16-.92-3.91-4.08-6.63-7.67-8.09-3.24-1.32-7.64-2.06-10.66.2-.83.62-1.34,1.4-1.19,2.49.13.99.83,1.79,1.79,2.08,1.99.6,3.77,1.27,5.46,2.07,1.88.89,3.74,2.01,5.84,2.3l.66-4.91c-2.03.02-3.31-.08-5.24-.8-.4-.15.5.25-.16-.07-.18-.09-.35-.17-.53-.27-.38-.21-.75-.44-1.1-.69.28.2-.02-.02-.14-.12-.15-.13-.29-.26-.43-.4-.17-.17-.32-.34-.48-.52.27.32-.11-.16-.17-.25l-1.49,3.67c-.82.13.03-.03.06.04-.37-.06-.42-.07-.14-.02l.17.04c.18.05.34.11.51.17-.59-.2-.05,0,.08.06.69.36,1.33.8,2.01,1.17,1.8,1,4.6,1.88,6.25.11,1.19-1.27.8-2.96-.51-3.93-1.12-.82-2.44-1.25-3.81-1.4-1.45-.16-3.34.02-4.15,1.43-1.94,3.38,2.77,5.67,5.47,5.6,1.89-.05,3.12-2.09,2.16-3.76-1.35-2.34-3.95-3.83-6.67-3.73-1.06.04-2.16.74-2.41,1.84s.14,2.31,1.15,2.82c2.55,1.31,5.36,1.67,8.16,1.01,1.78-.42,2.49-2.94,1.1-4.18-.86-.77-1.82-1.34-2.95-1.59-2.77-.61-4.34,3-1.93,4.57.99.64,2.28.82,3.41.44,1.01-.34,1.89-1.28,1.84-2.41-.05-1.04-.73-2.19-1.84-2.41-1.89-.37-3.8-.53-5.72-.39-1.3.1-2.56,1.08-2.5,2.5.06,1.27,1.1,2.6,2.5,2.5h0Z"/>
  <path class="cls-7" d="m256.49,373.35c1.01-.67,1.88-.89,3.01-.89,1.22,0,2.46.35,3.69.82,1.15.44,2.36,1.05,3.43,1.74.89.58,1.75,1.41,2.28,2.24.3.48.55.94.66,1.25.09.26.18.52.25.79,0,0,.1.51.13.53l.7-1.56-.18.1c-.31.06-1,.3-1.3.33-.69.05-1.4.03-2.09-.06.38.05-.23-.04-.34-.07-.29-.06-.58-.12-.87-.2-.61-.16-1.22-.35-1.81-.59.32.13-.24-.12-.33-.16-.27-.13-.53-.27-.79-.41-.52-.29-1.02-.61-1.5-.95-.1-.07-.21-.15-.31-.23.28.21-.14-.13-.19-.17-.26-.22-.51-.45-.75-.68-.45-.44-.89-.91-1.28-1.41.18.23-.27-.39-.36-.52-.19-.28-.37-.57-.53-.86-.15-.26-.28-.52-.41-.79-.02-.03-.25-.49-.14-.3.04.09.03.06-.02-.09-.18-.68-.4-.2-.66,1.43l-1.26.34h.22c1.35-.1,2.5-1.1,2.5-2.51,0-1.29-1.15-2.59-2.5-2.5-1.44.09-2.68.88-3.13,2.31-.42,1.33.06,2.55.63,3.74.74,1.56,1.79,3,2.97,4.25,2.31,2.44,5.42,4.27,8.7,5.02,3.71.85,11.15.62,9.8-5.05-.93-3.9-3.83-6.79-7.33-8.53-4.12-2.05-9.25-3.43-13.41-.67-1.12.75-1.61,2.21-.9,3.42.65,1.12,2.29,1.65,3.42.9h0Z"/>
  <ellipse class="cls-2" cx="259.65" cy="305.33" rx="8.32" ry="7.98"/>
  <ellipse class="cls-2" cx="338.85" cy="305.33" rx="8.32" ry="7.98"/>
</svg>